<svg width="82" height="108" viewBox="0 0 82 108" fill="none" xmlns="http://www.w3.org/2000/svg">
<path d="M33.726 89.9222H48.4121C49.1295 89.9222 49.711 90.6392 49.711 91.2204V106.702C49.711 107.419 49.1295 108 48.4121 108H33.726C33.0086 108 32.4271 107.283 32.4271 106.702V91.2204C32.4271 90.5034 33.0086 89.9222 33.726 89.9222Z" fill="#4B6B9A" fill-opacity="0.4"/>
<path d="M42.0943 0.0140381C52.3651 11.8628 60.1018 21.1032 61.7944 33.4234C63.4951 45.803 59.0842 61.1447 45.5276 85.2366C46.1725 85.6958 46.7578 86.2501 47.2678 86.8821C79.1194 58.0506 76.7542 18.6228 53.443 1.92112C49.8499 0.778384 46.0417 0.11738 42.0943 0.0140381Z" fill="#4B6B9A" fill-opacity="0.4"/>
<path d="M41.178 0.000111382C41.1685 7.10066e-05 41.159 3.38791e-05 41.1494 0L41.1622 0.0138362L41.178 0.000111382Z" fill="#4B6B9A" fill-opacity="0.4"/>
<path d="M40.7874 0.592279C51.2513 12.6593 58.7976 21.65 60.4406 33.6092C62.0761 45.5144 57.8706 60.509 44.3524 84.539C43.3249 84.0414 42.1915 83.7656 41.0003 83.7656C40.0713 83.7656 39.1767 83.9334 38.3397 84.2432C36.9525 79.0238 35.1618 73.7336 33.3672 68.4319L33.3667 68.4306L33.3665 68.4299C32.8089 66.7826 32.2509 65.1342 31.7045 63.4864C29.323 56.3043 27.1547 49.1151 26.1346 41.9644C25.1153 34.82 25.2458 27.7363 27.447 20.7642C29.5976 13.9522 33.7378 7.20541 40.7874 0.592279Z" fill="#4B6B9A" fill-opacity="0.4"/>
<path d="M57.6242 3.50877C78.605 22.0967 78.9083 60.1934 48.0517 88.015C48.1834 88.2383 48.3068 88.4683 48.4215 88.7043C60.2336 78.5021 81.9918 57.4704 81.9918 40.9769C81.9918 24.2614 71.9815 9.88307 57.6242 3.50877Z" fill="#4B6B9A" fill-opacity="0.4"/>
<path d="M9.12352 38.0884C8.26332 24.9594 13.0348 13.044 24.3363 3.52561C9.99705 9.90837 0 24.2761 0 40.9769C0 57.4688 21.758 78.5021 33.5703 88.7043C33.7453 88.3442 33.9406 87.9982 34.1548 87.6684C19.0878 70.846 10.1443 53.6687 9.12352 38.0884Z" fill="#4B6B9A" fill-opacity="0.4"/>
<path d="M10.4871 37.9992C9.57584 24.0904 15.1758 11.5589 28.6787 1.88231C32.0805 0.812402 35.6736 0.173776 39.3937 0.0305847C32.4702 6.64772 28.3253 13.4434 26.1438 20.3532C23.8648 27.5719 23.7423 34.8718 24.7817 42.1572C25.8202 49.4363 28.0222 56.723 30.4074 63.9161C30.9604 65.5838 31.5228 67.2455 32.0832 68.9011C33.9031 74.2777 35.7013 79.5904 37.0838 84.8386C36.31 85.2914 35.6065 85.874 34.9971 86.5608C20.1391 69.9159 11.4759 53.091 10.4871 37.9992Z" fill="#4B6B9A" fill-opacity="0.4"/>
</svg>
