<svg width="301" height="150" viewBox="0 0 301 150" fill="none" xmlns="http://www.w3.org/2000/svg">
<path d="M153.121 71.5309V93.0864C153.121 95.1605 153.528 96.642 154.344 97.5309C155.16 98.4198 156.569 98.8642 158.571 98.8642H160.907V111.531H154.9C149.932 111.531 146.113 110.272 143.443 107.753C140.774 105.16 139.439 101.346 139.439 96.3087V71.5309H129.984V60.0864H139.439V39.5309H153.121V60.0864H163.688V71.5309H153.121Z" fill="#FFFDFB"/>
<path d="M185.599 111.42H171.917V33.642H185.599V111.42Z" fill="#FFFDFB"/>
<path d="M219.562 113.086C215.039 113.086 210.886 112.012 207.104 109.864C203.322 107.716 200.319 104.605 198.094 100.531C195.944 96.3827 194.868 91.4568 194.868 85.7531C194.868 80.0494 195.944 75.1605 198.094 71.0864C200.319 66.9383 203.322 63.7901 207.104 61.642C210.886 59.4938 215.039 58.4198 219.562 58.4198C223.567 58.4198 226.978 59.1975 229.796 60.7531C232.688 62.3086 234.987 64.4938 236.693 67.3086H236.915V60.0864H250.486V111.42H236.915V104.198H236.693C234.987 107.012 232.688 109.198 229.796 110.753C226.978 112.309 223.567 113.086 219.562 113.086ZM223.011 100.198C227.163 100.198 230.5 98.8642 233.022 96.1975C235.617 93.5309 236.915 90.0494 236.915 85.7531C236.915 81.4568 235.617 77.9753 233.022 75.3086C230.5 72.642 227.163 71.3086 223.011 71.3086C218.858 71.3086 215.484 72.642 212.888 75.3086C210.367 77.9753 209.106 81.4568 209.106 85.7531C209.106 90.0494 210.367 93.5309 212.888 96.1975C215.484 98.8642 218.858 100.198 223.011 100.198Z" fill="#FFFDFB"/>
<path d="M279.754 113.086C276.046 113.086 272.264 112.642 268.408 111.753C264.552 110.864 260.993 109.494 257.73 107.642L263.291 96.0864C269.372 99.642 275.119 101.42 280.533 101.42C284.76 101.42 286.873 100.198 286.873 97.7531C286.873 96.7901 286.54 96.0124 285.872 95.4198C285.205 94.8272 284.055 94.1235 282.424 93.3087L273.191 89.3086C269.187 87.5309 266.258 85.3827 264.404 82.8642C262.55 80.3457 261.623 77.3827 261.623 73.9753C261.623 68.9383 263.329 65.0864 266.74 62.4198C270.151 59.7531 275.082 58.4198 281.534 58.4198C287.318 58.4198 293.399 59.6049 299.776 61.9753L295.216 73.4198C289.654 71.0494 284.834 69.8642 280.755 69.8642C278.827 69.8642 277.455 70.1235 276.64 70.642C275.898 71.1605 275.527 71.9383 275.527 72.9753C275.527 73.9383 275.861 74.7531 276.528 75.4198C277.27 76.0864 278.568 76.8272 280.422 77.642L289.654 81.642C293.436 83.1975 296.254 85.1605 298.108 87.5309C300.036 89.9012 301 92.9383 301 96.642C301 102.123 299.109 106.235 295.327 108.975C291.545 111.716 286.354 113.086 279.754 113.086Z" fill="#FFFDFB"/>
<path d="M3.28237e-06 112.335L64.9137 150L129.496 112.654H114.896L108.515 95.4784H77.3698L70.9892 112.654H55.6327L86.0213 37.037H99.8639L130.048 112.146V37.2247L64.9137 0L0 37.2247L3.28237e-06 112.335Z" fill="#FFFDFB"/>
<path d="M92.9426 53.2407L103.973 82.9475H81.9118L92.9426 53.2407Z" fill="#FFFDFB"/>
</svg>
