<svg width="82" height="108" viewBox="0 0 82 108" fill="none" xmlns="http://www.w3.org/2000/svg">
<path d="M81.9821 69.6838C82.1359 74.634 81.2965 79.5653 79.5133 84.1843C77.7305 88.8035 75.0405 93.0162 71.6031 96.5731C63.8969 103.924 58.3667 107.025 47.7315 107.233C49.4004 107.085 46.3602 107.59 47.7315 106.625C49.1034 105.66 50.1971 104.351 50.9036 102.828V102.769C54.2271 95.5206 49.2124 82.7774 42.6821 75.0614C42.2337 74.6118 41.6254 74.3587 40.991 74.3587C40.3565 74.3587 39.7483 74.6118 39.2998 75.0614C32.769 82.7773 27.7548 95.5791 31.0783 102.828C31.1324 102.994 31.2112 103.152 31.3118 103.295C32.2024 104.953 33.5496 106.32 35.1938 107.233C36.8375 108.144 35.9804 107.99 35.7071 107.99L34.0216 107.944C10.1152 107.944 0 93.5918 0 71.5543V71.5538C0.15374 63.3973 1.95929 55.3569 5.30704 47.921C8.65479 40.4851 13.4753 33.8089 19.4748 28.2971C19.8264 28.0008 20.2572 27.8148 20.7137 27.7629C21.1702 27.7106 21.6314 27.7948 22.0405 28.005C22.4291 28.2443 22.737 28.5949 22.924 29.0121C23.1114 29.4288 23.1693 29.8927 23.0901 30.3432C21.1076 40.0467 23.6149 46.5937 26.9967 48.815C28.2722 49.5024 29.7275 49.7811 31.1663 49.6142C32.605 49.4467 33.9583 48.8416 35.0431 47.8798C39.1827 44.8985 38.3665 38.5268 37.4337 31.1616C36.5008 23.7963 35.5095 16.0218 39.5914 10.1178C41.6569 6.70039 44.6525 3.94461 48.2261 2.17403C51.7997 0.40345 55.8032 -0.308241 59.7658 0.122256C60.2161 0.202651 60.6309 0.419099 60.954 0.743536C61.2771 1.0675 61.4935 1.48326 61.5737 1.93423C61.6387 2.37378 61.5675 2.82285 61.3692 3.22011C61.1713 3.6178 60.8558 3.94414 60.4657 4.15583C58.674 5.51443 57.4986 7.53478 57.2006 9.76727C56.5007 13.5667 57.5503 20.406 66.2381 31.2203C77.5501 45.3079 81.9814 56.0636 81.9814 69.6837L81.9821 69.6838Z" fill="#EA1313" fill-opacity="0.3"/>
</svg>
