<svg width="27" height="30" viewBox="0 0 27 30" fill="none" xmlns="http://www.w3.org/2000/svg">
<path d="M23.1923 23.0233C24.202 23.0225 25.17 22.618 25.884 21.8986C26.5978 21.1791 26.9992 20.2036 27 19.186V3.83721C26.9992 2.81969 26.5978 1.84415 25.884 1.12468C25.17 0.405321 24.202 0.000781395 23.1923 0H10.7308C9.72108 0.000763088 8.75304 0.405293 8.03911 1.12468C7.32528 1.84415 6.92385 2.81969 6.92308 3.83721V7.17209H3.80769C2.79811 7.17318 1.8303 7.57783 1.11644 8.29719C0.402591 9.01655 0.00108 9.9919 0 11.0093V26.1628C0.00108172 27.1802 0.402618 28.1555 1.11644 28.8749C1.83027 29.5943 2.79811 29.9989 3.80769 30H16.2692C17.2788 29.9989 18.2466 29.5943 18.9605 28.8749C19.6743 28.1555 20.0758 27.1802 20.0769 26.1628V23.0233H23.1923ZM9 3.83721C9.00076 3.3749 9.18335 2.93166 9.50777 2.60473C9.83218 2.2778 10.272 2.09378 10.7308 2.09302H23.1923C23.6511 2.09379 24.0909 2.2778 24.4153 2.60473C24.7397 2.93166 24.9223 3.3749 24.9231 3.83721V19.186C24.9223 19.6484 24.7397 20.0916 24.4153 20.4185C24.0909 20.7455 23.6511 20.9295 23.1923 20.9302H10.7308C10.272 20.9295 9.83218 20.7455 9.50777 20.4185C9.18335 20.0916 9.00075 19.6484 9 19.186V3.83721ZM18 26.1628C17.9992 26.6251 17.8166 27.0683 17.4922 27.3953C17.1678 27.7222 16.728 27.9062 16.2692 27.907H3.80769C3.34894 27.9062 2.9091 27.7222 2.58469 27.3953C2.26027 27.0683 2.07767 26.6251 2.07692 26.1628V11.0093C2.07768 10.547 2.26028 10.1037 2.58469 9.77682C2.9091 9.44989 3.34894 9.26587 3.80769 9.26512H6.92308V19.186C6.92383 20.2036 7.32525 21.1791 8.03911 21.8986C8.75304 22.6179 9.72108 23.0225 10.7308 23.0233H18V26.1628Z" fill="#FFF7EE"/>
</svg>
