<svg width="1587" height="615" viewBox="0 0 1587 615" fill="none" xmlns="http://www.w3.org/2000/svg">
<rect width="1587" height="615" fill="#1C223D"/>
<path d="M757.56 295.76V365.6C757.56 372.32 758.88 377.12 761.52 380C764.16 382.88 768.72 384.32 775.2 384.32H782.76V425.36H763.32C747.24 425.36 734.88 421.28 726.24 413.12C717.6 404.72 713.28 392.36 713.28 376.04V295.76H682.68V258.68H713.28V192.08H757.56V258.68H791.76V295.76H757.56ZM862.674 425H818.394V173H862.674V425ZM972.593 430.4C957.953 430.4 944.513 426.92 932.273 419.96C920.033 413 910.313 402.92 903.113 389.72C896.153 376.28 892.673 360.32 892.673 341.84C892.673 323.36 896.153 307.52 903.113 294.32C910.313 280.88 920.033 270.68 932.273 263.72C944.513 256.76 957.953 253.28 972.593 253.28C985.553 253.28 996.593 255.8 1005.71 260.84C1015.07 265.88 1022.51 272.96 1028.03 282.08H1028.75V258.68H1072.67V425H1028.75V401.6H1028.03C1022.51 410.72 1015.07 417.8 1005.71 422.84C996.593 427.88 985.553 430.4 972.593 430.4ZM983.753 388.64C997.193 388.64 1007.99 384.32 1016.15 375.68C1024.55 367.04 1028.75 355.76 1028.75 341.84C1028.75 327.92 1024.55 316.64 1016.15 308C1007.99 299.36 997.193 295.04 983.753 295.04C970.313 295.04 959.393 299.36 950.993 308C942.833 316.64 938.753 327.92 938.753 341.84C938.753 355.76 942.833 367.04 950.993 375.68C959.393 384.32 970.313 388.64 983.753 388.64ZM1167.4 430.4C1155.4 430.4 1143.16 428.96 1130.68 426.08C1118.2 423.2 1106.68 418.76 1096.12 412.76L1114.12 375.32C1133.8 386.84 1152.4 392.6 1169.92 392.6C1183.6 392.6 1190.44 388.64 1190.44 380.72C1190.44 377.6 1189.36 375.08 1187.2 373.16C1185.04 371.24 1181.32 368.96 1176.04 366.32L1146.16 353.36C1133.2 347.6 1123.72 340.64 1117.72 332.48C1111.72 324.32 1108.72 314.72 1108.72 303.68C1108.72 287.36 1114.24 274.88 1125.28 266.24C1136.32 257.6 1152.28 253.28 1173.16 253.28C1191.88 253.28 1211.56 257.12 1232.2 264.8L1217.44 301.88C1199.44 294.2 1183.84 290.36 1170.64 290.36C1164.4 290.36 1159.96 291.2 1157.32 292.88C1154.92 294.56 1153.72 297.08 1153.72 300.44C1153.72 303.56 1154.8 306.2 1156.96 308.36C1159.36 310.52 1163.56 312.92 1169.56 315.56L1199.44 328.52C1211.68 333.56 1220.8 339.92 1226.8 347.6C1233.04 355.28 1236.16 365.12 1236.16 377.12C1236.16 394.88 1230.04 408.2 1217.8 417.08C1205.56 425.96 1188.76 430.4 1167.4 430.4Z" fill="#FFF7EE"/>
<path fill-rule="evenodd" clip-rule="evenodd" d="M262 427.965L472.087 550L681.1 429H633.85L613.2 373.35H512.4L491.75 429H442.05L540.4 184H585.2L682.888 427.352L682.888 184.608L472.087 64L262 184.608L262 427.965ZM562.8 236.5L598.5 332.75H527.1L562.8 236.5Z" fill="#FFF7EE"/>
</svg>
