<svg width="36" height="33" viewBox="0 0 36 33" fill="none" xmlns="http://www.w3.org/2000/svg">
<path d="M8.38389 25.9934C8.35994 25.8824 8.26424 25.7995 8.14874 25.7902C6.68235 25.6737 5.36633 25.5219 4.23677 25.339C3.87637 25.2809 3.53521 25.2182 3.20551 25.1535C3.09913 25.1338 2.99432 25.1762 2.93546 25.2633C2.87661 25.3504 2.877 25.4638 2.93702 25.5501C4.63741 28.0067 6.90566 30.0034 9.32331 31.1731C9.36016 31.1907 9.39974 31.1998 9.43932 31.1998C9.50091 31.1998 9.56172 31.1786 9.61016 31.1375C9.68971 31.0704 9.72057 30.9629 9.68893 30.8648C9.1845 29.3085 8.74586 27.6698 8.38389 25.9934ZM3.74193 25.7769C3.87591 25.8008 4.01237 25.824 4.15156 25.8464C5.24479 26.0238 6.50911 26.172 7.91187 26.2873C8.22267 27.7039 8.58869 29.0931 9.00182 30.4277C7.04221 29.363 5.20659 27.7403 3.74193 25.7769Z" fill="black"/>
<path d="M7.87122 25.0986C7.87525 25.099 7.87877 25.099 7.88242 25.099C7.95846 25.099 8.03046 25.0664 8.08046 25.01C8.1328 24.9507 8.15481 24.8712 8.1397 24.7942C7.74491 22.7397 7.46964 20.6397 7.32058 18.5516C7.31537 18.4822 7.28177 18.4171 7.22696 18.3724C7.17214 18.3277 7.1017 18.3084 7.03061 18.3143C5.29415 18.5021 3.7542 18.6873 2.46531 18.8431C1.71128 18.9341 1.04372 19.0145 0.472888 19.0788C0.400492 19.0866 0.334479 19.1243 0.29125 19.182C0.24841 19.2397 0.231613 19.3126 0.245287 19.3829C0.586051 21.118 1.27485 22.8567 2.2924 24.5514C2.33316 24.6193 2.4036 24.6652 2.48316 24.6758C3.05439 24.7516 3.66715 24.8182 4.30358 24.8752C5.32754 24.9681 6.52789 25.0437 7.87122 25.0986ZM0.816604 19.5573C1.3226 19.4988 1.89576 19.4299 2.52896 19.3534C3.74902 19.2063 5.19377 19.0321 6.81726 18.8547C6.96322 20.7664 7.21399 22.6862 7.56439 24.5709C6.36243 24.5175 5.28277 24.4476 4.35124 24.363C3.76882 24.3111 3.20685 24.2503 2.67966 24.1829C1.79333 22.682 1.15257 21.0912 0.816604 19.5573Z" fill="black"/>
<path d="M0.40285 18.9499C0.425245 18.9499 0.44725 18.9471 0.469256 18.9416C1.62601 18.6441 2.72887 18.4037 3.8459 18.2049C4.80436 18.0185 5.87545 17.8341 7.02947 17.6571C7.16189 17.6367 7.25707 17.5222 7.25069 17.3911L7.22465 16.8788C7.1434 15.6606 7.1559 14.4536 7.16827 13.2863L7.17583 12.3832L7.26384 10.7924C7.26866 10.7127 7.23507 10.6351 7.17309 10.583C7.11111 10.5307 7.02869 10.5097 6.94835 10.5261C5.64316 10.794 4.4804 11.0761 3.49371 11.363C2.53095 11.6375 1.58176 11.9482 0.673298 12.286C0.591269 12.3163 0.530459 12.3844 0.510929 12.4683C0.167199 13.9262 0 15.4012 0 16.9779C0 17.4968 0.046743 18.0696 0.143229 18.7294C0.154036 18.802 0.195572 18.8667 0.258071 18.9072C0.301171 18.9354 0.351547 18.9499 0.40285 18.9499ZM0.991112 12.7181C1.84671 12.4039 2.73747 12.1144 3.64186 11.8563C4.53145 11.5973 5.56618 11.3432 6.72217 11.0992L6.65212 12.3679L6.64417 13.2812C6.6318 14.4581 6.61891 15.675 6.70133 16.9064L6.71539 17.1857C5.6426 17.3525 4.64458 17.5254 3.74785 17.7C2.71386 17.884 1.68863 18.1044 0.622608 18.3715C0.556202 17.8545 0.523782 17.3963 0.523782 16.9777C0.523912 15.489 0.676775 14.0938 0.991112 12.7181Z" fill="black"/>
<path d="M18.5102 26.1813C18.5078 26.1122 18.477 26.0471 18.4254 26.0004C18.3739 25.9537 18.3063 25.9291 18.2343 25.9338L18.1543 25.9381C15.1572 26.0637 12.2437 26.0453 9.49606 25.8828C9.4152 25.8824 9.33721 25.9103 9.28369 25.9695C9.23005 26.0288 9.20765 26.1092 9.22289 26.1869C9.56845 27.9954 9.99528 29.8029 10.4916 31.5591C10.5144 31.6396 10.576 31.7043 10.6561 31.7326L10.7617 31.7733C10.8153 31.7949 10.8692 31.8161 10.924 31.8341C13.3043 32.6081 15.7477 33 18.1906 33C18.2839 33 18.3766 32.9992 18.4698 32.9985C18.5406 32.9973 18.6078 32.9687 18.6563 32.9188C18.7051 32.8686 18.731 32.8014 18.7283 32.7321L18.6418 30.3779C18.6117 29.131 18.5658 27.7137 18.5102 26.1813ZM18.1905 32.4852C15.8037 32.4852 13.4159 32.1024 11.0886 31.3456C11.0457 31.3315 11.0038 31.3146 10.9618 31.2977C10.5133 29.6995 10.1234 28.0593 9.80017 26.4152C12.4114 26.5576 15.1651 26.5725 17.9961 26.4595C18.0473 27.8903 18.0897 29.2158 18.1185 30.3924L18.1953 32.4857L18.1905 32.4852Z" fill="black"/>
<path d="M18.0349 4.37783C18.1377 5.15185 18.2173 5.96031 18.3017 6.81645L18.4173 7.96704C18.4325 8.10202 18.5541 8.20047 18.6905 8.19575C21.404 8.06869 24.0221 8.09295 26.4704 8.26867C26.4768 8.26905 26.4832 8.26944 26.4895 8.26944C26.5612 8.26944 26.6295 8.24083 26.6791 8.18975C26.7332 8.13445 26.7591 8.05758 26.75 7.98147C26.632 7.02343 26.4648 6.11728 26.3032 5.24124L26.1633 4.47426C26.0988 4.09882 26.01 3.73983 25.9248 3.39314C25.8764 3.19622 25.8285 3.00237 25.7845 2.80148C25.7374 2.61708 25.6957 2.43396 25.6545 2.25337C25.5858 1.95212 25.5186 1.65867 25.4321 1.37811C25.409 1.30123 25.3501 1.24006 25.2742 1.21172C23.0626 0.392623 20.2989 -0.0479321 17.6739 0.00414603C17.5975 0.00567846 17.5259 0.0399043 17.4772 0.0974975C17.4284 0.155218 17.408 0.230818 17.4212 0.305015C17.48 0.639976 17.536 0.986444 17.5853 1.35524L18.0349 4.37783ZM24.9652 1.6478C25.0308 1.87971 25.0856 2.12017 25.142 2.36536C25.1844 2.55014 25.2267 2.73762 25.2732 2.91769C25.3165 3.1146 25.3653 3.31228 25.4148 3.51356C25.498 3.85172 25.5844 4.20162 25.646 4.56058L25.7871 5.33266C25.9296 6.10589 26.0767 6.90262 26.1891 7.73358C24.8532 7.64534 23.4695 7.60103 22.0488 7.60103C21.0216 7.60103 19.9753 7.62453 18.9141 7.6705L18.8233 6.76664C18.7385 5.90593 18.6581 5.09272 18.5546 4.30965L18.5542 4.30569L18.1034 1.28412C18.0683 1.01849 18.0291 0.762713 17.9878 0.514059C20.4148 0.504226 22.9205 0.910702 24.9652 1.6478Z" fill="black"/>
<path d="M26.7908 25.2382C26.7319 25.1821 26.6504 25.1566 26.5688 25.168C24.3952 25.4877 22.0098 25.7231 19.4785 25.8678C19.3401 25.8755 19.2321 25.9874 19.2317 26.1232C19.225 27.7355 19.1929 29.1667 19.1373 30.378L19.1269 30.6236C19.0961 31.3796 19.0677 32.0704 19.0277 32.6953C19.0229 32.7686 19.0505 32.8401 19.103 32.8922C19.1522 32.9412 19.2194 32.9687 19.2894 32.9687C19.2942 32.9687 19.2983 32.9687 19.303 32.9683C21.5514 32.8545 23.6929 32.3916 25.6689 31.5933C25.7481 31.5611 25.8065 31.4933 25.8249 31.411C26.2645 29.4546 26.6157 27.4504 26.8677 25.4542C26.8784 25.3737 26.8496 25.2943 26.7908 25.2382ZM25.3428 31.1685C23.5433 31.8798 21.6029 32.3062 19.5686 32.438C19.5998 31.8876 19.6242 31.2897 19.651 30.6448L19.661 30.4C19.7143 29.2439 19.7458 27.888 19.7546 26.3668C22.0789 26.2283 24.2799 26.0129 26.3046 25.7261C26.0641 27.5503 25.7412 29.3783 25.3428 31.1685Z" fill="black"/>
<path d="M1.01199 11.8591C1.05079 11.8591 1.08959 11.8508 1.12553 11.8335C1.81759 11.5071 2.56068 11.2 3.33591 10.9202C4.41507 10.5239 5.69786 10.1446 7.14821 9.79344C7.25785 9.76676 7.3378 9.67417 7.34665 9.56396C7.39105 9.00144 7.4335 8.57886 7.48545 8.18313C7.58545 7.06431 7.76865 6.00785 7.94548 4.98583L8.04314 4.41935C8.10876 4.02156 8.20277 3.63321 8.29353 3.25778L8.33832 3.07338C8.36228 2.97377 8.32348 2.86982 8.23988 2.80852C8.1559 2.74735 8.04353 2.74071 7.95304 2.79128C4.31006 4.83259 1.88941 7.77253 0.760756 11.5292C0.731199 11.6268 0.7631 11.7319 0.842395 11.7978C0.890702 11.8382 0.951181 11.8591 1.01199 11.8591ZM7.68727 3.54389C7.62724 3.80121 7.57086 4.06493 7.52646 4.33591L7.42933 4.89919C7.25055 5.93091 7.0658 6.99798 6.96487 8.12699C6.91851 8.47767 6.87893 8.85706 6.83883 9.33874C5.44404 9.6824 4.20448 10.0519 3.15385 10.438C2.56273 10.6514 1.98863 10.8809 1.4411 11.1226C2.53459 7.93999 4.63209 5.39457 7.68727 3.54389Z" fill="black"/>
<path d="M8.20593 9.21328C8.20073 9.29373 8.23393 9.37214 8.2963 9.42476C8.34434 9.46549 8.40554 9.48707 8.46752 9.48707C8.48588 9.48707 8.50476 9.48516 8.52312 9.4812C11.2823 8.89556 14.2577 8.4855 17.3667 8.26303C17.5111 8.25282 17.6139 8.05156 17.6036 7.91032C17.5655 7.39173 17.5335 6.88334 17.5024 6.38695C17.4599 5.71255 17.4192 5.06064 17.3665 4.43374L17.0937 1.42315C17.0689 1.02255 17.0373 0.64365 17.0029 0.279202C16.9898 0.139496 16.8614 0.0391195 16.7238 0.046145C15.7718 0.111656 14.8973 0.24038 14.1253 0.428999C12.3725 0.857066 10.7267 1.43019 9.23238 2.13205C9.15516 2.16819 9.10113 2.23919 9.0872 2.32194L9.07313 2.40431C9.04878 2.55104 9.02431 2.69738 8.99227 2.85585C8.95985 3.052 8.92222 3.25044 8.88381 3.45133C8.8174 3.79933 8.74826 4.15943 8.70386 4.53451C8.67027 4.80562 8.63381 5.08056 8.5971 5.35945C8.4747 6.28721 8.34788 7.24639 8.28668 8.25229C8.25348 8.56861 8.22794 8.88953 8.20593 9.21328ZM8.80956 8.29447C8.87076 7.29535 8.99602 6.34509 9.11751 5.42603C9.15436 5.1456 9.19107 4.86938 9.22466 4.59713L9.22505 4.59559C9.2675 4.23814 9.33469 3.88671 9.39979 3.54704C9.43899 3.34182 9.47779 3.13904 9.50904 2.9476C9.53664 2.80955 9.55982 2.67419 9.5826 2.53882C11.0114 1.87783 12.5814 1.33599 14.2522 0.928357C14.9254 0.76362 15.6818 0.646263 16.5038 0.578849C16.5285 0.860943 16.5518 1.15311 16.571 1.46192L16.8441 4.47839C16.897 5.10019 16.9378 5.74864 16.9793 6.41908C17.0069 6.86042 17.0353 7.31121 17.0681 7.77017C14.1562 7.98867 11.3625 8.37114 8.75383 8.90788C8.76972 8.70406 8.78795 8.50086 8.80956 8.29447Z" fill="black"/>
<path d="M26.3541 2.6648C26.4045 2.84715 26.4597 3.03157 26.5153 3.21876C26.6225 3.57696 26.7333 3.94769 26.8161 4.3262L26.8165 4.32773L26.9389 4.866C27.1709 5.88481 27.4113 6.93771 27.5725 8.07107L27.5893 8.17196C27.6093 8.28574 27.7041 8.37245 27.8213 8.3842C29.2877 8.52773 30.5977 8.71533 31.7136 8.94123L31.9449 8.98874C32.5669 9.1158 33.1549 9.23584 33.6781 9.37875C33.7012 9.38539 33.7248 9.3882 33.7485 9.3882C33.8265 9.3882 33.9017 9.3541 33.9521 9.29293C34.0178 9.21325 34.0294 9.10304 33.9805 9.01199C32.2873 5.83987 29.6469 3.26444 26.5459 1.75865C26.4535 1.71396 26.3423 1.72647 26.2627 1.79122C26.1828 1.85596 26.1496 1.96068 26.1776 2.05837L26.214 2.18748C26.2593 2.34774 26.3049 2.50899 26.3541 2.6648ZM33.2301 8.73567C32.8561 8.64896 32.461 8.56851 32.0513 8.48499L31.8201 8.43748C30.7373 8.21822 29.478 8.03498 28.0758 7.89258C27.9138 6.78707 27.6781 5.75368 27.4501 4.75377L27.3285 4.21756C27.2413 3.82051 27.1281 3.44126 27.0181 3.074C26.9633 2.89036 26.9092 2.70955 26.8573 2.52167C26.854 2.51222 26.8513 2.50239 26.8484 2.49268C29.4535 3.88872 31.6891 6.07619 33.2301 8.73567Z" fill="black"/>
<path d="M8.45825 17.449C11.4627 17.0351 14.5452 16.7483 17.6205 16.5966L17.8497 16.5868C17.9945 16.5798 18.1057 16.4597 18.0989 16.3177L18.0781 15.8748C18.0221 14.9293 17.9717 13.9989 17.9229 13.0884C17.8541 11.8094 17.7873 10.5682 17.7084 9.37622C17.7036 9.30751 17.6716 9.24404 17.6192 9.19884C17.5669 9.15376 17.496 9.13218 17.4281 9.13652C14.2665 9.36243 11.1288 9.74884 8.35347 10.2534C8.23303 10.2754 8.14423 10.3757 8.13941 10.4958L8.10907 11.2753C8.09501 11.6437 8.08108 12.0156 8.06428 12.4051C8.06793 12.7845 8.06793 13.1673 8.06793 13.5534C8.06754 14.6232 8.06754 15.7291 8.14358 16.8435L8.16037 17.2072C8.16363 17.2793 8.198 17.3469 8.25477 17.3931C8.30191 17.4316 8.36154 17.4524 8.42196 17.4524C8.43381 17.4519 8.44615 17.4511 8.45825 17.449ZM8.6326 11.2935L8.65461 10.7211C11.283 10.2515 14.2272 9.889 17.2022 9.6678C17.2738 10.7788 17.3358 11.9306 17.3993 13.1152C17.4482 14.0272 17.4986 14.9582 17.5546 15.902L17.563 16.0849C14.5798 16.2331 11.5904 16.5078 8.67008 16.9013L8.66605 16.8174C8.59131 15.7119 8.59131 14.6146 8.59131 13.553C8.59131 13.1651 8.5913 12.7806 8.58727 12.4134C8.60485 12.0363 8.61854 11.6631 8.6326 11.2935Z" fill="black"/>
<path d="M19.2759 16.5248C19.2795 16.5248 19.2827 16.5248 19.2863 16.5244C21.9135 16.426 24.5399 16.4177 27.0959 16.5009C27.1687 16.506 27.2363 16.477 27.2871 16.4288C27.3382 16.3801 27.367 16.3134 27.3666 16.2436C27.3634 15.2648 27.3143 14.2993 27.2662 13.3657C27.2479 13.0079 27.2298 12.6532 27.2134 12.2884C27.1774 11.9188 27.145 11.5528 27.1122 11.1903C27.0522 10.5234 26.9938 9.86908 26.919 9.22992C26.9045 9.104 26.7985 9.00784 26.6693 9.00235C24.1918 8.90275 21.5437 8.92267 18.7981 9.06123C18.7272 9.06518 18.6604 9.09647 18.6137 9.14947C18.5674 9.20208 18.5446 9.27104 18.5506 9.34089C18.7214 11.2456 18.8413 13.2561 18.9681 15.385L19.0141 16.2794C19.0202 16.4168 19.1363 16.5248 19.2759 16.5248ZM26.4228 9.50684C26.4856 10.0718 26.5373 10.6485 26.5896 11.2349C26.622 11.5986 26.6553 11.9661 26.69 12.3236C26.7053 12.6767 26.7236 13.0325 26.7424 13.3914C26.7852 14.2337 26.83 15.1026 26.84 15.979C24.4441 15.9073 21.9857 15.9151 19.5271 16.0018L19.4915 15.3548C19.3703 13.3208 19.2551 11.3942 19.0964 9.56151C21.6458 9.43904 24.1082 9.42089 26.4228 9.50684Z" fill="black"/>
<path d="M27.1081 17.2025C24.3294 17.2146 21.7822 17.2746 19.3209 17.3865C19.1769 17.3931 19.0657 17.512 19.0709 17.6533C19.1672 20.1514 19.2213 22.5358 19.2313 24.7405C19.2317 24.8108 19.2612 24.8782 19.3133 24.9261C19.3621 24.9712 19.4265 24.9963 19.4933 24.9963C19.4981 24.9963 19.5029 24.9963 19.5073 24.9959C22.1293 24.8575 24.579 24.657 26.7876 24.3988C26.9092 24.3846 27.0048 24.2897 27.0172 24.1701C27.2564 21.9206 27.3751 19.6628 27.3708 17.4588C27.3704 17.3904 27.3428 17.3249 27.2936 17.2772C27.2444 17.2289 27.1749 17.2112 27.1081 17.2025ZM26.5177 23.9125C24.452 24.1486 22.1794 24.3354 19.7537 24.4676C19.7409 22.4091 19.6906 20.198 19.6041 17.8883C21.8996 17.788 24.2744 17.7318 26.847 17.7177C26.8424 19.7548 26.7313 21.8362 26.5177 23.9125Z" fill="black"/>
<path d="M34.0464 23.3819C33.4128 23.6318 32.7108 23.8645 31.9588 24.0743C30.818 24.3945 29.4632 24.6902 27.9315 24.9526C27.8195 24.9719 27.7334 25.0594 27.717 25.1692C27.4346 27.0864 27.0542 28.953 26.5857 30.7167C26.5597 30.8148 26.5946 30.9183 26.6749 30.9819C26.7226 31.0192 26.7805 31.0388 26.8394 31.0388C26.8801 31.0388 26.9206 31.0293 26.9585 31.0105C29.6249 29.6775 31.8102 27.7595 33.4541 25.3104C33.7901 24.809 34.1009 24.2791 34.3781 23.7353C34.4269 23.6395 34.4101 23.5246 34.3366 23.4462C34.2627 23.3669 34.1472 23.3419 34.0464 23.3819ZM33.0167 25.0276C31.5315 27.2405 29.5894 29.0059 27.2394 30.2822C27.6322 28.7247 27.9574 27.0951 28.2085 25.4268C29.6817 25.1691 30.9913 24.8807 32.1025 24.5683C32.6222 24.4235 33.1193 24.2675 33.588 24.1022C33.4082 24.4198 33.2171 24.7291 33.0167 25.0276Z" fill="black"/>
<path d="M9.24822 25.146C10.2866 25.1738 11.3478 25.1876 12.4278 25.1876C14.2754 25.1876 16.1781 25.1469 18.1154 25.0657L18.2117 25.0606C18.3542 25.0528 18.4641 24.9343 18.4585 24.7945C18.3749 22.6149 18.2733 20.2288 18.16 17.7037C18.1568 17.635 18.1261 17.5708 18.0745 17.5248C18.0229 17.4785 17.9589 17.4542 17.8845 17.4581L17.671 17.4691C14.767 17.6033 11.755 17.8307 8.46339 18.1643C8.32342 18.1785 8.21977 18.2989 8.22862 18.4366C8.36899 20.5817 8.62785 22.7669 8.99698 24.9315C9.0173 25.0525 9.12257 25.1424 9.24822 25.146ZM17.6482 17.9848C17.7522 20.3159 17.8466 22.5244 17.925 24.5592C15.0059 24.6788 12.1667 24.7044 9.47837 24.638C9.14477 22.6416 8.90598 20.6296 8.76798 18.6508C11.9346 18.3334 14.8425 18.115 17.6482 17.9848Z" fill="black"/>
<path d="M35.7197 17.2339C34.9006 17.2484 33.7894 17.2374 32.3828 17.224C31.2592 17.2134 29.9708 17.2013 28.5495 17.1998C28.4803 17.1998 28.4131 17.2268 28.3639 17.2747C28.3147 17.323 28.2867 17.3885 28.2867 17.4567C28.2855 19.6096 28.1498 21.79 27.8834 23.9375C27.8734 24.0168 27.9014 24.096 27.9595 24.1517C28.0087 24.1996 28.0751 24.2259 28.1435 24.2259C28.155 24.2259 28.1674 24.2251 28.179 24.2236C29.5742 24.0361 30.8047 23.8328 31.835 23.6206C32.907 23.4025 33.8618 23.1584 34.6722 22.8952C34.7446 22.8717 34.803 22.8183 34.8322 22.7493C35.5278 21.0937 35.9158 19.3281 35.9851 17.5006C35.9879 17.43 35.9607 17.3618 35.9103 17.3111C35.861 17.2609 35.7901 17.2248 35.7197 17.2339ZM34.3945 22.444C33.6277 22.6872 32.7321 22.9135 31.7293 23.1176C30.7937 23.3105 29.6901 23.4957 28.4449 23.6684C28.6777 21.6936 28.8005 19.6934 28.8113 17.7145C30.1273 17.7174 31.3254 17.7287 32.378 17.7384C33.6355 17.7506 34.6575 17.7604 35.4499 17.7522C35.3588 19.3818 35.0041 20.9583 34.3945 22.444Z" fill="black"/>
<path d="M31.6364 9.40254C30.6005 9.26565 29.3932 9.15416 28.0493 9.07308C27.9721 9.06989 27.8953 9.09824 27.8414 9.1543C27.7882 9.21036 27.763 9.28686 27.7734 9.36297C27.8678 10.0679 27.945 10.7902 28.0238 11.5273L28.0995 12.2252L28.1483 13.034C28.2139 14.0952 28.2815 15.1928 28.2838 16.3019C28.2842 16.4388 28.3939 16.5518 28.5335 16.5581C29.5782 16.6071 30.5771 16.6704 31.5031 16.7469C33.0827 16.872 34.5718 17.0371 35.6971 17.2117C35.7106 17.214 35.7243 17.2149 35.7378 17.2149C35.7998 17.2149 35.8598 17.1933 35.9079 17.1537C35.9663 17.1051 35.9999 17.0337 35.9999 16.9587C36.0071 14.5983 35.47 12.1739 34.4476 9.94698C34.4125 9.87125 34.3424 9.81634 34.2588 9.80025L34.066 9.76449C33.5196 9.64445 32.9019 9.56476 32.2484 9.48124L31.6364 9.40254ZM34.0243 10.281C34.9384 12.3135 35.4367 14.5094 35.4731 16.6592C34.3783 16.4995 32.9984 16.3504 31.5455 16.2355C30.6876 16.1648 29.7671 16.1048 28.8059 16.0573C28.7951 15.0169 28.732 13.9945 28.6712 13.0037L28.6212 12.1839L28.5447 11.4742C28.4768 10.8399 28.4104 10.2169 28.3331 9.60604C29.5376 9.68445 30.6235 9.78725 31.5651 9.91164L32.18 9.9917C32.8215 10.0741 33.4276 10.1517 33.9556 10.2679L34.0243 10.281Z" fill="black"/>
</svg>
