<svg width="423" height="490" viewBox="0 0 423 490" fill="none" xmlns="http://www.w3.org/2000/svg">
<path d="M210.836 488.432L211.086 488.578L211.337 488.433L422.139 366.397L422.388 366.253L422.388 365.965L422.388 122.608L422.388 122.318L422.136 122.174L211.335 1.56603L211.086 1.42373L210.838 1.5664L0.751046 122.174L0.499984 122.318L0.499984 122.608L0.499995 365.965L0.499995 366.253L0.748851 366.397L210.836 488.432Z" fill="black" stroke="black"/>
<path d="M352.2 311.35H251.4L230.75 367H181.05L279.4 122H324.2L422.55 367H372.85L352.2 311.35ZM337.5 270.75L301.8 174.5L266.1 270.75H337.5Z" fill="#FFF7EE"/>
</svg>
