<svg width="10" height="19" viewBox="0 0 10 19" fill="none" xmlns="http://www.w3.org/2000/svg">
<path d="M9.12 4.896C9.12 6.064 8.76 6.992 8.04 7.68C7.336 8.352 6.336 8.928 5.04 9.408L4.248 9.792L3.864 12.984H3.24L2.904 10.104L3.696 9.456C4.064 9.152 4.384 8.832 4.656 8.496C4.928 8.16 5.152 7.792 5.328 7.392C5.504 6.992 5.632 6.56 5.712 6.096C5.808 5.616 5.856 5.08 5.856 4.488C5.856 3.64 5.672 2.928 5.304 2.352C4.952 1.776 4.384 1.432 3.6 1.32L1.824 4.944H0.936V1.248L3.912 0.935999C4.824 1 5.608 1.152 6.264 1.392C6.92 1.616 7.456 1.912 7.872 2.28C8.304 2.632 8.616 3.032 8.808 3.48C9.016 3.928 9.12 4.4 9.12 4.896ZM4.224 15.024L4.944 15.168L5.112 16.68L4.8 18L2.832 18.168L2.112 18L1.968 16.44L2.232 15.168L4.224 15.024Z" fill="black"/>
</svg>
