<svg width="31" height="31" viewBox="0 0 31 31" fill="none" xmlns="http://www.w3.org/2000/svg">
<path d="M20.0805 31H27.8999C28.3295 30.9995 28.7415 30.8289 29.0453 30.5255C29.3492 30.2222 29.52 29.8109 29.5205 29.3819V14.3935C29.5205 14.2067 29.4207 14.0342 29.2588 13.9409C29.097 13.8476 28.8974 13.8476 28.7355 13.9409C28.5736 14.0342 28.4738 14.2067 28.4738 14.3935V29.3819C28.4737 29.5338 28.4132 29.6795 28.3055 29.7869C28.1979 29.8942 28.0521 29.9547 27.8999 29.9549H20.0806C19.9284 29.9547 19.7826 29.8942 19.675 29.7869C19.5674 29.6795 19.5068 29.5338 19.5067 29.3819V21.5745C19.506 21.1456 19.3351 20.7345 19.0314 20.4313C18.7276 20.1282 18.3159 19.9576 17.8864 19.9571H13.1145C12.6849 19.9576 12.2731 20.1283 11.9693 20.4317C11.6656 20.735 11.4947 21.1462 11.4942 21.5752V29.3818C11.4941 29.5336 11.4336 29.6793 11.3259 29.7867C11.2184 29.8941 11.0725 29.9545 10.9204 29.9547H3.10098C2.9488 29.9545 2.80297 29.8941 2.69543 29.7867C2.58777 29.6793 2.52723 29.5336 2.52712 29.3818V14.3933C2.52712 14.2065 2.42729 14.0341 2.26546 13.9407C2.10351 13.8474 1.90395 13.8474 1.74213 13.9407C1.58018 14.0341 1.48047 14.2065 1.48047 14.3933V29.3818C1.48092 29.8107 1.65173 30.222 1.95565 30.5254C2.25944 30.8287 2.67136 30.9994 3.10101 30.9998H10.9204C11.35 30.9994 11.7619 30.8287 12.0657 30.5254C12.3696 30.222 12.5405 29.8108 12.5409 29.3818V21.5743C12.5413 21.4225 12.6018 21.2771 12.7092 21.1698C12.8168 21.0624 12.9625 21.0021 13.1146 21.002H17.8864C18.0386 21.0021 18.1844 21.0625 18.292 21.17C18.3995 21.2774 18.4599 21.4231 18.4601 21.575V29.3816C18.4605 29.8105 18.6314 30.2218 18.9352 30.5252C19.239 30.8285 19.6509 30.9995 20.0805 31Z" fill="black"/>
<path d="M0.837687 11.6815L14.6817 1.31426C14.9183 1.1385 15.2054 1.04359 15.5002 1.04359C15.795 1.04359 16.0821 1.1385 16.3187 1.31426L30.1627 11.6815C30.2738 11.7646 30.4134 11.8004 30.5507 11.7807C30.6881 11.7612 30.8121 11.6879 30.8954 11.577C30.9786 11.4662 31.0144 11.3268 30.9947 11.1896C30.9752 11.0524 30.9017 10.9287 30.7908 10.8455L16.9467 0.478201C16.5286 0.167732 16.0212 0 15.5002 0C14.9791 0 14.4718 0.167711 14.0537 0.478201L0.209328 10.8455C0.0597581 10.9575 -0.0186043 11.1406 0.00376795 11.326C0.0261411 11.5113 0.145842 11.6708 0.317793 11.744C0.489738 11.8174 0.688132 11.7936 0.837687 11.6815Z" fill="black"/>
</svg>
