<svg width="980" height="486" viewBox="0 0 980 486" fill="none" xmlns="http://www.w3.org/2000/svg">
<path d="M495.56 231.76V301.6C495.56 308.32 496.88 313.12 499.52 316C502.16 318.88 506.72 320.32 513.2 320.32H520.76V361.36H501.32C485.24 361.36 472.88 357.28 464.24 349.12C455.6 340.72 451.28 328.36 451.28 312.04V231.76H420.68V194.68H451.28V128.08H495.56V194.68H529.76V231.76H495.56ZM600.674 361H556.394V109H600.674V361ZM710.593 366.4C695.953 366.4 682.513 362.92 670.273 355.96C658.033 349 648.313 338.92 641.113 325.72C634.153 312.28 630.673 296.32 630.673 277.84C630.673 259.36 634.153 243.52 641.113 230.32C648.313 216.88 658.033 206.68 670.273 199.72C682.513 192.76 695.953 189.28 710.593 189.28C723.553 189.28 734.593 191.8 743.713 196.84C753.073 201.88 760.513 208.96 766.033 218.08H766.753V194.68H810.673V361H766.753V337.6H766.033C760.513 346.72 753.073 353.8 743.713 358.84C734.593 363.88 723.553 366.4 710.593 366.4ZM721.753 324.64C735.193 324.64 745.993 320.32 754.153 311.68C762.553 303.04 766.753 291.76 766.753 277.84C766.753 263.92 762.553 252.64 754.153 244C745.993 235.36 735.193 231.04 721.753 231.04C708.313 231.04 697.393 235.36 688.993 244C680.833 252.64 676.753 263.92 676.753 277.84C676.753 291.76 680.833 303.04 688.993 311.68C697.393 320.32 708.313 324.64 721.753 324.64ZM905.398 366.4C893.398 366.4 881.158 364.96 868.678 362.08C856.198 359.2 844.678 354.76 834.118 348.76L852.118 311.32C871.798 322.84 890.398 328.6 907.918 328.6C921.598 328.6 928.438 324.64 928.438 316.72C928.438 313.6 927.358 311.08 925.198 309.16C923.038 307.24 919.318 304.96 914.038 302.32L884.158 289.36C871.198 283.6 861.718 276.64 855.718 268.48C849.718 260.32 846.718 250.72 846.718 239.68C846.718 223.36 852.238 210.88 863.278 202.24C874.318 193.6 890.278 189.28 911.158 189.28C929.878 189.28 949.558 193.12 970.198 200.8L955.438 237.88C937.438 230.2 921.838 226.36 908.638 226.36C902.398 226.36 897.958 227.2 895.318 228.88C892.918 230.56 891.718 233.08 891.718 236.44C891.718 239.56 892.798 242.2 894.958 244.36C897.358 246.52 901.558 248.92 907.558 251.56L937.438 264.52C949.678 269.56 958.798 275.92 964.798 283.6C971.038 291.28 974.158 301.12 974.158 313.12C974.158 330.88 968.038 344.2 955.798 353.08C943.558 361.96 926.758 366.4 905.398 366.4Z" fill="black"/>
<path fill-rule="evenodd" clip-rule="evenodd" d="M1.58879e-05 363.965L210.087 486L419.1 365H371.85L351.2 309.35H250.4L229.75 365H180.05L278.4 120H323.2L420.888 363.352L420.888 120.608L210.087 2.1322e-05L5.26481e-06 120.608L1.58879e-05 363.965ZM300.8 172.5L336.5 268.75H265.1L300.8 172.5Z" fill="black"/>
</svg>
