<svg width="113" height="108" viewBox="0 0 113 108" fill="none" xmlns="http://www.w3.org/2000/svg">
<path d="M36.295 20.0149C36.2334 20.0149 36.1598 20.0025 36.0982 19.9905L27.8047 38.7032H83.2915L74.2485 20.0151L36.295 20.0149Z" fill="#6ACFE6" fill-opacity="0.35"/>
<path d="M74.6178 18.0981L92.0527 9.04302L74.6178 0H36.5413L19.1064 9.04302L36.529 18.0981H74.6178Z" fill="#6ACFE6" fill-opacity="0.35"/>
<path d="M85.2575 38.3588L112.276 24.3274L93.8582 10.2714L76.1162 19.4864L85.2575 38.3588Z" fill="#6ACFE6" fill-opacity="0.35"/>
<path d="M0.393555 26.7111L51.6046 102.95L25.5813 40.3493L0.393555 26.7111Z" fill="#6ACFE6" fill-opacity="0.35"/>
<path d="M34.3905 19.1424L17.1523 10.1978L0 24.3152L25.8758 38.3343L34.3905 19.1424Z" fill="#6ACFE6" fill-opacity="0.35"/>
<path d="M59.873 103.075L110.802 27.2539L85.5769 40.3638L59.873 103.075Z" fill="#6ACFE6" fill-opacity="0.35"/>
<path d="M27.7676 40.6196L55.7813 108L83.3896 40.6196H27.7676Z" fill="#6ACFE6" fill-opacity="0.35"/>
</svg>
