<svg width="67" height="100" viewBox="0 0 67 100" fill="none" xmlns="http://www.w3.org/2000/svg">
<path d="M0.976145 57.4967L33.0555 43.5519L65.1348 57.4967L53.0809 82.3788L23.6142 86.5466L1.45874 62.6363L0.976145 57.4967Z" fill="#133444"/>
<path d="M58.4619 42.1524C53.1648 35.774 45.6609 31.6234 37.4427 30.5263C37.2672 30.5014 37.0917 30.4795 36.9162 30.4605C34.351 30.1621 31.7599 30.1621 29.1947 30.4605C29.0192 30.4809 28.8438 30.5029 28.6683 30.5263C20.4501 31.6234 12.9461 35.774 7.64911 42.1524L4.09327 48.04L2.46781 50.7404C2.4371 50.8128 2.40639 50.8873 2.37787 50.9597L2.35813 51.0102L33.0577 69.1689V37.0391L28.6705 39.0309V34.2203L33.0577 32.2263L59.7978 44.3723L58.4619 42.1524Z" fill="#C42370"/>
<path d="M66.111 65.4923C66.111 76.1928 61.0262 86.2044 53.1424 92.658C50.0425 95.2098 46.5003 97.1706 42.692 98.4425C39.5839 99.4739 36.3303 99.9998 33.0555 100C14.8003 100 1.12193e-05 83.7476 1.12193e-05 65.4923C-0.00221066 62.7973 0.325593 60.1121 0.976145 57.4967L33.0555 76.4735L65.1348 57.4967C65.7854 60.1121 66.1132 62.7973 66.111 65.4923Z" fill="#1C4D6B"/>
<path d="M33.0555 32.2197L28.6683 34.2137V30.2279L33.0555 32.2197Z" fill="black"/>
<path d="M28.6683 39.0309L33.0555 37.0391V69.182L28.6683 66.587V39.0309Z" fill="black"/>
<path d="M33.0555 37.0391V69.182L63.7945 50.9992L33.0555 37.0391Z" fill="#1D4259"/>
<path d="M33.0555 0V37.0391L63.7945 50.9992L33.0555 0Z" fill="#4B6B9A"/>
<path d="M33.0555 37.0391V69.182L28.6683 66.587L2.35595 51.0124L2.31646 50.9882L2.37569 50.9619C2.40421 50.8895 2.43492 50.8149 2.46563 50.7426L6.31102 44.3613L28.6683 34.2203V39.0462L33.0555 37.0391Z" fill="#343535"/>
<path d="M33.0555 37.0391V69.182L28.6683 66.587L2.35595 51.0234L2.31646 50.9992L2.37569 50.9729L28.6683 39.0309L33.0555 37.0391Z" fill="#3E5578"/>
<path d="M33.0555 0V37.0391L2.31646 50.9992L33.0555 0Z" fill="#6DB2D8"/>
<path d="M20.6199 97.3633C21.0784 97.5651 21.5434 97.756 22.0107 97.9359C21.5339 97.756 21.0703 97.5651 20.6199 97.3633Z" fill="#335F8A"/>
<path d="M21.9997 97.9359C22.4691 98.1157 22.9408 98.2846 23.419 98.4426C22.9408 98.2861 22.4677 98.1172 21.9997 97.9359Z" fill="#335F8A"/>
<path d="M24.6408 98.8199C25.0049 98.923 25.3713 99.0217 25.7376 99.1116C25.3705 99.021 25.0049 98.9237 24.6408 98.8199Z" fill="#335F8A"/>
<path d="M0.976145 57.4967L33.0555 76.4735C32.6271 79.3612 31.8561 82.1875 30.7588 84.8926C28.1923 91.0961 23.0066 97.6572 12.973 92.6668C5.0848 86.2088 1.12193e-05 76.1928 1.12193e-05 65.4923C-0.00221066 62.7973 0.325593 60.1121 0.976145 57.4967Z" fill="#6DB2D8"/>
<path d="M53.138 92.6602L53.059 92.7239C52.8923 92.8599 52.7256 92.9937 52.5567 93.1253L52.5128 93.1604C52.33 93.3066 52.1457 93.447 51.96 93.5816C51.7604 93.7307 51.5586 93.8799 51.3546 94.0203C51.1506 94.1607 50.9466 94.3076 50.7404 94.448C50.5342 94.5884 50.3762 94.6937 50.1942 94.8122L50.0932 94.878C49.9002 95.003 49.7072 95.1259 49.5141 95.2443C49.4911 95.2607 49.4669 95.2754 49.4417 95.2882C49.2421 95.4132 49.0425 95.5339 48.8407 95.6501C48.6389 95.7664 48.402 95.9024 48.1826 96.023C47.9633 96.1437 47.7439 96.2599 47.5245 96.374L47.5004 96.3872C47.281 96.5013 47.0617 96.6065 46.8423 96.7206C46.623 96.8347 46.4036 96.94 46.1667 97.0475C45.9298 97.1549 45.7104 97.2668 45.4823 97.3589C45.0238 97.5608 44.5588 97.7516 44.0915 97.9315C43.6243 98.1114 43.1505 98.2803 42.6723 98.4382C42.4814 98.5018 42.2906 98.5632 42.0975 98.6225C41.9045 98.6817 41.6588 98.7541 41.4504 98.8155C41.0863 98.9186 40.72 99.0173 40.3536 99.1073C40.2154 99.1423 40.075 99.1753 39.9347 99.206L39.6999 99.2608C39.5047 99.3047 39.3095 99.3464 39.112 99.3858C38.9146 99.4253 38.7523 99.4582 38.5702 99.4911C38.3882 99.524 38.239 99.5526 38.0723 99.5789C37.9056 99.6052 37.7037 99.6381 37.5195 99.6644C37.4295 99.6798 37.3396 99.6929 37.2475 99.7039L36.8329 99.7588L36.6026 99.7873C36.4512 99.807 36.2976 99.8224 36.1441 99.8377C35.9554 99.8575 35.769 99.875 35.5803 99.8904C35.4334 99.9013 35.2864 99.9145 35.1416 99.9233C34.9968 99.9321 34.8872 99.9408 34.7577 99.9452H34.7402C34.591 99.9452 34.4419 99.9628 34.3015 99.9671C34.0953 99.9671 33.8869 99.9825 33.6785 99.9869C33.4701 99.9913 33.2617 99.9869 33.0511 99.9869C32.8405 99.9869 32.6321 99.9869 32.4237 99.9869C32.2153 99.9869 32.0069 99.9869 31.8007 99.9671C31.6494 99.9671 31.5002 99.954 31.3511 99.9452H31.3335C31.2041 99.9452 31.0769 99.9321 30.9496 99.9233C30.8224 99.9145 30.6557 99.9013 30.5109 99.8904C30.3223 99.875 30.1358 99.8575 29.9471 99.8377C29.7936 99.8224 29.64 99.807 29.4887 99.7873L29.2693 99.7588C29.1311 99.7434 28.9929 99.7237 28.8547 99.7039C28.7626 99.7039 28.6727 99.6798 28.5827 99.6644C28.397 99.6381 28.2127 99.6096 28.0299 99.5789C27.8632 99.5526 27.6965 99.5218 27.532 99.4911C27.3675 99.4604 27.17 99.4231 26.9902 99.3858C26.8103 99.3486 26.5975 99.3047 26.4023 99.2608L26.1676 99.206C26.0272 99.1753 25.8868 99.1423 25.7486 99.1073C25.3801 99.0173 25.0137 98.9186 24.6518 98.8155L23.9937 98.6225C23.8007 98.5632 23.6098 98.5018 23.419 98.4382C22.9408 98.2803 22.4691 98.1114 21.9997 97.9315C21.5303 97.7516 21.0586 97.5651 20.6199 97.3633C20.4006 97.2624 20.1637 97.1571 19.9355 97.0518C19.7074 96.9465 19.4836 96.8325 19.2599 96.725C19.0361 96.6175 18.8212 96.5056 18.6018 96.3916L18.5777 96.3784C18.3583 96.2643 18.139 96.1459 17.9196 96.0274C17.7002 95.909 17.4809 95.7817 17.2615 95.6545C17.0421 95.5273 16.8689 95.422 16.6714 95.2926L16.599 95.2487C16.406 95.1302 16.213 95.0074 16.0199 94.8824L15.919 94.8166C15.737 94.6981 15.5527 94.5753 15.3728 94.4524C15.1929 94.3296 14.9604 94.1694 14.7586 94.0247C14.5568 93.8799 14.3528 93.7307 14.1532 93.5859C13.9535 93.4412 13.7824 93.3074 13.6004 93.1648L13.5565 93.1297C13.3876 92.9981 13.2209 92.8643 13.0542 92.7282L12.9752 92.6646C23.0088 97.6551 28.1945 91.094 30.761 84.8905C31.8578 82.1874 32.6288 79.3634 33.0577 76.478C33.4857 79.3641 34.2559 82.1889 35.3522 84.8927C37.9187 91.0896 43.1044 97.6507 53.138 92.6602Z" fill="#529BBA"/>
<path d="M40.3624 99.1116C40.7309 99.0217 41.0973 98.923 41.4592 98.8199C41.1024 98.9252 40.7368 99.0224 40.3624 99.1116Z" fill="#335F8A"/>
<path d="M42.692 98.4425C43.1702 98.2846 43.6418 98.1157 44.1113 97.9358C43.6448 98.1172 43.1717 98.2861 42.692 98.4425Z" fill="#335F8A"/>
<path d="M44.1113 97.9358C44.5785 97.756 45.0435 97.5651 45.502 97.3633C45.0443 97.5651 44.5807 97.756 44.1113 97.9358Z" fill="#335F8A"/>
<path d="M66.111 65.4923C66.111 76.1928 61.024 86.2066 53.138 92.6602C43.1044 97.6507 37.9187 91.0896 35.3522 84.886C34.2553 82.183 33.4843 79.359 33.0555 76.4735L65.1348 57.4967C65.7854 60.1121 66.1132 62.7973 66.111 65.4923Z" fill="#4B6B9A"/>
</svg>
