<svg width="10" height="17" viewBox="0 0 10 17" fill="none" xmlns="http://www.w3.org/2000/svg">
<path d="M4.99993 4.32644e-05C4.81965 4.32644e-05 4.64682 0.0747847 4.51927 0.20803C4.39175 0.341275 4.32022 0.521869 4.32022 0.710259V14.6607L1.14619 11.5804C1.0143 11.4505 0.838387 11.381 0.657287 11.3872C0.476196 11.3935 0.305139 11.475 0.181804 11.6137C0.0584853 11.7525 -0.00673269 11.9368 0.000550581 12.1259C0.00799501 12.3151 0.0872957 12.4933 0.220967 12.6211L4.53748 16.8101C4.66323 16.9322 4.82846 17 5 17C5.17154 17 5.33677 16.9322 5.46252 16.8101L9.77903 12.6215C9.91271 12.4936 9.99201 12.3154 9.99945 12.1263C10.0067 11.9371 9.94151 11.7528 9.8182 11.6141C9.69488 11.4755 9.52382 11.394 9.34271 11.3877C9.16162 11.3815 8.98571 11.451 8.85381 11.5808L5.67978 14.6607V0.710216C5.67978 0.521843 5.60825 0.341254 5.48073 0.207987C5.35321 0.0747415 5.18037 0 5.00007 0L4.99993 4.32644e-05Z" fill="#EA1313"/>
</svg>
