<svg width="21" height="21" viewBox="0 0 21 21" fill="none" xmlns="http://www.w3.org/2000/svg">
<path d="M14.7481 15.1344C14.6458 15.134 14.5479 15.0928 14.476 15.0199L12.7385 13.2827C12.6539 13.1837 12.625 13.0487 12.662 12.9239C12.6989 12.7991 12.7966 12.7014 12.9214 12.6645C13.0463 12.6276 13.1813 12.6564 13.2803 12.741L15.0322 14.4782C15.1029 14.5508 15.1423 14.6483 15.1418 14.7497C15.1413 14.851 15.1011 14.9481 15.0297 15.0202C14.9583 15.0921 14.8615 15.1332 14.7601 15.1344L14.7481 15.1344Z" fill="black"/>
<path d="M18.9325 21C18.6469 21.0006 18.3728 20.8873 18.1712 20.685L13.9824 16.497C13.7804 16.2952 13.6669 16.0214 13.6669 15.7358C13.6669 15.4503 13.7804 15.1765 13.9824 14.9746L14.973 13.9842C15.1749 13.7823 15.4488 13.6688 15.7344 13.6688C16.02 13.6688 16.2938 13.7823 16.4957 13.9842L20.6845 18.1722C20.8865 18.374 21 18.6479 21 18.9334C21 19.219 20.8865 19.4929 20.6845 19.6947L19.694 20.685C19.492 20.8868 19.2181 21.0002 18.9325 21ZM15.7343 14.4352C15.652 14.4354 15.573 14.468 15.5146 14.526L14.5242 15.5115C14.4658 15.5697 14.4331 15.6487 14.4331 15.731C14.4331 15.8134 14.4658 15.8924 14.5242 15.9505L18.713 20.1433C18.7715 20.2009 18.8504 20.2333 18.9325 20.2333C19.0147 20.2333 19.0937 20.2009 19.1522 20.1433L20.1427 19.153C20.201 19.0948 20.2338 19.0158 20.2338 18.9334C20.2338 18.851 20.201 18.772 20.1427 18.7138L15.9539 14.5258C15.8955 14.4679 15.8165 14.4354 15.7343 14.4352Z" fill="black"/>
<path d="M8.47804 0.0338029C7.14611 -0.0909498 5.80464 0.130902 4.5838 0.67785C3.36296 1.2248 2.30442 2.07818 1.51101 3.15505C1.45313 3.23366 1.4292 3.33208 1.44443 3.42848C1.45966 3.52488 1.51288 3.61118 1.5922 3.66813C1.66788 3.72087 1.76104 3.74239 1.85216 3.72817C1.9433 3.71388 2.02542 3.66502 2.08144 3.59177C3.14672 2.14389 4.72798 1.1611 6.49798 0.846903C8.26802 0.532605 10.0911 0.91099 11.5898 1.90358C13.0884 2.89625 14.1478 4.42712 14.5488 6.17927C14.9497 7.93141 14.6612 9.77048 13.7432 11.3158C12.8252 12.8612 11.3478 13.9943 9.61723 14.4807C7.88657 14.967 6.03506 14.7693 4.44626 13.9284C2.8574 13.0876 1.65273 11.668 1.08189 9.96377C0.510991 8.2594 0.617581 6.4008 1.37954 4.77293C1.41839 4.69564 1.42795 4.60693 1.4065 4.52313C1.38498 4.43931 1.33386 4.36621 1.26253 4.31713C1.17559 4.25825 1.06729 4.24022 0.965976 4.26772C0.864583 4.29522 0.780286 4.3656 0.735074 4.46037C0.0345729 5.95243 -0.172242 7.6288 0.144663 9.24653C0.461509 10.8641 1.28561 12.3386 2.49744 13.4562C3.70917 14.5738 5.24562 15.2764 6.88375 15.4619C8.52188 15.6474 10.1765 15.3065 11.6078 14.4883C13.0389 13.67 14.1722 12.4173 14.8431 10.9116C15.5139 9.40589 15.6875 7.72563 15.3387 6.11466C14.9898 4.50374 14.1367 3.04586 12.9032 1.95233C11.6696 0.858916 10.1195 0.186985 8.47804 0.0338029Z" fill="black"/>
</svg>
