<svg width="28" height="23" viewBox="0 0 28 23" fill="none" xmlns="http://www.w3.org/2000/svg">
<path d="M28 2.69383C26.9698 3.15117 25.8627 3.45917 24.7007 3.598C25.8872 2.8875 26.7983 1.76167 27.2265 0.42C26.117 1.078 24.8873 1.55633 23.5783 1.81417C22.5318 0.697667 21.0373 0 19.3853 0C15.6765 0 12.9512 3.46033 13.7888 7.0525C9.016 6.81333 4.78333 4.52667 1.9495 1.05117C0.4445 3.633 1.169 7.0105 3.72633 8.72083C2.786 8.6905 1.89933 8.43267 1.12583 8.00217C1.06283 10.6633 2.97033 13.153 5.733 13.7072C4.9245 13.9265 4.039 13.9778 3.13833 13.8052C3.86867 16.0872 5.98967 17.7473 8.505 17.794C6.09 19.6875 3.04733 20.5333 0 20.174C2.54217 21.8038 5.56267 22.7547 8.806 22.7547C19.4717 22.7547 25.4975 13.7468 25.1335 5.66767C26.2558 4.85683 27.23 3.84533 28 2.69383Z" fill="black"/>
</svg>
