<svg width="29" height="25" viewBox="0 0 29 25" fill="none" xmlns="http://www.w3.org/2000/svg">
<path d="M27.1813 5.84012C26.8734 6.0863 26.694 6.46299 26.6953 6.85718C26.6955 6.91798 26.6955 6.97887 26.6955 7.03988C26.6955 15.38 20.3331 24.9986 8.69909 25C8.69771 25 8.69656 24.9989 8.69656 24.9975C8.69656 24.9961 8.69544 24.995 8.69406 24.995C5.76242 24.9989 2.88279 24.2844 0.303891 22.9245C-0.0207881 22.7533 0.138601 22.2555 0.505654 22.2564C1.70302 22.2575 2.88601 22.0896 4.02158 21.7641C5.59933 21.3119 5.12018 18.8317 3.96736 17.6634C3.475 17.1645 3.06295 16.5811 2.75539 15.9314C2.59677 15.5963 2.90054 15.2463 3.27062 15.2683C3.78388 15.2988 3.83538 14.59 3.39019 14.3327C1.48011 13.229 0.233834 11.1719 0.233834 8.86977C0.233834 8.83388 0.27242 8.81116 0.304006 8.82819C0.570293 8.97179 0.845912 9.09563 1.12861 9.19908C1.67537 9.39915 1.98652 8.67059 1.62805 8.21182C0.644349 6.95285 0.179648 5.36779 0.311981 3.79311C0.425068 2.44744 2.06708 2.26929 3.07194 3.17144C4.48227 4.43762 6.07935 5.4676 7.79971 6.22923C10.8237 7.56798 13.6021 3.97739 16.0144 1.71522C18.3781 -0.501898 21.9977 -0.556719 24.421 1.47591C24.7773 1.77483 25.2427 1.93967 25.693 1.82314C26.3156 1.66202 26.9245 1.45391 27.5147 1.20091C28.0423 0.974742 28.5895 1.45735 28.2785 1.9398C28.1447 2.14718 27.9991 2.34649 27.8423 2.53673C27.5232 2.92383 27.8477 3.65214 28.3285 3.50889C28.7751 3.37582 29.1652 3.87673 28.8597 4.22862C28.3505 4.81506 27.7887 5.35439 27.1813 5.84012Z" fill="#FFFDFB"/>
</svg>
