<svg width="450" height="579" viewBox="0 0 450 579" fill="none" xmlns="http://www.w3.org/2000/svg">
<path d="M15.2988 412.652L15.2988 412.94L15.5477 413.085L225.634 535.12L225.885 535.266L226.136 535.12L436.937 413.085L437.187 412.941L437.187 412.652L437.187 169.296L437.187 169.006L436.935 168.862L226.134 48.2536L225.885 48.1113L225.637 48.254L15.5499 168.862L15.2988 169.006L15.2988 169.296L15.2988 412.652Z" stroke="black"/>
<path d="M62.7988 385.525L62.7988 386.1L63.2965 386.389L225.401 480.552L225.902 480.844L226.404 480.553L389.059 386.39L389.558 386.101L389.558 385.525L389.558 197.749L389.558 197.169L389.055 196.881L226.399 103.82L225.902 103.535L225.405 103.82L63.3009 196.882L62.7988 197.17L62.7988 197.749L62.7988 385.525Z" stroke="#FE7D06" stroke-width="2"/>
<circle opacity="0.1" cx="225.799" cy="108.687" r="40" fill="#FE7D06" stroke="#FE7D06" stroke-width="3" stroke-dasharray="1 1"/>
<circle opacity="0.1" cx="225.799" cy="474.688" r="40" fill="#FE7D06" stroke="#FE7D06" stroke-width="3" stroke-dasharray="1 1"/>
<path d="M68.9014 178.265C69.7241 179.784 69.4661 180.939 68.1276 181.73C66.7666 182.498 65.6409 182.142 64.7506 180.662L61.1295 174.39C60.3011 172.893 60.5556 171.74 61.8932 170.932C63.2552 170.181 64.3843 170.535 65.2803 171.994L68.9014 178.265ZM62.6998 182.008C63.4985 183.36 64.5404 184.157 65.8254 184.399C67.0524 184.664 68.228 184.482 69.3522 183.851C70.4945 183.173 71.2574 182.237 71.6406 181.041C72.0335 179.831 71.8509 178.538 71.0928 177.163L67.3252 170.637C66.5091 169.286 65.4788 168.478 64.2344 168.213C63.0074 167.947 61.8188 168.146 60.6686 168.81C59.5522 169.455 58.8024 170.375 58.4191 171.571C57.9857 172.804 58.1567 174.108 58.9322 175.483L62.6998 182.008ZM71.0662 165.96L78.3142 178.514L80.4353 177.29L71.8923 162.493L69.7713 163.717L68.5552 166.463L69.856 168.716L71.0662 165.96ZM85.7025 174.249L87.8236 173.024L86.599 170.903L84.4779 172.128L85.7025 174.249ZM93.8673 163.851C94.69 165.37 94.432 166.525 93.0934 167.316C91.7325 168.083 90.6068 167.728 89.7165 166.248L86.0954 159.976C85.267 158.479 85.5215 157.326 86.8591 156.518C88.2211 155.767 89.3501 156.121 90.2462 157.58L93.8673 163.851ZM87.6657 167.594C88.4644 168.946 89.5062 169.743 90.7913 169.985C92.0183 170.25 93.1939 170.068 94.3181 169.437C95.4604 168.759 96.2233 167.823 96.6065 166.627C96.9994 165.417 96.8168 164.124 96.0587 162.749L92.2911 156.223C91.475 154.872 90.4447 154.064 89.2003 153.799C87.9733 153.533 86.7847 153.732 85.6345 154.396C84.5181 155.041 83.7683 155.961 83.385 157.157C82.9516 158.39 83.1226 159.694 83.8981 161.069L87.6657 167.594ZM99.9209 166.04L108.354 161.171L107.13 159.049L101.477 162.313L102.791 153.598C102.949 152.496 102.747 151.458 102.185 150.484C101.468 149.274 100.478 148.505 99.2163 148.179C97.9638 147.837 96.6976 148.027 95.4178 148.748C94.289 149.418 93.5621 150.37 93.2372 151.604C92.9307 152.854 93.1059 154.111 93.7627 155.373L95.8736 154.155C95.5574 153.435 95.4915 152.774 95.6758 152.171C95.8466 151.577 96.223 151.111 96.8048 150.775C97.4689 150.41 98.0994 150.33 98.6963 150.536C99.2796 150.749 99.7314 151.133 100.052 151.688C100.173 151.898 100.275 152.137 100.357 152.405C100.421 152.702 100.425 153.061 100.369 153.48L98.7666 164.04L99.9209 166.04ZM110.668 159.835L112.789 158.61L111.565 156.489L109.444 157.714L110.668 159.835ZM114.9 157.391L123.334 152.522L122.109 150.401L116.457 153.665L117.771 144.949C117.929 143.848 117.727 142.81 117.164 141.835C116.447 140.625 115.458 139.857 114.196 139.53C112.943 139.189 111.677 139.379 110.397 140.1C109.269 140.769 108.542 141.721 108.217 142.955C107.91 144.206 108.085 145.462 108.742 146.725L110.853 145.506C110.537 144.787 110.471 144.126 110.655 143.523C110.826 142.928 111.203 142.463 111.784 142.127C112.448 141.762 113.079 141.682 113.676 141.887C114.259 142.101 114.711 142.485 115.031 143.04C115.152 143.25 115.254 143.488 115.337 143.756C115.4 144.054 115.404 144.412 115.349 144.832L113.746 155.392L114.9 157.391ZM128.82 143.672C129.642 145.19 129.384 146.345 128.046 147.136C126.685 147.904 125.559 147.548 124.669 146.068L121.048 139.796C120.219 138.299 120.474 137.146 121.811 136.338C123.173 135.588 124.302 135.942 125.198 137.4L128.82 143.672ZM122.618 147.415C123.417 148.767 124.458 149.563 125.744 149.805C126.971 150.071 128.146 149.888 129.27 149.257C130.413 148.58 131.175 147.643 131.559 146.447C131.952 145.237 131.769 143.944 131.011 142.569L127.243 136.043C126.427 134.692 125.397 133.884 124.153 133.619C122.925 133.354 121.737 133.553 120.587 134.217C119.47 134.861 118.721 135.781 118.337 136.977C117.904 138.21 118.075 139.514 118.85 140.889L122.618 147.415ZM134.873 145.86L143.307 140.991L142.082 138.87L136.429 142.133L137.744 133.418C137.902 132.316 137.699 131.279 137.137 130.304C136.42 129.094 135.431 128.326 134.169 127.999C132.916 127.658 131.65 127.847 130.37 128.568C129.241 129.238 128.514 130.19 128.189 131.424C127.883 132.675 128.058 133.931 128.715 135.194L130.826 133.975C130.51 133.255 130.444 132.594 130.628 131.992C130.799 131.397 131.175 130.932 131.757 130.596C132.421 130.23 133.052 130.15 133.649 130.356C134.232 130.57 134.684 130.954 135.004 131.509C135.125 131.718 135.227 131.957 135.31 132.225C135.373 132.522 135.377 132.881 135.322 133.301L133.719 143.861L134.873 145.86ZM143.982 131.684L144.875 131.168C145.531 130.789 146.188 130.676 146.844 130.829C147.516 130.992 148.075 131.445 148.522 132.188C148.934 132.933 149.039 133.631 148.837 134.28C148.657 134.952 148.255 135.468 147.633 135.827C147.051 136.163 146.492 136.274 145.957 136.159C145.436 136.054 144.938 135.809 144.464 135.424L142.343 136.649C143.284 137.748 144.331 138.397 145.484 138.597C146.637 138.798 147.717 138.607 148.725 138.025C150.023 137.257 150.852 136.224 151.212 134.925C151.597 133.638 151.395 132.298 150.608 130.903C150.249 130.28 149.773 129.761 149.181 129.345C148.575 128.937 147.844 128.709 146.987 128.663C147.358 127.899 147.509 127.184 147.442 126.52C147.34 125.875 147.125 125.268 146.797 124.7C146.135 123.585 145.187 122.833 143.952 122.445C142.672 122.056 141.355 122.244 140.001 123.008C138.947 123.635 138.252 124.541 137.917 125.726C137.573 126.927 137.663 128.106 138.187 129.265L140.309 128.04C140.092 127.353 140.096 126.751 140.321 126.233C140.525 125.727 140.854 125.344 141.307 125.082C141.944 124.732 142.574 124.635 143.195 124.79C143.825 124.959 144.326 125.351 144.699 125.965C145.055 126.581 145.144 127.197 144.968 127.813C144.799 128.443 144.353 128.966 143.629 129.384L142.898 129.806L143.982 131.684Z" fill="black"/>
<path d="M326.823 145.422C325.919 146.894 324.79 147.248 323.436 146.484C322.091 145.689 321.836 144.536 322.672 143.025L326.294 136.753C327.176 135.287 328.302 134.931 329.671 135.685C331.001 136.49 331.259 137.645 330.444 139.15L326.823 145.422ZM320.481 141.922C319.709 143.29 319.54 144.591 319.974 145.824C320.357 147.02 321.103 147.947 322.212 148.605C323.37 149.255 324.562 149.448 325.789 149.182C327.034 148.917 328.062 148.112 328.874 146.768L332.642 140.242C333.404 138.86 333.588 137.564 333.195 136.354C332.812 135.158 332.045 134.228 330.895 133.564C329.779 132.92 328.607 132.731 327.38 132.996C326.095 133.238 325.051 134.038 324.249 135.397L320.481 141.922ZM336.81 151.187C335.906 152.659 334.777 153.013 333.423 152.249C332.077 151.455 331.823 150.302 332.659 148.791L336.28 142.519C337.162 141.053 338.288 140.697 339.657 141.451C340.988 142.256 341.246 143.41 340.431 144.915L336.81 151.187ZM330.467 147.688C329.696 149.056 329.527 150.356 329.96 151.59C330.343 152.786 331.089 153.712 332.198 154.37C333.356 155.021 334.548 155.213 335.775 154.947C337.02 154.683 338.048 153.878 338.86 152.534L342.628 146.008C343.39 144.626 343.575 143.33 343.182 142.119C342.798 140.924 342.032 139.994 340.881 139.33C339.765 138.685 338.593 138.496 337.366 138.762C336.081 139.003 335.038 139.804 334.235 141.162L330.467 147.688ZM341.427 153.244L343.548 154.469L344.773 152.348L342.652 151.123L341.427 153.244ZM338.703 157.964L340.824 159.188L342.048 157.067L339.927 155.842L338.703 157.964ZM351.789 159.836C350.885 161.308 349.756 161.662 348.402 160.898C347.057 160.103 346.802 158.95 347.638 157.439L351.259 151.167C352.142 149.701 353.268 149.345 354.636 150.1C355.967 150.904 356.225 152.059 355.41 153.564L351.789 159.836ZM345.447 156.336C344.675 157.704 344.506 159.005 344.94 160.238C345.323 161.434 346.069 162.361 347.177 163.019C348.335 163.669 349.528 163.862 350.755 163.596C351.999 163.331 353.028 162.527 353.84 161.182L357.608 154.657C358.37 153.274 358.554 151.978 358.161 150.768C357.778 149.572 357.011 148.643 355.861 147.978C354.745 147.334 353.573 147.145 352.346 147.41C351.061 147.652 350.017 148.452 349.215 149.811L345.447 156.336ZM361.776 165.601C360.872 167.073 359.743 167.427 358.388 166.663C357.043 165.869 356.788 164.716 357.625 163.205L361.246 156.933C362.128 155.467 363.254 155.111 364.623 155.865C365.954 156.67 366.211 157.824 365.397 159.33L361.776 165.601ZM355.433 162.102C354.662 163.47 354.493 164.771 354.926 166.004C355.309 167.2 356.055 168.126 357.164 168.785C358.322 169.435 359.514 169.627 360.741 169.362C361.986 169.097 363.014 168.292 363.826 166.948L367.594 160.422C368.356 159.04 368.54 157.744 368.148 156.534C367.764 155.338 366.998 154.408 365.847 153.744C364.731 153.1 363.559 152.91 362.332 153.176C361.047 153.417 360.003 154.218 359.201 155.576L355.433 162.102ZM366.393 167.658L368.514 168.883L369.739 166.762L367.618 165.537L366.393 167.658ZM363.668 172.378L365.789 173.602L367.014 171.481L364.893 170.256L363.668 172.378ZM376.755 174.25C375.851 175.722 374.722 176.076 373.368 175.312C372.023 174.517 371.768 173.364 372.604 171.853L376.225 165.581C377.108 164.115 378.234 163.759 379.602 164.514C380.933 165.318 381.191 166.473 380.376 167.978L376.755 174.25ZM370.413 170.751C369.641 172.118 369.472 173.419 369.906 174.653C370.289 175.848 371.035 176.775 372.143 177.433C373.301 178.083 374.494 178.276 375.721 178.01C376.965 177.745 377.994 176.941 378.806 175.596L382.573 169.071C383.335 167.688 383.52 166.392 383.127 165.182C382.744 163.986 381.977 163.057 380.827 162.393C379.711 161.748 378.539 161.559 377.312 161.825C376.027 162.066 374.983 162.866 374.18 164.225L370.413 170.751ZM386.741 180.015C385.838 181.487 384.708 181.841 383.354 181.077C382.009 180.283 381.754 179.13 382.591 177.619L386.212 171.347C387.094 169.881 388.22 169.525 389.589 170.279C390.919 171.084 391.177 172.238 390.363 173.744L386.741 180.015ZM380.399 176.516C379.628 177.884 379.458 179.185 379.892 180.418C380.275 181.614 381.021 182.541 382.13 183.199C383.288 183.849 384.48 184.041 385.707 183.776C386.952 183.511 387.98 182.706 388.792 181.362L392.56 174.836C393.322 173.454 393.506 172.158 393.113 170.948C392.73 169.752 391.963 168.822 390.813 168.158C389.697 167.514 388.525 167.324 387.298 167.59C386.013 167.832 384.969 168.632 384.167 169.991L380.399 176.516Z" fill="black"/>
<path d="M60.3229 407.562C60.8581 406.635 61.7054 405.902 62.8648 405.362C63.4018 405.104 63.9529 404.962 64.5179 404.937C65.0762 404.907 65.5955 405.031 66.0759 405.308C66.5688 405.611 66.8707 406.033 66.9816 406.575C67.0752 407.117 66.9794 407.634 66.6942 408.128C66.1689 409.007 65.3323 409.737 64.1843 410.319C63.6395 410.591 63.0942 410.754 62.5484 410.809C61.9666 410.879 61.4491 410.783 60.9958 410.521C60.4681 410.217 60.1526 409.786 60.0495 409.231C59.9036 408.686 59.9948 408.13 60.3229 407.562ZM68.3245 406.945L68.2839 406.921C68.389 405.521 67.9167 404.526 66.8669 403.938C65.3561 403.102 63.8109 403.013 62.2313 403.67C60.6674 404.301 59.4627 405.333 58.6171 406.766C58.1132 407.639 57.9735 408.537 58.1981 409.461C58.38 410.396 58.8967 411.118 59.7481 411.628C60.4382 412.026 61.0629 412.202 61.6223 412.155C62.1806 412.126 62.6845 412.011 63.1341 411.81L63.1747 411.833C62.8253 412.814 63.1243 413.577 64.0715 414.124C65.0603 414.677 66.3891 414.727 68.0579 414.274C69.743 413.839 71.1098 412.761 72.1582 411.039C73.2014 409.17 73.3611 407.268 72.6371 405.335C71.9064 403.397 70.5199 401.83 68.4776 400.633C66.2158 399.363 63.9736 398.989 61.7513 399.51C59.5057 400.008 57.7249 401.366 56.4088 403.583C55.1176 405.851 54.8077 408.099 55.479 410.327C56.098 412.551 57.5228 414.326 59.7535 415.65C62.8215 417.367 65.7886 417.501 68.6546 416.053L67.2846 415.262C66.3568 415.556 65.3783 415.618 64.349 415.448C63.3002 415.311 62.16 414.888 60.9287 414.177C58.9812 413.034 57.7812 411.566 57.329 409.771C56.8116 408.011 57.0383 406.274 58.0091 404.562C58.9388 402.951 60.2832 401.896 62.0423 401.396C63.7811 400.885 65.6495 401.188 67.6475 402.305C69.3176 403.287 70.4019 404.495 70.9004 405.929C71.4192 407.374 71.281 408.801 70.486 410.209C69.8495 411.249 68.966 412.06 67.8355 412.643C67.3003 412.93 66.7994 413.11 66.333 413.183C65.8268 413.279 65.4146 413.235 65.0966 413.051C64.7729 412.846 64.7292 412.555 64.9653 412.177C65.1489 411.859 65.4231 411.548 65.7878 411.245L70.5534 406.811L69.1833 406.02L68.3245 406.945ZM74.8236 424.188L76.9447 425.413L81.099 418.217C81.8276 416.924 81.9485 415.785 81.4616 414.8C80.9669 413.829 80.0525 412.967 78.7186 412.215C77.1646 411.282 75.6803 411.11 74.2658 411.701L75.1978 413.931C75.5562 413.732 75.9316 413.66 76.3238 413.715C76.6907 413.782 77.1381 413.968 77.6658 414.273C79.1361 415.086 79.5969 415.952 79.0482 416.871L78.4095 417.977L75.4765 416.284C74.3456 415.649 73.3173 415.461 72.3917 415.721C71.4739 415.966 70.7592 416.533 70.2474 417.419C69.7123 418.346 69.6077 419.3 69.9338 420.282C70.2182 421.259 70.9452 422.093 72.1146 422.786C72.8318 423.201 73.4441 423.437 73.9516 423.495C74.462 423.564 74.9188 423.476 75.3221 423.231L75.3627 423.254L74.8236 424.188ZM76.9623 420.484C76.5052 421.275 76.0465 421.687 75.5861 421.719C75.0918 421.731 74.4054 421.475 73.5269 420.95C72.8233 420.543 72.3993 420.114 72.255 419.661C72.0815 419.227 72.0983 418.83 72.3053 418.472C72.7645 417.645 73.6175 417.574 74.8645 418.258L77.4017 419.723L76.9623 420.484ZM86.6259 429.527L85.9872 430.633L88.1083 431.858L96.6513 417.061L94.5302 415.837L91.4247 421.215C91.2471 420.617 91.0136 420.076 90.7241 419.593C90.3929 419.104 89.9567 418.703 89.4154 418.391C88.1104 417.683 86.9043 417.6 85.7972 418.142C85.3148 418.306 84.8701 418.631 84.4628 419.117C84.0392 419.586 83.4622 420.452 82.7317 421.717C82.013 422.962 81.5548 423.889 81.3574 424.496C81.124 425.119 81.057 425.681 81.1565 426.18C81.2402 426.77 81.4485 427.323 81.7815 427.84C82.0902 428.352 82.5587 428.798 83.1869 429.179C84.3256 429.8 85.472 429.916 86.6259 429.527ZM88.8403 420.887C89.341 421.176 89.6801 421.503 89.8578 421.867C90.0354 422.231 90.0866 422.603 90.0113 422.984C89.963 423.38 89.8551 423.778 89.6876 424.177C89.4863 424.557 89.2685 424.95 89.0341 425.356C88.8192 425.728 88.5937 426.103 88.3575 426.481C88.0836 426.846 87.7872 427.149 87.4683 427.388C87.1764 427.644 86.8284 427.786 86.4242 427.814C86.0161 427.849 85.5617 427.722 85.061 427.433C84.5603 427.144 84.2328 426.828 84.0783 426.487C83.9006 426.123 83.832 425.749 83.8725 425.367C83.9275 424.974 84.05 424.567 84.2399 424.144C84.418 423.742 84.6223 423.341 84.8528 422.942C85.095 422.523 85.3516 422.125 85.6227 421.749C85.8781 421.4 86.1619 421.104 86.4741 420.86C86.793 420.621 87.1506 420.493 87.547 420.479C87.9085 420.462 88.3396 420.598 88.8403 420.887ZM97.4241 435.762L96.7855 436.868L98.9065 438.092L107.45 423.296L105.328 422.071L102.223 427.45C102.045 426.851 101.812 426.31 101.522 425.827C101.191 425.339 100.755 424.938 100.214 424.625C98.9086 423.917 97.7025 423.834 96.5954 424.377C96.1131 424.54 95.6683 424.865 95.2611 425.352C94.8375 425.82 94.2604 426.687 93.53 427.952C92.8112 429.197 92.3531 430.123 92.1556 430.731C91.9222 431.354 91.8553 431.915 91.9548 432.414C92.0384 433.004 92.2467 433.557 92.5797 434.074C92.8885 434.586 93.357 435.033 93.9851 435.413C95.1239 436.035 96.2702 436.151 97.4241 435.762ZM99.6386 427.121C100.139 427.41 100.478 427.737 100.656 428.101C100.834 428.465 100.885 428.838 100.81 429.218C100.761 429.614 100.653 430.012 100.486 430.412C100.285 430.792 100.067 431.185 99.8323 431.59C99.6175 431.963 99.392 432.338 99.1558 432.715C98.8819 433.08 98.5854 433.383 98.2665 433.623C97.9747 433.878 97.6267 434.02 97.2224 434.048C96.8143 434.083 96.3599 433.956 95.8593 433.667C95.3586 433.378 95.031 433.063 94.8765 432.721C94.6989 432.357 94.6303 431.983 94.6707 431.601C94.7258 431.209 94.8482 430.801 95.0381 430.379C95.2163 429.976 95.4206 429.576 95.6511 429.176C95.8932 428.757 96.1499 428.359 96.4209 427.984C96.6764 427.635 96.9602 427.339 97.2723 427.095C97.5912 426.855 97.9489 426.728 98.3453 426.713C98.7068 426.696 99.1379 426.832 99.6386 427.121ZM101.281 439.464L103.402 440.688L107.065 434.345C107.523 433.582 108.069 433.152 108.701 433.057C109.29 432.928 109.855 433.02 110.396 433.332C110.877 433.61 111.238 434.053 111.482 434.663L114.085 433.717C113.761 432.825 113.179 432.129 112.341 431.627C111.211 430.975 110.058 430.864 108.881 431.294L108.84 431.27L109.484 430.154L107.363 428.929L101.281 439.464ZM119.742 444.168L120.75 442.422C121.537 441.028 121.737 439.69 121.348 438.41C120.965 437.152 120.175 436.168 118.979 435.459C118.478 435.17 117.918 434.969 117.298 434.854C116.672 434.736 116.03 434.763 115.372 434.933C114.725 435.101 114.066 435.46 113.396 436.011C112.734 436.549 112.102 437.339 111.5 438.381C110.875 439.464 110.52 440.431 110.433 441.283C110.305 442.147 110.35 442.904 110.57 443.554C110.691 443.877 110.846 444.178 111.036 444.459C111.2 444.753 111.389 445.019 111.602 445.26C112.036 445.727 112.53 446.12 113.085 446.441C114.532 447.294 116.125 447.456 117.865 446.927L117.088 444.733C116.017 445.026 115.052 444.924 114.193 444.428C113.455 444.002 112.989 443.435 112.793 442.727C112.56 442.006 112.688 441.223 113.176 440.377L119.742 444.168ZM114.184 438.631C114.697 437.836 115.274 437.344 115.916 437.155C116.552 436.99 117.188 437.091 117.824 437.459C118.46 437.826 118.866 438.326 119.042 438.96C119.212 439.617 119.075 440.364 118.629 441.198L114.184 438.631ZM121.559 446.881L119.239 447.477C119.886 449.528 121.069 451.05 122.787 452.042C124.06 452.759 125.267 453.068 126.407 452.968C127.546 452.886 128.417 452.338 129.02 451.324C129.524 450.452 129.714 449.6 129.588 448.77C129.437 447.907 128.837 447.118 127.788 446.404L126.118 445.265C125.635 444.914 125.349 444.582 125.259 444.268C125.138 443.963 125.152 443.696 125.302 443.467C125.517 443.095 125.832 442.871 126.246 442.794C126.646 442.71 127.178 442.859 127.841 443.242C128.423 443.578 128.888 443.959 129.237 444.386C129.581 444.837 129.872 445.326 130.11 445.851L132.304 445.074C132.048 444.331 131.671 443.64 131.174 443.001C130.906 442.684 130.599 442.38 130.252 442.09C129.901 441.806 129.483 441.524 128.995 441.242C127.872 440.594 126.789 440.33 125.746 440.449C124.682 440.557 123.831 441.148 123.193 442.223C122.687 443.13 122.574 443.998 122.853 444.827C123.111 445.662 123.659 446.375 124.499 446.968L126.272 448.209C126.657 448.449 126.923 448.715 127.07 449.007C127.214 449.289 127.177 449.619 126.958 449.998C126.712 450.425 126.328 450.645 125.805 450.659C125.283 450.673 124.717 450.504 124.108 450.153C122.748 449.368 121.898 448.277 121.559 446.881ZM131.545 452.647L129.225 453.243C129.872 455.294 131.055 456.816 132.774 457.808C134.047 458.525 135.253 458.834 136.393 458.734C137.532 458.652 138.403 458.104 139.007 457.09C139.511 456.217 139.7 455.366 139.575 454.536C139.424 453.673 138.823 452.884 137.774 452.17L136.105 451.03C135.622 450.679 135.336 450.347 135.246 450.034C135.124 449.729 135.138 449.462 135.289 449.233C135.503 448.861 135.818 448.637 136.232 448.56C136.633 448.475 137.164 448.625 137.828 449.007C138.409 449.343 138.875 449.725 139.224 450.152C139.568 450.603 139.859 451.091 140.097 451.616L142.29 450.84C142.034 450.096 141.657 449.405 141.16 448.766C140.892 448.449 140.585 448.146 140.238 447.855C139.888 447.572 139.469 447.289 138.982 447.008C137.859 446.36 136.776 446.095 135.732 446.215C134.669 446.322 133.818 446.913 133.179 447.988C132.673 448.896 132.56 449.764 132.839 450.593C133.097 451.427 133.646 452.141 134.485 452.734L136.259 453.974C136.643 454.215 136.909 454.481 137.056 454.773C137.2 455.055 137.163 455.385 136.944 455.764C136.698 456.19 136.314 456.41 135.792 456.425C135.269 456.439 134.703 456.27 134.095 455.918C132.735 455.133 131.885 454.043 131.545 452.647ZM141.808 456.597L148.06 460.206L149.285 458.085L143.033 454.476L141.808 456.597ZM157.73 455.316L150.482 467.87L152.604 469.094L161.146 454.298L159.025 453.073L156.04 453.392L154.739 455.645L157.73 455.316Z" fill="black"/>
<path d="M295.174 463.269C294.639 462.342 294.428 461.242 294.541 459.968C294.585 459.374 294.738 458.825 294.998 458.323C295.252 457.825 295.619 457.437 296.099 457.16C296.608 456.884 297.125 456.834 297.65 457.009C298.165 457.199 298.565 457.54 298.85 458.034C299.349 458.928 299.563 460.018 299.493 461.303C299.456 461.911 299.325 462.465 299.099 462.965C298.869 463.504 298.527 463.904 298.074 464.166C297.546 464.471 297.016 464.529 296.483 464.34C295.939 464.194 295.503 463.837 295.174 463.269ZM298.641 456.031L298.6 456.054C297.44 455.263 296.342 455.175 295.308 455.79C293.829 456.68 292.979 457.974 292.759 459.67C292.523 461.34 292.814 462.9 293.633 464.348C294.137 465.221 294.845 465.791 295.757 466.059C296.657 466.368 297.541 466.282 298.408 465.8C299.098 465.401 299.563 464.948 299.802 464.44C300.056 463.942 300.208 463.448 300.259 462.958L300.3 462.935C300.974 463.728 301.784 463.85 302.732 463.304C303.705 462.724 304.413 461.598 304.855 459.926C305.321 458.25 305.071 456.527 304.104 454.758C303.006 452.92 301.439 451.831 299.403 451.491C297.359 451.155 295.309 451.572 293.251 452.742C291.02 454.066 289.575 455.821 288.915 458.006C288.224 460.2 288.51 462.421 289.772 464.669C291.09 466.921 292.882 468.314 295.147 468.846C297.383 469.423 299.632 469.076 301.894 467.806C304.915 466.008 306.515 463.505 306.694 460.299L305.324 461.09C305.115 462.04 304.679 462.919 304.017 463.725C303.374 464.565 302.437 465.341 301.206 466.052C299.243 467.167 297.371 467.472 295.591 466.966C293.808 466.534 292.417 465.47 291.419 463.773C290.49 462.162 290.248 460.47 290.695 458.697C291.121 456.935 292.317 455.469 294.284 454.297C295.97 453.342 297.558 453.007 299.049 453.292C300.56 453.565 301.726 454.398 302.548 455.791C303.131 456.862 303.392 458.033 303.332 459.304C303.312 459.91 303.217 460.434 303.048 460.875C302.878 461.361 302.633 461.696 302.315 461.879C301.976 462.057 301.702 461.95 301.493 461.556C301.309 461.238 301.177 460.845 301.096 460.378L299.639 454.034L298.269 454.825L298.641 456.031ZM316.824 459.024L318.945 457.799L314.79 450.604C314.035 449.326 313.109 448.652 312.012 448.581C310.924 448.524 309.721 448.885 308.402 449.664C306.817 450.544 305.926 451.743 305.731 453.264L308.127 453.571C308.134 453.161 308.26 452.8 308.503 452.488C308.745 452.204 309.13 451.91 309.658 451.605C311.097 450.738 312.077 450.772 312.599 451.707L313.238 452.813L310.305 454.506C309.189 455.168 308.513 455.965 308.275 456.896C308.029 457.814 308.162 458.716 308.673 459.603C309.208 460.529 309.983 461.097 310.996 461.306C311.984 461.548 313.07 461.335 314.255 460.669C314.972 460.255 315.483 459.843 315.788 459.433C316.103 459.025 316.255 458.586 316.244 458.114L316.285 458.09L316.824 459.024ZM314.685 455.32C315.142 456.111 315.269 456.715 315.067 457.129C314.83 457.563 314.265 458.03 313.371 458.528C312.667 458.934 312.083 459.086 311.618 458.985C311.156 458.918 310.821 458.705 310.614 458.347C310.128 457.536 310.493 456.761 311.708 456.023L314.245 454.559L314.685 455.32ZM327.349 451.473L327.987 452.579L330.108 451.354L321.565 436.557L319.444 437.782L322.55 443.161C321.942 443.015 321.357 442.947 320.794 442.956C320.205 442.999 319.64 443.176 319.099 443.489C317.833 444.265 317.158 445.268 317.075 446.498C316.975 446.997 317.034 447.545 317.252 448.141C317.445 448.742 317.907 449.675 318.638 450.94C319.357 452.185 319.93 453.045 320.357 453.52C320.78 454.033 321.233 454.372 321.715 454.536C322.268 454.758 322.851 454.854 323.465 454.824C324.063 454.813 324.684 454.63 325.328 454.277C326.435 453.601 327.109 452.666 327.349 451.473ZM320.973 445.235C321.474 444.946 321.926 444.815 322.33 444.843C322.735 444.872 323.083 445.014 323.375 445.269C323.693 445.509 323.984 445.801 324.246 446.146C324.475 446.51 324.706 446.895 324.94 447.301C325.155 447.674 325.367 448.056 325.576 448.45C325.755 448.87 325.869 449.277 325.918 449.674C325.993 450.054 325.942 450.426 325.764 450.791C325.59 451.162 325.253 451.492 324.752 451.781C324.252 452.07 323.815 452.196 323.442 452.159C323.037 452.13 322.68 452.003 322.369 451.777C322.056 451.533 321.765 451.223 321.494 450.847C321.234 450.492 320.99 450.115 320.759 449.715C320.517 449.296 320.301 448.875 320.111 448.452C319.937 448.057 319.822 447.663 319.767 447.271C319.719 446.875 319.787 446.501 319.973 446.151C320.139 445.829 320.472 445.524 320.973 445.235ZM338.147 445.238L338.785 446.344L340.907 445.12L332.364 430.323L330.242 431.548L333.348 436.926C332.741 436.781 332.156 436.713 331.593 436.722C331.004 436.764 330.439 436.942 329.897 437.254C328.631 438.03 327.956 439.033 327.873 440.263C327.773 440.763 327.832 441.311 328.05 441.907C328.244 442.507 328.706 443.44 329.436 444.706C330.155 445.951 330.728 446.81 331.156 447.285C331.578 447.799 332.031 448.138 332.513 448.301C333.066 448.524 333.649 448.62 334.263 448.59C334.861 448.578 335.482 448.396 336.126 448.042C337.233 447.367 337.907 446.432 338.147 445.238ZM331.771 439C332.272 438.711 332.724 438.581 333.129 438.609C333.533 438.637 333.881 438.779 334.173 439.035C334.492 439.275 334.782 439.567 335.044 439.912C335.273 440.276 335.504 440.661 335.739 441.067C335.953 441.439 336.165 441.822 336.375 442.215C336.554 442.635 336.667 443.043 336.716 443.439C336.791 443.82 336.74 444.192 336.562 444.556C336.389 444.927 336.051 445.257 335.551 445.546C335.05 445.835 334.613 445.961 334.24 445.924C333.836 445.896 333.478 445.769 333.167 445.542C332.855 445.299 332.563 444.989 332.292 444.613C332.033 444.258 331.788 443.88 331.557 443.481C331.315 443.062 331.099 442.641 330.909 442.218C330.735 441.822 330.62 441.428 330.565 441.036C330.517 440.64 330.586 440.267 330.771 439.916C330.937 439.595 331.271 439.289 331.771 439ZM343.281 443.749L345.402 442.524L341.74 436.181C341.309 435.402 341.21 434.715 341.443 434.12C341.626 433.545 341.988 433.102 342.529 432.789C343.009 432.512 343.574 432.42 344.224 432.514L344.706 429.787C343.772 429.622 342.879 429.778 342.025 430.252C340.895 430.905 340.222 431.848 340.006 433.083L339.965 433.106L339.32 431.99L337.199 433.214L343.281 443.749ZM356.586 430.113L355.578 428.368C354.764 426.989 353.705 426.147 352.403 425.844C351.121 425.546 349.874 425.738 348.662 426.42C348.162 426.709 347.707 427.094 347.298 427.573C346.883 428.057 346.584 428.626 346.403 429.281C346.225 429.925 346.207 430.675 346.349 431.531C346.484 432.373 346.852 433.316 347.453 434.358C348.078 435.44 348.738 436.232 349.433 436.733C350.117 437.276 350.796 437.615 351.469 437.75C351.808 437.806 352.147 437.823 352.485 437.799C352.821 437.803 353.147 437.773 353.461 437.709C354.083 437.567 354.671 437.335 355.226 437.015C356.688 436.189 357.625 434.89 358.037 433.119L355.749 432.694C355.467 433.768 354.896 434.553 354.037 435.049C353.299 435.475 352.575 435.596 351.864 435.411C351.123 435.252 350.508 434.75 350.02 433.904L356.586 430.113ZM349.012 432.159C348.58 431.317 348.442 430.571 348.599 429.921C348.775 429.287 349.181 428.787 349.817 428.42C350.453 428.052 351.089 427.951 351.725 428.116C352.38 428.297 352.957 428.789 353.457 429.592L349.012 432.159ZM359.844 429.897L359.2 432.203C361.3 432.669 363.209 432.406 364.928 431.413C366.185 430.669 367.056 429.779 367.54 428.742C368.038 427.714 367.999 426.686 367.423 425.656C366.919 424.784 366.276 424.194 365.495 423.887C364.672 423.587 363.689 423.712 362.546 424.264L360.724 425.14C360.178 425.382 359.748 425.464 359.431 425.385C359.107 425.338 358.882 425.193 358.759 424.948C358.544 424.576 358.507 424.191 358.648 423.794C358.775 423.405 359.17 423.019 359.833 422.636C360.415 422.3 360.978 422.088 361.522 421.999C362.085 421.927 362.653 421.919 363.227 421.976L363.652 419.688C362.88 419.538 362.093 419.519 361.291 419.63C360.882 419.703 360.466 419.818 360.041 419.973C359.62 420.134 359.166 420.356 358.679 420.637C357.556 421.285 356.785 422.091 356.367 423.054C355.929 424.029 356.015 425.062 356.626 426.152C357.16 427.044 357.855 427.577 358.712 427.749C359.564 427.943 360.456 427.825 361.389 427.394L363.351 426.478C363.751 426.265 364.114 426.168 364.441 426.187C364.757 426.203 365.024 426.401 365.243 426.78C365.489 427.206 365.488 427.649 365.239 428.108C364.99 428.568 364.561 428.973 363.952 429.325C362.592 430.11 361.223 430.301 359.844 429.897ZM369.83 424.131L369.186 426.438C371.286 426.903 373.196 426.64 374.914 425.648C376.172 424.904 377.042 424.013 377.526 422.976C378.024 421.949 377.985 420.92 377.409 419.891C376.905 419.018 376.262 418.428 375.481 418.122C374.658 417.821 373.675 417.947 372.532 418.498L370.71 419.374C370.165 419.617 369.734 419.699 369.418 419.62C369.093 419.573 368.869 419.427 368.746 419.182C368.531 418.81 368.494 418.426 368.634 418.029C368.762 417.639 369.157 417.254 369.82 416.871C370.402 416.535 370.965 416.322 371.509 416.234C372.071 416.162 372.64 416.154 373.214 416.21L373.638 413.922C372.866 413.772 372.079 413.753 371.277 413.864C370.869 413.938 370.452 414.052 370.027 414.207C369.607 414.369 369.153 414.59 368.665 414.871C367.542 415.52 366.772 416.326 366.353 417.289C365.915 418.264 366.001 419.296 366.613 420.387C367.146 421.279 367.841 421.811 368.699 421.983C369.55 422.177 370.443 422.059 371.376 421.629L373.337 420.713C373.737 420.5 374.101 420.403 374.427 420.422C374.743 420.438 375.011 420.635 375.229 421.014C375.475 421.44 375.474 421.883 375.225 422.342C374.976 422.802 374.547 423.207 373.938 423.559C372.578 424.344 371.209 424.535 369.83 424.131ZM378.383 417.218L384.634 413.608L383.41 411.487L377.158 415.097L378.383 417.218ZM389.123 417.282L397.557 412.413L396.332 410.292L390.679 413.555L391.994 404.84C392.152 403.738 391.949 402.7 391.387 401.726C390.67 400.516 389.681 399.748 388.419 399.421C387.166 399.08 385.9 399.269 384.62 399.99C383.491 400.66 382.764 401.612 382.439 402.846C382.133 404.096 382.308 405.353 382.965 406.616L385.076 405.397C384.76 404.677 384.694 404.016 384.878 403.414C385.049 402.819 385.425 402.353 386.007 402.018C386.671 401.652 387.302 401.572 387.899 401.778C388.482 401.991 388.934 402.376 389.254 402.93C389.375 403.14 389.477 403.379 389.56 403.647C389.623 403.944 389.627 404.303 389.572 404.723L387.969 415.283L389.123 417.282Z" fill="black"/>
<path d="M6.29235 147.74L4.59508 144.801L6.53941 143.678L8.23668 146.618L9.65073 145.801L10.5047 147.281L9.09068 148.097L12.3402 153.725C12.6107 154.223 12.978 154.329 13.4422 154.044L14.1678 153.625L15.2259 155.458L14.2119 156.043C13.5297 156.437 12.8498 156.549 12.1721 156.378C11.4928 156.232 10.933 155.778 10.4925 155.015L7.14635 149.22L6.17884 149.778L5.32483 148.299L6.29235 147.74ZM17.0586 154.4L11.4834 144.743L13.4278 143.621L14.0186 144.644L14.0558 144.623C14.2542 143.491 14.8712 142.626 15.907 142.028C16.6894 141.593 17.5086 141.451 18.3647 141.602L17.9228 144.102C17.3273 144.016 16.8093 144.1 16.369 144.354C15.8728 144.64 15.5411 145.047 15.3738 145.573C15.1595 146.119 15.2502 146.749 15.646 147.463L19.0029 153.277L17.0586 154.4ZM29.199 147.391L28.7049 146.535L28.6677 146.556C28.6776 146.989 28.5382 147.392 28.2494 147.765C27.9703 148.141 27.5021 148.519 26.8447 148.899C25.7584 149.509 24.7626 149.704 23.8574 149.482C22.9283 149.291 22.2184 148.771 21.7279 147.921C21.2588 147.108 21.137 146.282 21.3624 145.44C21.5807 144.587 22.201 143.856 23.2234 143.249L25.9119 141.697L25.3265 140.683C24.8483 139.826 23.9497 139.795 22.6306 140.59C22.1468 140.869 21.7941 141.139 21.5723 141.399C21.3488 141.686 21.2339 142.016 21.2276 142.392L19.0305 142.11C19.2099 140.717 20.0263 139.617 21.4795 138.811C22.6879 138.097 23.791 137.766 24.7888 137.818C25.7937 137.883 26.6425 138.501 27.3353 139.672L31.1434 146.268L29.199 147.391ZM27.2386 143.995L26.8358 143.297L24.51 144.64C23.3956 145.317 23.0612 146.026 23.5069 146.77C23.6966 147.098 24.0035 147.293 24.4275 147.355C24.8534 147.448 25.3889 147.308 26.0339 146.936C26.8535 146.479 27.3717 146.052 27.5884 145.654C27.7741 145.274 27.6575 144.721 27.2386 143.995ZM33.6552 144.818L28.08 135.161L30.0243 134.039L30.6151 135.062L30.6524 135.041C30.8507 133.909 31.4678 133.044 32.5035 132.446C33.3036 131.984 34.1983 131.844 35.1878 132.025C36.1746 132.216 37.0022 132.855 37.6706 133.941L41.3767 140.36L39.4324 141.482L36.113 135.733C35.7227 135.057 35.2457 134.646 34.6818 134.5C34.1206 134.345 33.561 134.428 33.0028 134.75C32.4446 135.073 32.0895 135.517 31.9375 136.085C31.7756 136.65 31.8899 137.27 32.2802 137.946L35.5995 143.695L33.6552 144.818ZM42.4742 135.794C43.7381 136.164 44.9934 135.989 46.24 135.27C46.7982 134.947 47.1914 134.576 47.4195 134.155C47.6477 133.733 47.649 133.327 47.4234 132.937C47.2229 132.589 46.9778 132.408 46.6882 132.394C46.3888 132.376 46.0556 132.465 45.6887 132.661L43.8911 133.5C43.0356 133.895 42.2176 134.003 41.4369 133.825C40.6509 133.667 40.0136 133.179 39.525 132.362C38.9645 131.362 38.8852 130.416 39.2872 129.522C39.6705 128.639 40.377 127.9 41.4065 127.306C41.853 127.048 42.2692 126.845 42.6549 126.697C43.0442 126.555 43.4262 126.45 43.8007 126.383C44.5358 126.281 45.2571 126.298 45.9648 126.436L45.5758 128.533C45.0497 128.481 44.5287 128.489 44.0129 128.555C43.5141 128.636 42.998 128.831 42.4646 129.139C41.8568 129.49 41.4946 129.843 41.3781 130.2C41.2491 130.564 41.2831 130.917 41.4801 131.258C41.593 131.482 41.7983 131.616 42.0961 131.659C42.386 131.731 42.7809 131.656 43.2809 131.434L44.9509 130.631C45.9986 130.125 46.8997 130.01 47.6541 130.285C48.3705 130.567 48.9596 131.107 49.4215 131.907C49.9498 132.851 49.9855 133.794 49.5287 134.735C49.0852 135.686 48.2872 136.502 47.1346 137.184C45.5593 138.094 43.8091 138.335 41.8841 137.909L42.4742 135.794ZM58.1128 130.697L57.6186 129.841L57.5814 129.863C57.5914 130.295 57.4519 130.698 57.1631 131.072C56.8841 131.448 56.4159 131.826 55.7585 132.205C54.6722 132.816 53.6764 133.011 52.7711 132.789C51.842 132.598 51.1322 132.077 50.6416 131.228C50.1725 130.415 50.0507 129.588 50.2762 128.747C50.4944 127.893 51.1147 127.163 52.1371 126.556L54.8257 125.004L54.2402 123.99C53.7621 123.133 52.8634 123.102 51.5443 123.897C51.0606 124.176 50.7078 124.446 50.486 124.706C50.2625 124.992 50.1477 125.323 50.1413 125.699L47.9443 125.417C48.1237 124.023 48.94 122.923 50.3932 122.118C51.6016 121.403 52.7047 121.072 53.7025 121.125C54.7074 121.19 55.5563 121.808 56.249 122.979L60.0571 129.575L58.1128 130.697ZM56.1523 127.302L55.7495 126.604L53.4238 127.947C52.3093 128.623 51.9749 129.333 52.4206 130.076C52.6104 130.405 52.9173 130.6 53.3412 130.661C53.7671 130.754 54.3026 130.615 54.9476 130.242C55.7672 129.786 56.2854 129.358 56.5022 128.96C56.6879 128.58 56.5713 128.027 56.1523 127.302ZM66.6056 122.011L68.7741 122.458C68.6316 123.185 68.3629 123.866 67.9677 124.499C67.5798 125.145 67.0141 125.69 66.2709 126.136C65.1297 126.795 63.9043 126.986 62.5946 126.708C61.2539 126.448 60.0699 125.457 59.0425 123.735C58.0539 121.966 57.7788 120.429 58.2172 119.126C58.6316 117.853 59.4131 116.893 60.5614 116.247C61.319 115.826 62.069 115.6 62.8115 115.568C63.5575 115.543 64.2882 115.662 65.0036 115.927L64.3068 118.029C63.4408 117.661 62.5914 117.7 61.7584 118.148C60.0943 119.076 59.8371 120.564 60.9868 122.613C62.1789 124.62 63.5909 125.132 65.2227 124.149C66.0342 123.664 66.4952 122.951 66.6056 122.011ZM65.5711 113.516L63.8738 110.576L65.8182 109.454L67.5154 112.393L68.9295 111.577L69.7835 113.056L68.3694 113.872L71.619 119.501C71.8894 119.998 72.2568 120.104 72.7209 119.82L73.4466 119.401L74.5047 121.233L73.4907 121.819C72.8084 122.213 72.1285 122.324 71.4509 122.153C70.7716 122.008 70.2117 121.554 69.7713 120.791L66.4251 114.995L65.4576 115.554L64.6036 114.074L65.5711 113.516ZM76.3932 120.143L70.818 110.487L72.7623 109.364L78.3375 119.021L76.3932 120.143ZM69.6847 108.524L68.5621 106.579L70.5065 105.457L71.629 107.401L69.6847 108.524ZM77.647 112.969C77.0598 111.952 76.6924 111.122 76.5447 110.48C76.4104 109.846 76.4175 109.242 76.566 108.669C76.6464 108.192 76.8521 107.689 77.1828 107.159C77.5145 106.645 78.0458 106.169 78.7767 105.73C79.5467 105.302 80.2372 105.073 80.8482 105.043C81.4601 105.029 81.9864 105.109 82.4268 105.285C83.0226 105.429 83.5551 105.721 84.0243 106.161C84.4945 106.618 85.0232 107.354 85.6104 108.371C86.1977 109.389 86.5677 110.209 86.7206 110.831C86.8673 111.458 86.8612 112.078 86.7022 112.69C86.6606 112.905 86.5892 113.132 86.4881 113.372C86.4164 113.62 86.2856 113.874 86.0957 114.132C85.7784 114.671 85.2418 115.167 84.4861 115.619C83.7409 116.033 83.0557 116.243 82.4304 116.248C81.8132 116.282 81.2835 116.224 80.8413 116.074C80.256 115.891 79.7226 115.583 79.241 115.15C78.7656 114.713 78.2343 113.986 77.647 112.969ZM83.6768 109.513C83.2794 108.824 82.9583 108.34 82.7137 108.059C82.4762 107.791 82.1951 107.598 81.8703 107.479C81.6024 107.345 81.293 107.296 80.9423 107.333C80.6004 107.357 80.2527 107.471 79.8992 107.675C79.5705 107.864 79.3042 108.105 79.1003 108.396C78.9053 108.674 78.7867 108.97 78.7445 109.284C78.7096 109.61 78.7426 109.947 78.8436 110.294C78.9518 110.653 79.2011 111.171 79.5914 111.847C79.9781 112.516 80.2982 112.985 80.5516 113.252C80.8087 113.525 81.0907 113.735 81.3979 113.88C81.6727 113.969 81.9847 114.008 82.3337 113.997C82.6916 113.972 83.0349 113.865 83.3636 113.675C83.7171 113.471 83.9878 113.224 84.1757 112.933C84.3725 112.63 84.4884 112.343 84.5237 112.075C84.5763 111.722 84.5423 111.37 84.4217 111.018C84.3047 110.672 84.0564 110.17 83.6768 109.513ZM90.4407 112.033L84.8655 102.376L86.8099 101.254L87.4007 102.277L87.4379 102.255C87.6363 101.124 88.2533 100.259 89.2891 99.661C90.0891 99.1991 90.9839 99.0588 91.9734 99.24C92.9602 99.431 93.7878 100.07 94.4562 101.156L98.1622 107.575L96.2179 108.697L92.8986 102.948C92.5083 102.272 92.0312 101.861 91.4674 101.715C90.9062 101.56 90.3465 101.643 89.7883 101.965C89.2301 102.287 88.875 102.732 88.723 103.3C88.5612 103.864 88.6754 104.485 89.0657 105.161L92.3851 110.91L90.4407 112.033ZM110.443 99.1325C110.223 100.227 109.605 101.084 108.59 101.703C108 102.027 107.431 102.194 106.883 102.205C106.32 102.232 105.785 102.144 105.279 101.94C104.837 101.79 104.422 101.48 104.034 101.009C103.642 100.574 103.117 99.7855 102.458 98.6444C101.789 97.4846 101.365 96.6293 101.188 96.0785C100.988 95.5322 100.934 95.0301 101.025 94.5722C101.102 93.4447 101.72 92.5252 102.881 91.8139C103.377 91.5274 103.895 91.3648 104.435 91.3259C104.951 91.3174 105.487 91.3799 106.044 91.5133L103.197 86.5827L105.142 85.4602L112.973 99.0239L111.028 100.146L110.443 99.1325ZM104.599 93.4144C104.14 93.6794 103.834 93.9592 103.682 94.2539C103.512 94.5754 103.449 94.9176 103.493 95.2807C103.544 95.6403 103.649 96.0013 103.808 96.3639C103.982 96.7513 104.18 97.1373 104.402 97.5218C104.614 97.8877 104.838 98.2336 105.076 98.5594C105.324 98.9039 105.592 99.1878 105.878 99.4113C106.163 99.6188 106.491 99.7354 106.861 99.7613C107.204 99.7953 107.604 99.6798 108.063 99.4149C108.522 99.1499 108.831 98.8474 108.99 98.5074C109.153 98.1735 109.2 97.8322 109.131 97.4834C109.087 97.1203 108.983 96.7464 108.818 96.3616C108.627 96.0009 108.432 95.65 108.235 95.3089C108.02 94.9368 107.808 94.5838 107.599 94.2498C107.359 93.9338 107.092 93.6658 106.8 93.4459C106.532 93.2117 106.213 93.0817 105.843 93.0558C105.472 93.0299 105.058 93.1495 104.599 93.4144ZM120.22 94.8399L119.726 93.984L119.688 94.0055C119.698 94.438 119.559 94.841 119.27 95.2145C118.991 95.5906 118.523 95.9684 117.865 96.348C116.779 96.9586 115.783 97.1531 114.878 96.9316C113.949 96.7403 113.239 96.2198 112.748 95.3701C112.279 94.5576 112.158 93.7308 112.383 92.8894C112.601 92.0357 113.222 91.3055 114.244 90.6987L116.933 89.1464L116.347 88.1324C115.869 87.2755 114.97 87.2445 113.651 88.0391C113.167 88.3184 112.815 88.5883 112.593 88.8486C112.369 89.1348 112.255 89.4657 112.248 89.8415L110.051 89.5595C110.231 88.1658 111.047 87.0661 112.5 86.2601C113.709 85.5459 114.812 85.215 115.809 85.2674C116.814 85.3322 117.663 85.9502 118.356 87.1215L122.164 93.7173L120.22 94.8399ZM118.259 91.4443L117.856 90.7465L115.531 92.0893C114.416 92.7658 114.082 93.4757 114.527 94.219C114.717 94.5477 115.024 94.7426 115.448 94.8038C115.874 94.897 116.409 94.7573 117.054 94.3849C117.874 93.9283 118.392 93.5009 118.609 93.1029C118.795 92.7228 118.678 92.1699 118.259 91.4443ZM119.212 82.5461L117.515 79.6064L119.459 78.4838L121.157 81.4236L122.571 80.6072L123.425 82.0863L122.011 82.9027L125.26 88.5311C125.531 89.0282 125.898 89.1345 126.362 88.8499L127.088 88.431L128.146 90.2637L127.132 90.8491C126.45 91.243 125.77 91.3544 125.092 91.1833C124.413 91.038 123.853 90.5839 123.412 89.8211L120.066 84.0253L119.099 84.5839L118.245 83.1047L119.212 82.5461ZM135.104 80.7885L129.085 84.2636C129.533 85.0389 130.096 85.4992 130.775 85.6445C131.427 85.8139 132.091 85.7035 132.767 85.3132C133.555 84.8584 134.078 84.1388 134.337 83.1543L136.434 83.5434C136.057 85.167 135.198 86.3576 133.857 87.1151C133.349 87.4087 132.81 87.6207 132.24 87.7512C131.951 87.8102 131.653 87.8377 131.345 87.8338C131.035 87.8556 130.724 87.8405 130.413 87.7886C129.796 87.6652 129.174 87.3544 128.548 86.8562C127.911 86.3972 127.305 85.6715 126.733 84.6792C126.181 83.724 125.844 82.8604 125.72 82.0881C125.59 81.3035 125.606 80.6158 125.77 80.0253C125.936 79.425 126.209 78.9032 126.59 78.4601C126.965 78.0205 127.382 77.6682 127.841 77.4032C128.952 76.7782 130.095 76.6022 131.269 76.875C132.464 77.153 133.434 77.9242 134.18 79.1884L135.104 80.7885ZM128.161 82.6635L132.236 80.311C131.778 79.5748 131.249 79.1237 130.648 78.9576C130.065 78.8066 129.482 78.8993 128.899 79.2359C128.316 79.5725 127.944 80.0312 127.783 80.6119C127.639 81.2077 127.765 81.8916 128.161 82.6635Z" fill="black"/>
<path d="M8.74694 436.129C9.05835 437.409 9.83736 438.408 11.084 439.128C11.6421 439.45 12.1607 439.605 12.6395 439.592C13.1183 439.579 13.4705 439.377 13.6961 438.987C13.8967 438.639 13.9309 438.336 13.7988 438.078C13.6641 437.81 13.4204 437.566 13.0679 437.346L11.4421 436.209C10.6726 435.666 10.1696 435.011 9.93318 434.246C9.67718 433.487 9.7811 432.691 10.2449 431.859C10.8303 430.874 11.6104 430.332 12.5852 430.233C13.5415 430.123 14.5344 430.366 15.5639 430.96C16.0105 431.218 16.3944 431.477 16.7157 431.737C17.0334 432.003 17.3151 432.281 17.5607 432.572C18.0165 433.158 18.3619 433.791 18.5969 434.473L16.5858 435.185C16.3676 434.703 16.1009 434.256 15.7856 433.842C15.4658 433.451 15.0392 433.101 14.5058 432.793C13.898 432.442 13.4105 432.305 13.0433 432.383C12.6637 432.453 12.3755 432.659 12.1785 433C12.0408 433.21 12.0277 433.454 12.1393 433.734C12.2215 434.021 12.484 434.326 12.9267 434.647L14.457 435.692C15.4187 436.347 15.9689 437.07 16.1075 437.861C16.2222 438.622 16.0487 439.402 15.5868 440.202C15.0337 441.131 14.2351 441.634 13.191 441.709C12.146 441.8 11.04 441.517 9.87308 440.86C8.29777 439.951 7.21362 438.556 6.62063 436.675L8.74694 436.129ZM25.7623 444.427L19.7432 440.952C19.2956 441.727 19.1787 442.445 19.3925 443.106C19.5717 443.756 19.9993 444.275 20.6754 444.666C21.463 445.12 22.3478 445.214 23.3296 444.945L24.0415 446.956C22.4467 447.441 20.9861 447.293 19.6598 446.511C19.1513 446.217 18.6981 445.856 18.3003 445.428C18.1049 445.208 17.9319 444.963 17.7812 444.694C17.6074 444.437 17.4652 444.16 17.3546 443.865C17.1529 443.269 17.1111 442.575 17.2292 441.783C17.3082 441.002 17.6342 440.115 18.2071 439.123C18.7585 438.167 19.3378 437.443 19.9449 436.95C20.5592 436.445 21.1629 436.116 21.7561 435.962C22.359 435.806 22.9476 435.781 23.5218 435.89C24.0899 435.994 24.6034 436.179 25.0623 436.444C26.1591 437.094 26.883 437.996 27.2341 439.149C27.5904 440.323 27.4077 441.549 26.6861 442.827L25.7623 444.427ZM20.667 439.352L24.7418 441.705C25.1502 440.94 25.2763 440.256 25.12 439.653C24.9591 439.072 24.5872 438.614 24.0042 438.277C23.4212 437.94 22.838 437.848 22.2547 437.999C21.6667 438.172 21.1375 438.623 20.667 439.352ZM25.4363 449.697L31.0115 440.04L32.9559 441.163L32.365 442.186L32.4023 442.208C33.4815 441.814 34.539 441.916 35.5747 442.514C36.3748 442.975 36.9437 443.68 37.2815 444.628C37.6094 445.578 37.4703 446.614 36.8639 447.736L33.1578 454.155L31.2135 453.032L34.5328 447.283C34.9231 446.607 35.0405 445.988 34.8849 445.427C34.739 444.863 34.387 444.42 33.8289 444.098C33.2707 443.776 32.7079 443.691 32.1405 443.843C31.5705 443.985 31.0903 444.394 30.7 445.07L27.3807 450.819L25.4363 449.697ZM42.0323 457.926C40.9745 458.283 39.9237 458.177 38.8799 457.607C38.304 457.258 37.8746 456.849 37.5915 456.38C37.2863 455.906 37.0954 455.399 37.0187 454.858C36.9275 454.4 36.9888 453.886 37.2028 453.315C37.3838 452.758 37.8038 451.909 38.4626 450.767C39.1322 449.608 39.6612 448.813 40.0495 448.384C40.4228 447.938 40.8305 447.64 41.2726 447.49C42.2875 446.993 43.393 447.069 44.5893 447.718C45.0855 448.005 45.4854 448.372 45.7889 448.82C46.0543 449.263 46.2684 449.758 46.4312 450.307L49.2779 445.377L51.2222 446.499L43.3911 460.063L41.4468 458.94L42.0323 457.926ZM44.0622 450.006C43.6032 449.741 43.208 449.616 42.8766 449.632C42.5133 449.645 42.1854 449.762 41.8931 449.982C41.607 450.205 41.3468 450.477 41.1127 450.797C40.8642 451.141 40.629 451.505 40.4069 451.89C40.1957 452.256 40.0084 452.623 39.8451 452.992C39.671 453.379 39.5588 453.753 39.5083 454.112C39.4712 454.463 39.5341 454.805 39.697 455.139C39.8386 455.453 40.1389 455.742 40.5978 456.007C41.0568 456.272 41.4733 456.388 41.8474 456.356C42.2179 456.33 42.5369 456.2 42.8045 455.966C43.0968 455.746 43.3685 455.469 43.6196 455.134C43.8361 454.788 44.0428 454.444 44.2398 454.103C44.4546 453.731 44.6543 453.371 44.8389 453.022C44.9924 452.656 45.0913 452.291 45.1355 451.928C45.2046 451.58 45.1577 451.238 44.9949 450.904C44.832 450.571 44.5211 450.271 44.0622 450.006ZM55.4203 461.55L49.4012 458.075C48.9536 458.85 48.8367 459.568 49.0505 460.229C49.2297 460.879 49.6573 461.398 50.3334 461.789C51.121 462.243 52.0058 462.337 52.9876 462.068L53.6995 464.08C52.1047 464.565 50.6441 464.416 49.3178 463.634C48.8093 463.34 48.3561 462.979 47.9583 462.551C47.7629 462.331 47.5899 462.086 47.4392 461.817C47.2654 461.56 47.1231 461.283 47.0125 460.988C46.8109 460.392 46.7691 459.698 46.8872 458.906C46.9662 458.125 47.2922 457.238 47.8651 456.246C48.4165 455.29 48.9958 454.566 49.6029 454.073C50.2172 453.568 50.8209 453.239 51.4141 453.085C52.017 452.929 52.6056 452.905 53.1798 453.013C53.7479 453.117 54.2614 453.302 54.7203 453.567C55.8171 454.217 56.541 455.119 56.8921 456.272C57.2484 457.446 57.0657 458.672 56.3441 459.95L55.4203 461.55ZM50.325 456.475L54.3998 458.828C54.8082 458.063 54.9343 457.379 54.778 456.776C54.6171 456.195 54.2452 455.737 53.6622 455.4C53.0792 455.063 52.496 454.971 51.9126 455.122C51.3247 455.295 50.7955 455.746 50.325 456.475ZM55.0943 466.82L60.6695 457.163L62.6139 458.286L62.023 459.309L62.0602 459.331C63.1395 458.937 64.197 459.039 65.2327 459.637C66.0008 460.097 66.5336 460.735 66.8311 461.552L64.4448 462.419C64.2217 461.86 63.89 461.454 63.4496 461.2C62.9535 460.913 62.4355 460.829 61.8958 460.948C61.3163 461.035 60.8162 461.428 60.3956 462.128L57.0387 467.942L55.0943 466.82ZM72.1653 476.676L72.6595 475.82L72.6223 475.798C72.2526 476.023 71.8339 476.104 71.3661 476.041C70.9008 475.987 70.3395 475.77 69.6821 475.391C68.6101 474.755 67.9438 473.99 67.683 473.096C67.3842 472.195 67.48 471.32 67.9705 470.471C68.4396 469.658 69.0948 469.139 69.9361 468.914C70.7846 468.676 71.7272 468.848 72.7639 469.43L75.4525 470.982L76.0379 469.968C76.5409 469.126 76.1185 468.332 74.7707 467.587C74.287 467.308 73.8769 467.137 73.5405 467.075C73.181 467.025 72.8369 467.091 72.5083 467.273L71.654 465.229C72.9507 464.688 74.3113 464.845 75.7358 465.701C76.9586 466.39 77.7967 467.18 78.2502 468.07C78.6965 468.973 78.5857 470.017 77.9178 471.203L74.1097 477.798L72.1653 476.676ZM74.1258 473.28L74.5286 472.582L72.2029 471.24C71.0598 470.613 70.2778 470.678 69.857 471.436C69.6672 471.764 69.6518 472.128 69.8108 472.525C69.9431 472.941 70.3317 473.335 70.9767 473.707C71.782 474.189 72.4112 474.424 72.8643 474.412C73.2863 474.383 73.7069 474.006 74.1258 473.28ZM82.9841 481.57C81.9264 481.927 80.8756 481.82 79.8317 481.251C79.2559 480.902 78.8264 480.493 78.5434 480.023C78.2381 479.549 78.0472 479.042 77.9706 478.502C77.8793 478.044 77.9407 477.529 78.1546 476.958C78.3357 476.401 78.7556 475.552 79.4145 474.411C80.0841 473.251 80.613 472.457 81.0013 472.028C81.3746 471.582 81.7823 471.284 82.2245 471.134C83.2393 470.636 84.3449 470.712 85.5412 471.362C86.0373 471.648 86.4372 472.015 86.7408 472.464C87.0062 472.906 87.2203 473.402 87.383 473.951L90.2297 469.02L92.174 470.143L84.343 483.707L82.3987 482.584L82.9841 481.57ZM85.014 473.65C84.5551 473.385 84.1599 473.26 83.8285 473.275C83.4651 473.289 83.1373 473.406 82.8449 473.625C82.5588 473.849 82.2987 474.12 82.0645 474.44C81.816 474.785 81.5808 475.149 81.3588 475.534C81.1475 475.899 80.9602 476.267 80.7969 476.636C80.6229 477.023 80.5106 477.396 80.4602 477.756C80.4231 478.107 80.486 478.449 80.6488 478.783C80.7904 479.096 81.0907 479.385 81.5496 479.65C82.0086 479.915 82.4251 480.032 82.7992 480C83.1698 479.974 83.4888 479.844 83.7563 479.609C84.0486 479.39 84.3204 479.112 84.5715 478.778C84.788 478.431 84.9947 478.088 85.1916 477.746C85.4065 477.374 85.6062 477.014 85.7907 476.666C85.9442 476.3 86.0431 475.935 86.0874 475.572C86.1564 475.223 86.1095 474.882 85.9467 474.548C85.7838 474.214 85.4729 473.915 85.014 473.65ZM92.8825 487.285C91.8248 487.642 90.7739 487.535 89.7301 486.966C89.1543 486.617 88.7248 486.207 88.4418 485.738C88.1365 485.264 87.9456 484.757 87.869 484.217C87.7777 483.759 87.8391 483.244 88.053 482.673C88.2341 482.116 88.654 481.267 89.3129 480.126C89.9825 478.966 90.5114 478.172 90.8997 477.743C91.273 477.297 91.6807 476.999 92.1229 476.849C93.1377 476.351 94.2433 476.427 95.4396 477.077C95.9357 477.363 96.3356 477.73 96.6392 478.178C96.9046 478.621 97.1187 479.117 97.2814 479.666L100.128 474.735L102.072 475.858L94.2414 489.421L92.2971 488.299L92.8825 487.285ZM94.9124 479.365C94.4535 479.1 94.0583 478.975 93.7269 478.99C93.3635 479.004 93.0357 479.12 92.7433 479.34C92.4572 479.564 92.1971 479.835 91.9629 480.155C91.7144 480.499 91.4792 480.864 91.2572 481.248C91.0459 481.614 90.8586 481.982 90.6953 482.35C90.5213 482.738 90.409 483.111 90.3586 483.471C90.3215 483.822 90.3844 484.164 90.5472 484.498C90.6888 484.811 90.9891 485.1 91.448 485.365C91.907 485.63 92.3235 485.746 92.6976 485.714C93.0682 485.689 93.3872 485.558 93.6547 485.324C93.947 485.104 94.2188 484.827 94.4699 484.492C94.6864 484.146 94.8931 483.802 95.09 483.461C95.3049 483.089 95.5046 482.729 95.6891 482.381C95.8426 482.015 95.9415 481.65 95.9858 481.287C96.0548 480.938 96.0079 480.597 95.8451 480.263C95.6822 479.929 95.3713 479.63 94.9124 479.365ZM96.4183 490.678L101.993 481.022L103.938 482.144L103.347 483.168L103.384 483.189C104.463 482.795 105.521 482.897 106.557 483.495C107.325 483.955 107.858 484.593 108.155 485.41L105.769 486.278C105.546 485.719 105.214 485.312 104.774 485.058C104.277 484.772 103.759 484.688 103.22 484.806C102.64 484.893 102.14 485.287 101.72 485.986L98.3626 491.801L96.4183 490.678ZM113.341 494.991L107.322 491.516C106.874 492.291 106.757 493.009 106.971 493.67C107.15 494.319 107.578 494.839 108.254 495.229C109.042 495.684 109.926 495.777 110.908 495.509L111.62 497.52C110.025 498.005 108.565 497.856 107.238 497.074C106.73 496.78 106.277 496.42 105.879 495.991C105.683 495.771 105.51 495.527 105.36 495.258C105.186 495 105.044 494.724 104.933 494.428C104.731 493.832 104.69 493.138 104.808 492.346C104.887 491.565 105.213 490.678 105.786 489.686C106.337 488.731 106.916 488.007 107.523 487.514C108.138 487.009 108.741 486.679 109.335 486.525C109.938 486.369 110.526 486.345 111.1 486.453C111.668 486.558 112.182 486.743 112.641 487.008C113.738 487.657 114.462 488.559 114.813 489.713C115.169 490.886 114.986 492.112 114.265 493.391L113.341 494.991ZM108.246 489.915L112.32 492.268C112.729 491.503 112.855 490.819 112.698 490.216C112.538 489.636 112.166 489.177 111.583 488.84C111 488.504 110.417 488.411 109.833 488.562C109.245 488.735 108.716 489.186 108.246 489.915ZM115.006 497.478C115.317 498.757 116.096 499.757 117.343 500.477C117.901 500.799 118.42 500.954 118.898 500.941C119.377 500.928 119.729 500.726 119.955 500.335C120.156 499.988 120.19 499.685 120.058 499.427C119.923 499.159 119.679 498.915 119.327 498.695L117.701 497.558C116.932 497.014 116.429 496.36 116.192 495.595C115.936 494.835 116.04 494.039 116.504 493.207C117.089 492.222 117.869 491.68 118.844 491.582C119.8 491.472 120.793 491.715 121.823 492.309C122.269 492.567 122.653 492.826 122.975 493.086C123.292 493.352 123.574 493.63 123.82 493.921C124.275 494.506 124.621 495.14 124.856 495.821L122.845 496.533C122.627 496.052 122.36 495.604 122.045 495.191C121.725 494.799 121.298 494.45 120.765 494.142C120.157 493.791 119.669 493.654 119.302 493.731C118.923 493.802 118.634 494.007 118.437 494.348C118.3 494.558 118.287 494.803 118.398 495.082C118.48 495.37 118.743 495.674 119.186 495.996L120.716 497.041C121.678 497.695 122.228 498.418 122.366 499.209C122.481 499.97 122.308 500.751 121.846 501.551C121.293 502.48 120.494 502.982 119.45 503.058C118.405 503.149 117.299 502.866 116.132 502.209C114.557 501.299 113.473 499.904 112.88 498.024L115.006 497.478ZM124.16 502.763C124.471 504.042 125.25 505.042 126.497 505.762C127.055 506.084 127.574 506.239 128.053 506.226C128.531 506.213 128.884 506.011 129.109 505.62C129.31 505.273 129.344 504.97 129.212 504.712C129.077 504.444 128.834 504.2 128.481 503.98L126.855 502.843C126.086 502.299 125.583 501.645 125.346 500.88C125.09 500.12 125.194 499.325 125.658 498.492C126.243 497.507 127.023 496.965 127.998 496.867C128.955 496.757 129.948 497 130.977 497.594C131.424 497.852 131.808 498.111 132.129 498.371C132.447 498.637 132.728 498.915 132.974 499.206C133.43 499.792 133.775 500.425 134.01 501.107L131.999 501.818C131.781 501.337 131.514 500.889 131.199 500.476C130.879 500.084 130.452 499.735 129.919 499.427C129.311 499.076 128.824 498.939 128.456 499.017C128.077 499.087 127.789 499.293 127.592 499.634C127.454 499.844 127.441 500.088 127.552 500.368C127.635 500.655 127.897 500.959 128.34 501.281L129.87 502.326C130.832 502.98 131.382 503.703 131.521 504.494C131.635 505.255 131.462 506.036 131 506.836C130.447 507.765 129.648 508.268 128.604 508.343C127.559 508.434 126.453 508.151 125.286 507.494C123.711 506.584 122.627 505.189 122.034 503.309L124.16 502.763Z" fill="black"/>
<path d="M313.756 511.461L308.181 501.805L310.125 500.682L310.716 501.706L310.753 501.684C310.951 500.553 311.569 499.688 312.604 499.09C313.387 498.655 314.206 498.512 315.062 498.663L314.62 501.163C314.025 501.077 313.507 501.161 313.066 501.415C312.57 501.702 312.238 502.108 312.071 502.635C311.857 503.18 311.948 503.81 312.343 504.524L315.7 510.339L313.756 511.461ZM325.952 498.962L319.933 502.437C320.38 503.213 320.944 503.673 321.623 503.818C322.275 503.988 322.939 503.877 323.615 503.487C324.403 503.032 324.926 502.313 325.184 501.328L327.282 501.717C326.904 503.341 326.045 504.531 324.705 505.289C324.196 505.583 323.657 505.795 323.087 505.925C322.799 505.984 322.501 506.012 322.192 506.008C321.883 506.029 321.572 506.014 321.261 505.962C320.644 505.839 320.022 505.528 319.395 505.03C318.758 504.571 318.153 503.845 317.58 502.853C317.029 501.898 316.691 501.034 316.568 500.262C316.438 499.477 316.454 498.79 316.618 498.199C316.784 497.599 317.057 497.077 317.438 496.634C317.813 496.194 318.229 495.842 318.688 495.577C319.8 494.952 320.942 494.776 322.117 495.049C323.311 495.327 324.282 496.098 325.028 497.362L325.952 498.962ZM319.009 500.837L323.084 498.485C322.626 497.749 322.096 497.298 321.496 497.131C320.913 496.98 320.329 497.073 319.747 497.41C319.164 497.746 318.792 498.205 318.631 498.786C318.487 499.382 318.613 500.065 319.009 500.837ZM334.389 495.766L336.558 496.213C336.415 496.94 336.146 497.621 335.751 498.254C335.363 498.9 334.798 499.445 334.054 499.891C332.913 500.55 331.688 500.74 330.378 500.463C329.037 500.203 327.853 499.212 326.826 497.49C325.837 495.721 325.562 494.184 326.001 492.881C326.415 491.608 327.197 490.648 328.345 490.002C329.103 489.581 329.853 489.355 330.595 489.323C331.341 489.297 332.072 489.417 332.787 489.682L332.09 491.784C331.224 491.416 330.375 491.455 329.542 491.903C327.878 492.831 327.621 494.319 328.77 496.368C329.962 498.375 331.374 498.887 333.006 497.904C333.818 497.419 334.279 496.706 334.389 495.766ZM343.944 488.575L337.925 492.05C338.372 492.825 338.936 493.285 339.615 493.431C340.267 493.6 340.931 493.49 341.607 493.099C342.395 492.645 342.918 491.925 343.176 490.94L345.274 491.33C344.896 492.953 344.037 494.144 342.697 494.901C342.188 495.195 341.649 495.407 341.08 495.537C340.791 495.596 340.493 495.624 340.184 495.62C339.875 495.642 339.564 495.627 339.253 495.575C338.636 495.451 338.014 495.141 337.387 494.642C336.75 494.183 336.145 493.458 335.572 492.465C335.021 491.51 334.683 490.646 334.56 489.874C334.43 489.09 334.446 488.402 334.61 487.811C334.776 487.211 335.049 486.689 335.43 486.246C335.805 485.807 336.221 485.454 336.68 485.189C337.792 484.564 338.934 484.388 340.109 484.661C341.303 484.939 342.274 485.71 343.02 486.975L343.944 488.575ZM337.001 490.45L341.076 488.097C340.618 487.361 340.088 486.91 339.488 486.744C338.905 486.593 338.322 486.685 337.739 487.022C337.156 487.359 336.784 487.817 336.623 488.398C336.479 488.994 336.605 489.678 337.001 490.45ZM348.4 491.459L342.825 481.803L344.769 480.68L350.345 490.337L348.4 491.459ZM341.692 479.84L340.569 477.896L342.514 476.773L343.636 478.717L341.692 479.84ZM355.098 487.592L345.979 479.982L348.035 478.795L354.21 484.248L354.247 484.226L352.603 476.158L354.668 474.966L356.699 486.668L355.098 487.592ZM366.401 475.609L360.382 479.084C360.83 479.859 361.393 480.319 362.073 480.465C362.724 480.634 363.388 480.524 364.064 480.133C364.852 479.679 365.375 478.959 365.634 477.975L367.731 478.364C367.354 479.987 366.495 481.178 365.154 481.935C364.646 482.229 364.107 482.441 363.537 482.571C363.249 482.631 362.95 482.658 362.642 482.654C362.332 482.676 362.022 482.661 361.71 482.609C361.093 482.486 360.472 482.175 359.845 481.677C359.208 481.217 358.603 480.492 358.03 479.499C357.478 478.544 357.141 477.681 357.018 476.908C356.887 476.124 356.904 475.436 357.067 474.846C357.233 474.245 357.507 473.724 357.887 473.28C358.262 472.841 358.679 472.488 359.138 472.224C360.249 471.599 361.392 471.422 362.567 471.695C363.761 471.973 364.731 472.744 365.477 474.009L366.401 475.609ZM359.458 477.484L363.533 475.131C363.075 474.395 362.546 473.944 361.946 473.778C361.362 473.627 360.779 473.72 360.196 474.056C359.613 474.393 359.241 474.851 359.08 475.432C358.936 476.028 359.062 476.712 359.458 477.484ZM370.802 478.526L365.227 468.869L367.171 467.747L367.762 468.77L367.799 468.749C367.997 467.617 368.615 466.752 369.65 466.154C370.433 465.719 371.252 465.577 372.108 465.728L371.666 468.228C371.071 468.142 370.553 468.226 370.112 468.48C369.616 468.766 369.284 469.173 369.117 469.699C368.903 470.245 368.994 470.875 369.389 471.589L372.746 477.403L370.802 478.526ZM387.873 468.67L387.379 467.814L387.342 467.836C387.352 468.268 387.212 468.671 386.923 469.045C386.644 469.421 386.176 469.798 385.519 470.178C384.432 470.789 383.437 470.983 382.531 470.762C381.602 470.57 380.892 470.05 380.402 469.2C379.933 468.388 379.811 467.561 380.036 466.72C380.255 465.866 380.875 465.136 381.897 464.529L384.586 462.976L384 461.962C383.522 461.106 382.624 461.075 381.305 461.869C380.821 462.149 380.468 462.418 380.246 462.679C380.023 462.965 379.908 463.296 379.902 463.672L377.704 463.39C377.884 461.996 378.7 460.896 380.153 460.09C381.362 459.376 382.465 459.045 383.463 459.097C384.468 459.162 385.316 459.78 386.009 460.952L389.817 467.547L387.873 468.67ZM385.913 465.274L385.51 464.577L383.184 465.919C382.069 466.596 381.735 467.306 382.181 468.049C382.371 468.378 382.677 468.573 383.101 468.634C383.527 468.727 384.063 468.587 384.708 468.215C385.527 467.758 386.046 467.331 386.262 466.933C386.448 466.553 386.331 466 385.913 465.274ZM397.521 461.748C397.301 462.842 396.683 463.699 395.668 464.318C395.078 464.642 394.509 464.81 393.961 464.82C393.398 464.847 392.863 464.759 392.357 464.555C391.915 464.406 391.5 464.095 391.112 463.624C390.72 463.189 390.195 462.401 389.536 461.26C388.867 460.1 388.443 459.245 388.266 458.694C388.066 458.147 388.012 457.645 388.103 457.187C388.18 456.06 388.798 455.14 389.959 454.429C390.455 454.143 390.973 453.98 391.513 453.941C392.029 453.933 392.565 453.995 393.122 454.129L390.275 449.198L392.22 448.075L400.051 461.639L398.106 462.762L397.521 461.748ZM391.677 456.03C391.218 456.295 390.912 456.574 390.76 456.869C390.59 457.191 390.527 457.533 390.571 457.896C390.622 458.256 390.727 458.617 390.886 458.979C391.06 459.367 391.258 459.753 391.48 460.137C391.692 460.503 391.916 460.849 392.154 461.175C392.402 461.519 392.67 461.803 392.956 462.027C393.241 462.234 393.569 462.351 393.939 462.377C394.282 462.411 394.682 462.295 395.141 462.03C395.6 461.765 395.909 461.463 396.068 461.123C396.231 460.789 396.278 460.447 396.209 460.099C396.165 459.736 396.061 459.362 395.896 458.977C395.705 458.616 395.51 458.265 395.313 457.924C395.098 457.552 394.886 457.199 394.677 456.865C394.437 456.549 394.17 456.281 393.878 456.061C393.61 455.827 393.291 455.697 392.921 455.671C392.55 455.645 392.136 455.765 391.677 456.03ZM407.419 456.033C407.199 457.127 406.582 457.984 405.567 458.603C404.976 458.928 404.407 459.095 403.859 459.105C403.296 459.133 402.762 459.044 402.255 458.841C401.813 458.691 401.398 458.38 401.011 457.909C400.619 457.474 400.093 456.686 399.435 455.545C398.765 454.385 398.341 453.53 398.164 452.979C397.964 452.433 397.91 451.93 398.001 451.473C398.078 450.345 398.697 449.426 399.857 448.714C400.353 448.428 400.871 448.265 401.411 448.226C401.927 448.218 402.464 448.28 403.02 448.414L400.174 443.483L402.118 442.361L409.949 455.924L408.005 457.047L407.419 456.033ZM401.575 450.315C401.116 450.58 400.81 450.86 400.658 451.154C400.488 451.476 400.425 451.818 400.47 452.181C400.52 452.541 400.625 452.902 400.785 453.264C400.959 453.652 401.157 454.038 401.379 454.422C401.59 454.788 401.815 455.134 402.052 455.46C402.301 455.804 402.568 456.088 402.854 456.312C403.139 456.519 403.467 456.636 403.838 456.662C404.18 456.696 404.581 456.58 405.039 456.315C405.498 456.05 405.808 455.748 405.967 455.408C406.13 455.074 406.177 454.733 406.107 454.384C406.063 454.021 405.959 453.647 405.795 453.262C405.603 452.901 405.409 452.55 405.212 452.209C404.997 451.837 404.785 451.484 404.575 451.15C404.335 450.834 404.069 450.566 403.776 450.346C403.509 450.112 403.19 449.982 402.819 449.956C402.449 449.93 402.034 450.05 401.575 450.315ZM412.126 454.667L406.551 445.011L408.495 443.888L409.086 444.912L409.123 444.89C409.321 443.759 409.939 442.894 410.974 442.296C411.757 441.861 412.576 441.718 413.432 441.869L412.99 444.369C412.395 444.283 411.877 444.367 411.436 444.621C410.94 444.908 410.608 445.314 410.441 445.841C410.227 446.387 410.317 447.016 410.713 447.731L414.07 453.545L412.126 454.667ZM424.322 442.168L418.303 445.644C418.75 446.419 419.314 446.879 419.993 447.024C420.645 447.194 421.309 447.083 421.985 446.693C422.773 446.238 423.296 445.519 423.554 444.534L425.652 444.923C425.274 446.547 424.415 447.737 423.075 448.495C422.566 448.789 422.027 449.001 421.457 449.131C421.169 449.19 420.871 449.218 420.562 449.214C420.253 449.235 419.942 449.22 419.631 449.168C419.014 449.045 418.392 448.734 417.765 448.236C417.128 447.777 416.523 447.051 415.95 446.059C415.399 445.104 415.061 444.24 414.938 443.468C414.808 442.683 414.824 441.996 414.988 441.405C415.154 440.805 415.427 440.283 415.808 439.84C416.183 439.4 416.599 439.048 417.058 438.783C418.17 438.158 419.312 437.982 420.487 438.255C421.681 438.533 422.652 439.304 423.398 440.568L424.322 442.168ZM417.379 444.043L421.454 441.691C420.996 440.955 420.466 440.504 419.866 440.338C419.283 440.186 418.699 440.279 418.117 440.616C417.534 440.952 417.162 441.411 417.001 441.992C416.857 442.588 416.983 443.271 417.379 444.043ZM427.308 441.97C428.572 442.34 429.827 442.165 431.074 441.445C431.632 441.123 432.025 440.751 432.254 440.33C432.482 439.909 432.483 439.503 432.257 439.112C432.057 438.765 431.812 438.584 431.522 438.569C431.223 438.552 430.89 438.641 430.523 438.836L428.725 439.676C427.87 440.07 427.052 440.179 426.271 440.001C425.485 439.843 424.848 439.355 424.359 438.537C423.798 437.538 423.719 436.591 424.121 435.698C424.504 434.815 425.211 434.076 426.24 433.482C426.687 433.224 427.103 433.021 427.489 432.873C427.878 432.731 428.26 432.626 428.635 432.558C429.37 432.457 430.091 432.474 430.799 432.611L430.41 434.709C429.884 434.657 429.363 434.664 428.847 434.731C428.348 434.812 427.832 435.007 427.299 435.315C426.691 435.665 426.329 436.019 426.212 436.376C426.083 436.74 426.117 437.092 426.314 437.433C426.427 437.658 426.632 437.791 426.93 437.834C427.22 437.907 427.615 437.832 428.115 437.609L429.785 436.806C430.833 436.301 431.734 436.186 432.488 436.461C433.204 436.742 433.794 437.283 434.255 438.083C434.784 439.027 434.819 439.969 434.363 440.911C433.919 441.862 433.121 442.678 431.969 443.36C430.393 444.27 428.643 444.511 426.718 444.084L427.308 441.97ZM436.462 436.685C437.726 437.055 438.982 436.88 440.228 436.16C440.786 435.838 441.179 435.466 441.408 435.045C441.636 434.624 441.637 434.218 441.412 433.827C441.211 433.48 440.966 433.299 440.676 433.284C440.377 433.267 440.044 433.356 439.677 433.551L437.879 434.391C437.024 434.785 436.206 434.894 435.425 434.716C434.639 434.558 434.002 434.07 433.513 433.252C432.953 432.253 432.873 431.306 433.275 430.413C433.659 429.53 434.365 428.791 435.395 428.197C435.841 427.939 436.257 427.736 436.643 427.588C437.032 427.445 437.414 427.341 437.789 427.273C438.524 427.171 439.245 427.189 439.953 427.326L439.564 429.424C439.038 429.372 438.517 429.379 438.001 429.446C437.502 429.527 436.986 429.721 436.453 430.029C435.845 430.38 435.483 430.734 435.366 431.091C435.237 431.455 435.271 431.807 435.468 432.148C435.581 432.373 435.786 432.506 436.084 432.549C436.374 432.622 436.769 432.547 437.269 432.324L438.939 431.521C439.987 431.016 440.888 430.901 441.642 431.176C442.359 431.457 442.948 431.998 443.41 432.798C443.938 433.741 443.974 434.684 443.517 435.626C443.073 436.577 442.275 437.393 441.123 438.075C439.547 438.985 437.797 439.226 435.872 438.799L436.462 436.685Z" fill="black"/>
<path d="M316.443 74.3196L318.14 71.3798L320.084 72.5024L318.387 75.4421L319.801 76.2585L318.947 77.7377L317.533 76.9213L314.284 82.5496C313.988 83.0324 314.08 83.4037 314.558 83.6634L315.284 84.0824L314.226 85.915L313.212 85.3296C312.53 84.9357 312.093 84.4026 311.903 83.7302C311.689 83.0693 311.802 82.3574 312.243 81.5945L315.589 75.7987L314.621 75.2401L315.475 73.761L316.443 74.3196ZM316.059 86.9732L321.634 77.3166L323.578 78.4392L322.987 79.4625L323.025 79.484C324.104 79.09 325.161 79.192 326.197 79.7899C326.965 80.2499 327.498 80.8883 327.795 81.7051L325.409 82.5725C325.186 82.0137 324.854 81.6071 324.414 81.3529C323.918 81.0665 323.4 80.9824 322.86 81.1008C322.281 81.188 321.78 81.5815 321.36 82.2813L318.003 88.0957L316.059 86.9732ZM328.199 93.9824L328.693 93.1266L328.656 93.1051C328.286 93.3299 327.868 93.4107 327.4 93.3473C326.935 93.2937 326.373 93.0771 325.716 92.6976C324.644 92.0621 323.977 91.297 323.717 90.4023C323.418 89.502 323.514 88.627 324.004 87.7773C324.473 86.9649 325.129 86.4459 325.97 86.2205C326.818 85.9827 327.761 86.1547 328.798 86.7367L331.486 88.289L332.072 87.275C332.575 86.4325 332.152 85.6387 330.804 84.8936C330.321 84.6143 329.911 84.4437 329.574 84.3818C329.215 84.3314 328.871 84.3973 328.542 84.5798L327.688 82.536C328.984 81.9946 330.345 82.1517 331.769 83.0072C332.992 83.6966 333.83 84.4865 334.284 85.3768C334.73 86.2795 334.619 87.3236 333.951 88.5092L330.143 95.105L328.199 93.9824ZM330.159 90.5868L330.562 89.8891L328.237 88.5463C327.093 87.9195 326.312 87.9848 325.891 88.7424C325.701 89.0711 325.685 89.4344 325.844 89.8321C325.977 90.2475 326.365 90.6414 327.01 91.0138C327.816 91.4953 328.445 91.7304 328.898 91.7191C329.32 91.6899 329.741 91.3125 330.159 90.5868ZM332.655 96.5552L338.23 86.8987L340.175 88.0212L339.584 89.0446L339.621 89.066C340.7 88.672 341.758 88.774 342.794 89.372C343.594 89.8339 344.163 90.5386 344.5 91.4861C344.828 92.4363 344.689 93.4723 344.083 94.5941L340.377 101.013L338.432 99.8906L341.752 94.1414C342.142 93.4654 342.259 92.8468 342.104 92.2856C341.958 91.7217 341.606 91.2787 341.048 90.9564C340.49 90.6342 339.927 90.549 339.359 90.7011C338.789 90.8433 338.309 91.2525 337.919 91.9285L334.6 97.6777L332.655 96.5552ZM344.88 99.6808C345.191 100.96 345.97 101.96 347.217 102.68C347.775 103.002 348.293 103.157 348.772 103.144C349.251 103.131 349.603 102.929 349.829 102.538C350.029 102.191 350.063 101.888 349.931 101.63C349.797 101.362 349.553 101.118 349.2 100.898L347.575 99.7608C346.805 99.2173 346.302 98.5631 346.066 97.7981C345.81 97.0384 345.914 96.2425 346.378 95.4104C346.963 94.4253 347.743 93.8834 348.718 93.7847C349.674 93.6752 350.667 93.9177 351.697 94.5121C352.143 94.7699 352.527 95.0288 352.848 95.2887C353.166 95.5548 353.448 95.8332 353.693 96.1239C354.149 96.7095 354.494 97.3431 354.729 98.0245L352.718 98.7364C352.5 98.2549 352.233 97.8073 351.918 97.3938C351.598 97.0024 351.172 96.6527 350.638 96.3448C350.031 95.9939 349.543 95.8571 349.176 95.9346C348.796 96.0048 348.508 96.2105 348.311 96.5516C348.173 96.7615 348.16 97.0062 348.272 97.2856C348.354 97.5729 348.617 97.8774 349.059 98.1991L350.59 99.2439C351.551 99.8984 352.101 100.621 352.24 101.412C352.355 102.173 352.181 102.954 351.719 103.754C351.166 104.683 350.368 105.186 349.324 105.261C348.279 105.352 347.173 105.069 346.006 104.412C344.43 103.502 343.346 102.107 342.753 100.227L344.88 99.6808ZM357.113 110.676L357.607 109.82L357.57 109.798C357.2 110.023 356.781 110.104 356.314 110.041C355.848 109.987 355.287 109.77 354.63 109.391C353.558 108.755 352.891 107.99 352.63 107.096C352.332 106.195 352.427 105.32 352.918 104.471C353.387 103.658 354.042 103.139 354.884 102.914C355.732 102.676 356.675 102.848 357.711 103.43L360.4 104.982L360.985 103.968C361.488 103.126 361.066 102.332 359.718 101.587C359.234 101.308 358.824 101.137 358.488 101.075C358.128 101.025 357.784 101.091 357.456 101.273L356.601 99.2294C357.898 98.688 359.259 98.845 360.683 99.7006C361.906 100.39 362.744 101.18 363.198 102.07C363.644 102.973 363.533 104.017 362.865 105.203L359.057 111.798L357.113 110.676ZM359.073 107.28L359.476 106.582L357.15 105.24C356.007 104.613 355.225 104.678 354.804 105.436C354.615 105.764 354.599 106.128 354.758 106.525C354.891 106.941 355.279 107.335 355.924 107.707C356.729 108.189 357.359 108.424 357.812 108.412C358.234 108.383 358.654 108.006 359.073 107.28ZM368.882 113.687L369.579 115.789C368.878 116.029 368.154 116.137 367.408 116.111C366.655 116.098 365.9 115.881 365.142 115.46C364.001 114.801 363.223 113.836 362.808 112.563C362.363 111.272 362.629 109.751 363.607 108C364.645 106.259 365.838 105.253 367.186 104.981C368.496 104.703 369.717 104.9 370.851 105.571C371.595 106.017 372.166 106.553 372.564 107.18C372.96 107.814 373.221 108.506 373.349 109.258L371.181 109.706C371.067 108.772 370.608 108.056 369.803 107.558C368.168 106.581 366.751 107.103 365.551 109.122C364.409 111.159 364.671 112.637 366.339 113.559C367.165 114.019 368.012 114.062 368.882 113.687ZM375.721 108.544L377.419 105.604L379.363 106.727L377.666 109.667L379.08 110.483L378.226 111.962L376.812 111.146L373.562 116.774C373.267 117.257 373.359 117.628 373.837 117.888L374.563 118.307L373.505 120.14L372.491 119.554C371.808 119.16 371.372 118.627 371.181 117.955C370.968 117.294 371.081 116.582 371.521 115.819L374.867 110.023L373.9 109.465L374.754 107.986L375.721 108.544ZM375.393 121.23L380.968 111.573L382.913 112.696L377.338 122.353L375.393 121.23ZM382.102 109.611L383.224 107.666L385.169 108.789L384.046 110.733L382.102 109.611ZM382.233 118.729C382.82 117.712 383.355 116.979 383.838 116.53C384.319 116.096 384.846 115.801 385.417 115.642C385.869 115.474 386.408 115.4 387.032 115.422C387.643 115.452 388.322 115.674 389.067 116.088C389.822 116.541 390.366 117.024 390.698 117.538C391.016 118.061 391.209 118.557 391.277 119.026C391.451 119.614 391.464 120.221 391.317 120.848C391.157 121.483 390.784 122.309 390.196 123.327C389.609 124.344 389.084 125.074 388.621 125.518C388.152 125.958 387.612 126.263 387.002 126.431C386.796 126.503 386.563 126.554 386.304 126.587C386.054 126.649 385.769 126.662 385.45 126.627C384.825 126.622 384.127 126.405 383.357 125.977C382.626 125.538 382.102 125.05 381.785 124.511C381.447 123.993 381.232 123.506 381.141 123.048C381.007 122.449 381.007 121.833 381.141 121.2C381.282 120.57 381.646 119.746 382.233 118.729ZM388.241 122.223C388.639 121.534 388.898 121.014 389.018 120.662C389.132 120.322 389.159 119.982 389.099 119.641C389.082 119.342 388.969 119.05 388.762 118.765C388.57 118.48 388.298 118.236 387.944 118.032C387.615 117.842 387.274 117.732 386.92 117.701C386.581 117.671 386.266 117.716 385.973 117.837C385.673 117.97 385.398 118.166 385.148 118.427C384.891 118.701 384.568 119.175 384.177 119.851C383.791 120.521 383.545 121.033 383.44 121.386C383.332 121.745 383.292 122.094 383.32 122.432C383.38 122.715 383.502 123.005 383.686 123.302C383.887 123.599 384.151 123.843 384.48 124.033C384.833 124.237 385.183 124.347 385.528 124.365C385.89 124.383 386.195 124.341 386.446 124.237C386.777 124.106 387.066 123.901 387.31 123.62C387.551 123.346 387.862 122.88 388.241 122.223ZM389.441 129.34L395.016 119.684L396.96 120.806L396.369 121.83L396.407 121.851C397.486 121.457 398.543 121.559 399.579 122.157C400.379 122.619 400.948 123.324 401.286 124.271C401.614 125.221 401.475 126.257 400.868 127.379L397.162 133.798L395.218 132.676L398.537 126.927C398.928 126.251 399.045 125.632 398.889 125.071C398.743 124.507 398.391 124.064 397.833 123.742C397.275 123.419 396.712 123.334 396.145 123.486C395.575 123.628 395.095 124.038 394.704 124.714L391.385 130.463L389.441 129.34ZM409.938 128.299L411.635 125.359L413.58 126.482L411.882 129.422L413.296 130.238L412.442 131.717L411.028 130.901L407.779 136.529C407.483 137.012 407.575 137.383 408.054 137.643L408.779 138.062L407.721 139.895L406.707 139.309C406.025 138.915 405.588 138.382 405.398 137.71C405.184 137.049 405.297 136.337 405.738 135.574L409.084 129.778L408.116 129.22L408.97 127.74L409.938 128.299ZM409.61 140.985L415.185 131.328L417.129 132.451L411.554 142.107L409.61 140.985ZM416.318 129.365L417.441 127.421L419.385 128.544L418.262 130.488L416.318 129.365ZM414.243 143.66L419.818 134.003L421.762 135.126L421.171 136.149L421.208 136.171C422.288 135.776 423.348 135.88 424.39 136.482C425.053 136.881 425.526 137.307 425.81 137.761C426.074 138.235 426.265 138.755 426.386 139.321C427.636 138.902 428.894 139.065 430.158 139.812C430.958 140.274 431.527 140.979 431.865 141.926C432.193 142.876 432.051 143.91 431.438 145.029L427.732 151.448L425.788 150.325L429.107 144.576C429.497 143.9 429.618 143.283 429.468 142.725C429.322 142.162 428.97 141.719 428.412 141.396C427.854 141.074 427.291 140.989 426.724 141.141C426.154 141.283 425.674 141.692 425.283 142.368L421.964 148.118L420.02 146.995L423.339 141.246C423.729 140.57 423.85 139.953 423.7 139.395C423.548 138.828 423.193 138.383 422.635 138.061C422.077 137.739 421.517 137.655 420.956 137.811C420.38 137.95 419.897 138.357 419.506 139.033L416.187 144.782L414.243 143.66ZM440.226 153.204L434.207 149.728C433.76 150.504 433.643 151.222 433.856 151.883C434.036 152.532 434.463 153.052 435.139 153.442C435.927 153.897 436.812 153.99 437.794 153.722L438.505 155.733C436.911 156.218 435.45 156.069 434.124 155.287C433.615 154.993 433.162 154.632 432.764 154.204C432.569 153.984 432.396 153.739 432.245 153.47C432.071 153.213 431.929 152.937 431.818 152.641C431.617 152.045 431.575 151.351 431.693 150.559C431.772 149.778 432.098 148.891 432.671 147.899C433.222 146.944 433.802 146.22 434.409 145.727C435.023 145.221 435.627 144.892 436.22 144.738C436.823 144.582 437.412 144.558 437.986 144.666C438.554 144.771 439.067 144.956 439.526 145.221C440.623 145.87 441.347 146.772 441.698 147.926C442.054 149.099 441.872 150.325 441.15 151.603L440.226 153.204ZM435.131 148.128L439.206 150.481C439.614 149.716 439.74 149.032 439.584 148.429C439.423 147.849 439.051 147.39 438.468 147.053C437.885 146.717 437.302 146.624 436.719 146.775C436.131 146.948 435.601 147.399 435.131 148.128Z" fill="black"/>
<path d="M178.305 21V20.0117H178.262C178.054 20.3913 177.732 20.6706 177.295 20.8496C176.865 21.0358 176.271 21.1289 175.512 21.1289C174.266 21.1146 173.306 20.7852 172.633 20.1406C171.924 19.5104 171.569 18.7048 171.569 17.7236C171.569 16.7855 171.877 16.0085 172.493 15.3926C173.109 14.7624 174.011 14.4401 175.2 14.4258H178.305V13.2549C178.319 12.2738 177.556 11.7975 176.017 11.8262C175.458 11.8262 175.018 11.8835 174.695 11.998C174.359 12.1341 174.094 12.3633 173.9 12.6855L172.139 11.3428C172.991 10.2256 174.248 9.68132 175.909 9.70996C177.313 9.69564 178.434 9.96061 179.271 10.5049C180.109 11.0635 180.535 12.0231 180.55 13.3838V21H178.305ZM178.305 17.0791V16.2734H175.619C174.316 16.3021 173.671 16.7497 173.686 17.6162C173.686 17.9958 173.854 18.318 174.19 18.583C174.513 18.8766 175.046 19.0234 175.791 19.0234C176.729 19.0378 177.392 18.9268 177.778 18.6904C178.129 18.4541 178.305 17.917 178.305 17.0791ZM190.003 17.7236L191.657 19.1953C191.17 19.7539 190.597 20.2087 189.938 20.5596C189.28 20.9248 188.517 21.1146 187.65 21.1289C186.333 21.1289 185.176 20.6813 184.181 19.7861C183.149 18.891 182.619 17.4408 182.591 15.4355C182.619 13.4089 183.149 11.9408 184.181 11.0312C185.176 10.1361 186.333 9.69564 187.65 9.70996C188.517 9.72428 189.28 9.90332 189.938 10.2471C190.597 10.598 191.17 11.0671 191.657 11.6543L190.003 13.126C189.437 12.374 188.682 11.9837 187.736 11.9551C185.831 11.9264 184.865 13.0866 184.836 15.4355C184.865 17.7702 185.831 18.9196 187.736 18.8838C188.682 18.8695 189.437 18.4827 190.003 17.7236ZM193.354 9.84961V6.45508L195.6 6.45508V9.84961H197.232V11.5576H195.6V18.0566C195.585 18.6224 195.85 18.8981 196.395 18.8838H197.232V21H196.062C195.274 21 194.629 20.7565 194.128 20.2695C193.612 19.804 193.354 19.1309 193.354 18.25V11.5576H192.237V9.84961H193.354ZM199.413 21V9.84961H201.658V21H199.413ZM199.413 7.58301V5.33789H201.658V7.58301H199.413ZM207.147 21L203.055 9.84961H205.429L208.05 17.6592H208.093L210.703 9.84961H213.088L208.995 21H207.147ZM214.474 21V9.84961H216.719V21H214.474ZM214.474 7.58301V5.33789H216.719V7.58301H214.474ZM219.823 9.84961V6.45508H222.068V9.84961H223.701V11.5576H222.068V18.0566C222.054 18.6224 222.319 18.8981 222.863 18.8838H223.701V21H222.53C221.743 21 221.098 20.7565 220.597 20.2695C220.081 19.804 219.823 19.1309 219.823 18.25V11.5576L218.706 11.5576V9.84961L219.823 9.84961ZM228.213 20.5596L224.217 9.84961H226.591L229.233 17.6592H229.276L231.908 9.84961H234.293L229.491 23.3096C229.183 24.1475 228.757 24.7275 228.213 25.0498C227.661 25.3577 227.038 25.5117 226.344 25.5117H225.603V23.3955H226.258C226.551 23.3955 226.824 23.3167 227.074 23.1592C227.325 22.9945 227.5 22.751 227.601 22.4287L228.213 20.5596ZM240.942 21V9.84961H243.188V21H240.942ZM240.942 7.58301V5.33789L243.188 5.33789V7.58301L240.942 7.58301ZM252.716 17.7236L254.37 19.1953C253.883 19.7539 253.31 20.2087 252.651 20.5596C251.993 20.9248 251.23 21.1146 250.363 21.1289C249.046 21.1289 247.889 20.6813 246.894 19.7861C245.862 18.891 245.332 17.4408 245.304 15.4355C245.332 13.4089 245.862 11.9408 246.894 11.0312C247.889 10.1361 249.046 9.69564 250.363 9.70996C251.23 9.72428 251.993 9.90332 252.651 10.2471C253.31 10.598 253.883 11.0671 254.37 11.6543L252.716 13.126C252.15 12.374 251.395 11.9837 250.449 11.9551C248.544 11.9264 247.577 13.0866 247.549 15.4355C247.577 17.7702 248.544 18.9196 250.449 18.8838C251.395 18.8695 252.15 18.4827 252.716 17.7236ZM255.391 15.4141C255.391 14.2396 255.487 13.3372 255.681 12.707C255.881 12.0911 256.189 11.5719 256.604 11.1494C256.912 10.777 257.342 10.444 257.894 10.1504C258.438 9.87109 259.136 9.72428 259.988 9.70996C260.869 9.72428 261.582 9.87109 262.126 10.1504C262.663 10.444 263.078 10.777 263.372 11.1494C263.816 11.5719 264.131 12.0911 264.317 12.707C264.496 13.3372 264.586 14.2396 264.586 15.4141C264.586 16.5885 264.496 17.4837 264.317 18.0996C264.131 18.7155 263.816 19.249 263.372 19.7002C263.229 19.8649 263.053 20.026 262.846 20.1836C262.66 20.3626 262.42 20.5166 262.126 20.6455C261.582 20.9535 260.869 21.1146 259.988 21.1289C259.136 21.1146 258.438 20.9535 257.894 20.6455C257.342 20.3662 256.912 20.0511 256.604 19.7002C256.189 19.249 255.881 18.7155 255.681 18.0996C255.487 17.4837 255.391 16.5885 255.391 15.4141ZM262.341 15.4355C262.341 14.6406 262.305 14.0605 262.233 13.6953C262.162 13.3444 262.015 13.0365 261.793 12.7715C261.628 12.5208 261.385 12.3239 261.062 12.1807C260.755 12.0303 260.396 11.9551 259.988 11.9551C259.609 11.9551 259.258 12.0303 258.936 12.1807C258.628 12.3239 258.377 12.5208 258.184 12.7715C257.99 13.0365 257.851 13.3444 257.765 13.6953C257.679 14.0605 257.636 14.6335 257.636 15.4141C257.636 16.1875 257.679 16.7533 257.765 17.1113C257.851 17.4766 257.99 17.7988 258.184 18.0781C258.377 18.293 258.628 18.4827 258.936 18.6475C259.258 18.805 259.609 18.8838 259.988 18.8838C260.396 18.8838 260.755 18.805 261.062 18.6475C261.385 18.4827 261.628 18.293 261.793 18.0781C262.015 17.7988 262.162 17.4766 262.233 17.1113C262.305 16.7533 262.341 16.1947 262.341 15.4355ZM266.938 21V9.84961H269.184V11.0312H269.227C269.964 10.1504 270.931 9.70996 272.127 9.70996C273.051 9.70996 273.896 10.0358 274.662 10.6875C275.421 11.3464 275.819 12.3132 275.854 13.5879V21H273.609V14.3613C273.609 13.5807 273.402 12.9863 272.986 12.5781C272.578 12.1628 272.052 11.9551 271.407 11.9551C270.763 11.9551 270.233 12.1628 269.817 12.5781C269.395 12.9863 269.184 13.5807 269.184 14.3613V21L266.938 21Z" fill="black"/>
<path d="M180.305 574V573.012H180.262C180.054 573.391 179.732 573.671 179.295 573.85C178.865 574.036 178.271 574.129 177.512 574.129C176.266 574.115 175.306 573.785 174.633 573.141C173.924 572.51 173.569 571.705 173.569 570.724C173.569 569.785 173.877 569.008 174.493 568.393C175.109 567.762 176.011 567.44 177.2 567.426H180.305V566.255C180.319 565.274 179.556 564.798 178.017 564.826C177.458 564.826 177.018 564.883 176.695 564.998C176.359 565.134 176.094 565.363 175.9 565.686L174.139 564.343C174.991 563.226 176.248 562.681 177.909 562.71C179.313 562.696 180.434 562.961 181.271 563.505C182.109 564.063 182.535 565.023 182.55 566.384V574H180.305ZM180.305 570.079V569.273H177.619C176.316 569.302 175.671 569.75 175.686 570.616C175.686 570.996 175.854 571.318 176.19 571.583C176.513 571.877 177.046 572.023 177.791 572.023C178.729 572.038 179.392 571.927 179.778 571.69C180.129 571.454 180.305 570.917 180.305 570.079ZM185.783 570.595C186.693 571.547 187.867 572.023 189.307 572.023C189.951 572.023 190.478 571.898 190.886 571.647C191.294 571.397 191.498 571.046 191.498 570.595C191.498 570.194 191.376 569.914 191.133 569.757C190.882 569.592 190.549 569.503 190.134 569.488L188.157 569.316C187.219 569.23 186.456 568.915 185.869 568.371C185.268 567.841 184.96 567.1 184.945 566.147C184.96 565.002 185.364 564.142 186.159 563.569C186.933 562.996 187.914 562.71 189.103 562.71C189.618 562.71 190.08 562.742 190.488 562.807C190.896 562.878 191.28 562.979 191.638 563.107C192.325 563.387 192.941 563.763 193.485 564.235L192.1 565.857C191.67 565.549 191.215 565.295 190.735 565.095C190.263 564.916 189.718 564.826 189.103 564.826C188.401 564.826 187.91 564.951 187.631 565.202C187.337 565.453 187.19 565.775 187.19 566.169C187.176 566.42 187.287 566.638 187.523 566.824C187.738 567.032 188.118 567.164 188.662 567.222L190.51 567.361C191.67 567.447 192.508 567.798 193.023 568.414C193.503 569.016 193.743 569.778 193.743 570.702C193.729 571.784 193.288 572.618 192.422 573.205C191.562 573.807 190.463 574.115 189.124 574.129C187.305 574.129 185.669 573.463 184.215 572.131L185.783 570.595ZM196.354 570.595C197.263 571.547 198.438 572.023 199.877 572.023C200.521 572.023 201.048 571.898 201.456 571.647C201.864 571.397 202.068 571.046 202.068 570.595C202.068 570.194 201.947 569.914 201.703 569.757C201.452 569.592 201.119 569.503 200.704 569.488L198.728 569.316C197.789 569.23 197.027 568.915 196.439 568.371C195.838 567.841 195.53 567.1 195.516 566.147C195.53 565.002 195.935 564.142 196.729 563.569C197.503 562.996 198.484 562.71 199.673 562.71C200.188 562.71 200.65 562.742 201.059 562.807C201.467 562.878 201.85 562.979 202.208 563.107C202.896 563.387 203.511 563.763 204.056 564.235L202.67 565.857C202.24 565.549 201.785 565.295 201.306 565.095C200.833 564.916 200.289 564.826 199.673 564.826C198.971 564.826 198.48 564.951 198.201 565.202C197.908 565.453 197.761 565.775 197.761 566.169C197.746 566.42 197.857 566.638 198.094 566.824C198.309 567.032 198.688 567.164 199.232 567.222L201.08 567.361C202.24 567.447 203.078 567.798 203.594 568.414C204.074 569.016 204.313 569.778 204.313 570.702C204.299 571.784 203.859 572.618 202.992 573.205C202.133 573.807 201.034 574.115 199.694 574.129C197.875 574.129 196.239 573.463 194.785 572.131L196.354 570.595ZM215.238 569.273H208.288C208.288 570.169 208.546 570.849 209.062 571.314C209.541 571.787 210.172 572.023 210.952 572.023C211.862 572.023 212.674 571.662 213.391 570.938L215.013 572.324C213.874 573.542 212.535 574.143 210.995 574.129C210.408 574.129 209.835 574.043 209.276 573.871C208.997 573.778 208.725 573.653 208.46 573.495C208.181 573.359 207.919 573.191 207.676 572.99C207.203 572.575 206.82 571.995 206.526 571.25C206.204 570.534 206.043 569.603 206.043 568.457C206.043 567.354 206.183 566.438 206.462 565.707C206.741 564.962 207.099 564.375 207.536 563.945C207.98 563.508 208.478 563.193 209.029 563C209.574 562.807 210.111 562.71 210.641 562.71C211.915 562.724 212.993 563.143 213.874 563.967C214.769 564.805 215.224 565.958 215.238 567.426V569.273ZM208.288 567.426H212.993C212.965 566.559 212.732 565.904 212.295 565.46C211.865 565.037 211.314 564.826 210.641 564.826C209.967 564.826 209.416 565.037 208.986 565.46C208.564 565.904 208.331 566.559 208.288 567.426ZM217.72 562.85V559.455H219.965V562.85H221.598V564.558H219.965V571.057C219.951 571.622 220.215 571.898 220.76 571.884H221.598V574H220.427C219.639 574 218.994 573.757 218.493 573.27C217.978 572.804 217.72 572.131 217.72 571.25V564.558H216.603V562.85H217.72ZM231.513 574L227.42 562.85H229.794L232.415 570.659H232.458L235.068 562.85H237.453L233.36 574H231.513ZM244.629 574V573.012H244.586C244.378 573.391 244.056 573.671 243.619 573.85C243.189 574.036 242.595 574.129 241.836 574.129C240.59 574.115 239.63 573.785 238.957 573.141C238.248 572.51 237.894 571.705 237.894 570.724C237.894 569.785 238.201 569.008 238.817 568.393C239.433 567.762 240.336 567.44 241.524 567.426H244.629V566.255C244.643 565.274 243.881 564.798 242.341 564.826C241.782 564.826 241.342 564.883 241.02 564.998C240.683 565.134 240.418 565.363 240.225 565.686L238.463 564.343C239.315 563.226 240.572 562.681 242.233 562.71C243.637 562.696 244.758 562.961 245.596 563.505C246.434 564.063 246.86 565.023 246.874 566.384V574H244.629ZM244.629 570.079V569.273H241.943C240.64 569.302 239.995 569.75 240.01 570.616C240.01 570.996 240.178 571.318 240.515 571.583C240.837 571.877 241.37 572.023 242.115 572.023C243.053 572.038 243.716 571.927 244.103 571.69C244.453 571.454 244.629 570.917 244.629 570.079ZM249.774 571.293V558.338H252.02V571.121C252.02 571.63 252.299 571.884 252.857 571.884H253.631V574H252.632C251.815 574 251.142 573.796 250.612 573.388C250.054 572.972 249.774 572.274 249.774 571.293ZM255.446 570.262V562.85H257.691V569.488C257.691 570.24 257.903 570.827 258.325 571.25C258.741 571.673 259.271 571.884 259.915 571.884C260.56 571.884 261.086 571.673 261.494 571.25C261.91 570.827 262.117 570.24 262.117 569.488V562.85H264.362V574H262.117V572.808H262.074C261.337 573.688 260.373 574.129 259.185 574.129C258.261 574.115 257.426 573.778 256.682 573.119C255.872 572.475 255.461 571.522 255.446 570.262ZM275.91 569.273H268.96C268.96 570.169 269.218 570.849 269.733 571.314C270.213 571.787 270.843 572.023 271.624 572.023C272.534 572.023 273.346 571.662 274.062 570.938L275.685 572.324C274.546 573.542 273.207 574.143 271.667 574.129C271.08 574.129 270.507 574.043 269.948 573.871C269.669 573.778 269.397 573.653 269.132 573.495C268.853 573.359 268.591 573.191 268.348 572.99C267.875 572.575 267.492 571.995 267.198 571.25C266.876 570.534 266.715 569.603 266.715 568.457C266.715 567.354 266.854 566.438 267.134 565.707C267.413 564.962 267.771 564.375 268.208 563.945C268.652 563.508 269.15 563.193 269.701 563C270.245 562.807 270.783 562.71 271.312 562.71C272.587 562.724 273.665 563.143 274.546 563.967C275.441 564.805 275.896 565.958 275.91 567.426V569.273ZM268.96 567.426H273.665C273.636 566.559 273.404 565.904 272.967 565.46C272.537 565.037 271.986 564.826 271.312 564.826C270.639 564.826 270.088 565.037 269.658 565.46C269.236 565.904 269.003 566.559 268.96 567.426Z" fill="black"/>
<path d="M172.305 300V299.012H172.262C172.054 299.391 171.732 299.671 171.295 299.85C170.865 300.036 170.271 300.129 169.512 300.129C168.266 300.115 167.306 299.785 166.633 299.141C165.924 298.51 165.569 297.705 165.569 296.724C165.569 295.785 165.877 295.008 166.493 294.393C167.109 293.762 168.011 293.44 169.2 293.426H172.305V292.255C172.319 291.274 171.556 290.798 170.017 290.826C169.458 290.826 169.018 290.883 168.695 290.998C168.359 291.134 168.094 291.363 167.9 291.686L166.139 290.343C166.991 289.226 168.248 288.681 169.909 288.71C171.313 288.696 172.434 288.961 173.271 289.505C174.109 290.063 174.535 291.023 174.55 292.384V300H172.305ZM172.305 296.079V295.273H169.619C168.316 295.302 167.671 295.75 167.686 296.616C167.686 296.996 167.854 297.318 168.19 297.583C168.513 297.877 169.046 298.023 169.791 298.023C170.729 298.038 171.392 297.927 171.778 297.69C172.129 297.454 172.305 296.917 172.305 296.079ZM177.783 296.595C178.693 297.547 179.867 298.023 181.307 298.023C181.951 298.023 182.478 297.898 182.886 297.647C183.294 297.397 183.498 297.046 183.498 296.595C183.498 296.194 183.376 295.914 183.133 295.757C182.882 295.592 182.549 295.503 182.134 295.488L180.157 295.316C179.219 295.23 178.456 294.915 177.869 294.371C177.268 293.841 176.96 293.1 176.945 292.147C176.96 291.002 177.364 290.142 178.159 289.569C178.933 288.996 179.914 288.71 181.103 288.71C181.618 288.71 182.08 288.742 182.488 288.807C182.896 288.878 183.28 288.979 183.638 289.107C184.325 289.387 184.941 289.763 185.485 290.235L184.1 291.857C183.67 291.549 183.215 291.295 182.735 291.095C182.263 290.916 181.718 290.826 181.103 290.826C180.401 290.826 179.91 290.951 179.631 291.202C179.337 291.453 179.19 291.775 179.19 292.169C179.176 292.42 179.287 292.638 179.523 292.824C179.738 293.032 180.118 293.164 180.662 293.222L182.51 293.361C183.67 293.447 184.508 293.798 185.023 294.414C185.503 295.016 185.743 295.778 185.743 296.702C185.729 297.784 185.288 298.618 184.422 299.205C183.562 299.807 182.463 300.115 181.124 300.129C179.305 300.129 177.669 299.463 176.215 298.131L177.783 296.595ZM188.354 296.595C189.263 297.547 190.438 298.023 191.877 298.023C192.521 298.023 193.048 297.898 193.456 297.647C193.864 297.397 194.068 297.046 194.068 296.595C194.068 296.194 193.947 295.914 193.703 295.757C193.452 295.592 193.119 295.503 192.704 295.488L190.728 295.316C189.789 295.23 189.027 294.915 188.439 294.371C187.838 293.841 187.53 293.1 187.516 292.147C187.53 291.002 187.935 290.142 188.729 289.569C189.503 288.996 190.484 288.71 191.673 288.71C192.188 288.71 192.65 288.742 193.059 288.807C193.467 288.878 193.85 288.979 194.208 289.107C194.896 289.387 195.511 289.763 196.056 290.235L194.67 291.857C194.24 291.549 193.785 291.295 193.306 291.095C192.833 290.916 192.289 290.826 191.673 290.826C190.971 290.826 190.48 290.951 190.201 291.202C189.908 291.453 189.761 291.775 189.761 292.169C189.746 292.42 189.857 292.638 190.094 292.824C190.309 293.032 190.688 293.164 191.232 293.222L193.08 293.361C194.24 293.447 195.078 293.798 195.594 294.414C196.074 295.016 196.313 295.778 196.313 296.702C196.299 297.784 195.859 298.618 194.992 299.205C194.133 299.807 193.034 300.115 191.694 300.129C189.875 300.129 188.239 299.463 186.785 298.131L188.354 296.595ZM207.238 295.273H200.288C200.288 296.169 200.546 296.849 201.062 297.314C201.541 297.787 202.172 298.023 202.952 298.023C203.862 298.023 204.674 297.662 205.391 296.938L207.013 298.324C205.874 299.542 204.535 300.143 202.995 300.129C202.408 300.129 201.835 300.043 201.276 299.871C200.997 299.778 200.725 299.653 200.46 299.495C200.181 299.359 199.919 299.191 199.676 298.99C199.203 298.575 198.82 297.995 198.526 297.25C198.204 296.534 198.043 295.603 198.043 294.457C198.043 293.354 198.183 292.438 198.462 291.707C198.741 290.962 199.099 290.375 199.536 289.945C199.98 289.508 200.478 289.193 201.029 289C201.574 288.807 202.111 288.71 202.641 288.71C203.915 288.724 204.993 289.143 205.874 289.967C206.769 290.805 207.224 291.958 207.238 293.426V295.273ZM200.288 293.426H204.993C204.965 292.559 204.732 291.904 204.295 291.46C203.865 291.037 203.314 290.826 202.641 290.826C201.967 290.826 201.416 291.037 200.986 291.46C200.564 291.904 200.331 292.559 200.288 293.426ZM209.72 288.85V285.455H211.965V288.85H213.598V290.558H211.965V297.057C211.951 297.622 212.215 297.898 212.76 297.884H213.598V300H212.427C211.639 300 210.994 299.757 210.493 299.27C209.978 298.804 209.72 298.131 209.72 297.25V290.558H208.603V288.85H209.72ZM214.436 300.129L219.699 284.209H221.418L216.154 300.129H214.436ZM228.895 300V299.012H228.852C228.644 299.391 228.322 299.671 227.885 299.85C227.455 300.036 226.861 300.129 226.102 300.129C224.855 300.115 223.896 299.785 223.223 299.141C222.514 298.51 222.159 297.705 222.159 296.724C222.159 295.785 222.467 295.008 223.083 294.393C223.699 293.762 224.601 293.44 225.79 293.426H228.895V292.255C228.909 291.274 228.146 290.798 226.606 290.826C226.048 290.826 225.607 290.883 225.285 290.998C224.949 291.134 224.684 291.363 224.49 291.686L222.729 290.343C223.581 289.226 224.838 288.681 226.499 288.71C227.903 288.696 229.023 288.961 229.861 289.505C230.699 290.063 231.125 291.023 231.14 292.384V300H228.895ZM228.895 296.079V295.273H226.209C224.906 295.302 224.261 295.75 224.275 296.616C224.275 296.996 224.444 297.318 224.78 297.583C225.103 297.877 225.636 298.023 226.381 298.023C227.319 298.038 227.981 297.927 228.368 297.69C228.719 297.454 228.895 296.917 228.895 296.079ZM240.593 296.724L242.247 298.195C241.76 298.754 241.187 299.209 240.528 299.56C239.869 299.925 239.107 300.115 238.24 300.129C236.923 300.129 235.766 299.681 234.771 298.786C233.739 297.891 233.209 296.441 233.181 294.436C233.209 292.409 233.739 290.941 234.771 290.031C235.766 289.136 236.923 288.696 238.24 288.71C239.107 288.724 239.869 288.903 240.528 289.247C241.187 289.598 241.76 290.067 242.247 290.654L240.593 292.126C240.027 291.374 239.271 290.984 238.326 290.955C236.421 290.926 235.454 292.087 235.426 294.436C235.454 296.77 236.421 297.92 238.326 297.884C239.271 297.869 240.027 297.483 240.593 296.724ZM243.944 288.85V285.455H246.189V288.85H247.822V290.558H246.189V297.057C246.175 297.622 246.44 297.898 246.984 297.884H247.822V300H246.651C245.864 300 245.219 299.757 244.718 299.27C244.202 298.804 243.944 298.131 243.944 297.25V290.558H242.827V288.85H243.944ZM250.003 300V288.85H252.248V300H250.003ZM250.003 286.583V284.338H252.248V286.583H250.003ZM257.737 300L253.645 288.85H256.019L258.64 296.659H258.683L261.293 288.85H263.678L259.585 300H257.737ZM265.063 300V288.85H267.309V300H265.063ZM265.063 286.583V284.338H267.309V286.583H265.063ZM270.413 288.85V285.455H272.658V288.85H274.291V290.558H272.658V297.057C272.644 297.622 272.909 297.898 273.453 297.884H274.291V300H273.12C272.332 300 271.688 299.757 271.187 299.27C270.671 298.804 270.413 298.131 270.413 297.25V290.558H269.296V288.85H270.413ZM278.803 299.56L274.807 288.85H277.181L279.823 296.659H279.866L282.498 288.85H284.883L280.081 302.31C279.773 303.147 279.347 303.728 278.803 304.05C278.251 304.358 277.628 304.512 276.934 304.512H276.192V302.396H276.848C277.141 302.396 277.413 302.317 277.664 302.159C277.915 301.994 278.09 301.751 278.19 301.429L278.803 299.56Z" fill="black"/>
</svg>
