<svg width="90" height="90" viewBox="0 0 90 90" fill="none" xmlns="http://www.w3.org/2000/svg">
<path fill-rule="evenodd" clip-rule="evenodd" d="M45 0C69.8528 0 90 20.1472 90 45C90 69.8528 69.8528 90 45 90C20.1472 90 0 69.8528 0 45C0 20.1472 20.1472 0 45 0Z" fill="url(#paint0_radial_709_7102)"/>
<path d="M28.5982 34.7535C37.6567 25.9155 52.3434 25.9155 61.4019 34.7535L62.4921 35.8172C62.945 36.2591 62.945 36.9755 62.4921 37.4174L58.7627 41.056C58.5363 41.277 58.1691 41.277 57.9426 41.056L56.4424 39.5923C50.1229 33.4267 39.8771 33.4267 33.5577 39.5923L31.951 41.1598C31.7246 41.3808 31.3574 41.3808 31.1309 41.1598L27.4016 37.5212C26.9486 37.0793 26.9486 36.3629 27.4016 35.921L28.5982 34.7535ZM69.1146 42.2785L72.4337 45.5169C72.8867 45.9588 72.8867 46.6752 72.4338 47.1171L57.4675 61.7193C57.0145 62.1613 56.2802 62.1613 55.8273 61.7194C55.8273 61.7194 55.8273 61.7194 55.8273 61.7194L45.2051 51.3557C45.0919 51.2453 44.9083 51.2453 44.7951 51.3557C44.7951 51.3557 44.7951 51.3557 44.7951 51.3557L34.1731 61.7193C33.7202 62.1613 32.9859 62.1613 32.533 61.7194C32.533 61.7194 32.533 61.7194 32.533 61.7194L17.5663 47.117C17.1133 46.675 17.1133 45.9586 17.5663 45.5167L20.8854 42.2783C21.3383 41.8364 22.0727 41.8364 22.5256 42.2783L33.1479 52.6421C33.2611 52.7526 33.4447 52.7526 33.558 52.6421C33.558 52.6421 33.558 52.6421 33.558 52.6421L44.1797 42.2783C44.6327 41.8364 45.367 41.8364 45.8199 42.2783C45.8199 42.2783 45.8199 42.2783 45.8199 42.2783L56.4422 52.6421C56.5555 52.7525 56.7391 52.7525 56.8523 52.6421L67.4744 42.2785C67.9273 41.8366 68.6617 41.8366 69.1146 42.2785Z" fill="white"/>
<defs>
<radialGradient id="paint0_radial_709_7102" cx="0" cy="0" r="1" gradientUnits="userSpaceOnUse" gradientTransform="translate(0 45) scale(90)">
<stop stop-color="#5D9DF6"/>
<stop offset="1" stop-color="#006FFF"/>
</radialGradient>
</defs>
</svg>
