<?xml version="1.0" standalone="no"?>
<!DOCTYPE svg PUBLIC "-//W3C//DTD SVG 20010904//EN"
 "http://www.w3.org/TR/2001/REC-SVG-20010904/DTD/svg10.dtd">
<svg version="1.0" xmlns="http://www.w3.org/2000/svg"
 width="980.000000pt" height="980.000000pt" viewBox="0 0 980.000000 980.000000"
 preserveAspectRatio="xMidYMid meet">
<metadata>
Created by potrace 1.14, written by Peter Selinger 2001-2017
</metadata>
<g transform="translate(0.000000,980.000000) scale(0.100000,-0.100000)"
fill="#000000" stroke="none">
<path d="M4825 9745 c-33 -20 -71 -41 -85 -47 -14 -7 -27 -15 -30 -18 -7 -7
-39 -27 -80 -48 -63 -34 -485 -276 -490 -282 -3 -3 -27 -17 -55 -32 -27 -14
-117 -64 -198 -112 -82 -47 -153 -86 -158 -86 -5 0 -9 -4 -9 -8 0 -4 -12 -13
-27 -19 -16 -7 -46 -23 -68 -37 -22 -14 -49 -30 -60 -36 -11 -5 -42 -23 -70
-40 -27 -16 -57 -33 -65 -37 -8 -4 -37 -20 -65 -36 -27 -17 -59 -35 -70 -41
-109 -60 -301 -172 -305 -177 -3 -3 -25 -16 -50 -28 -25 -12 -58 -30 -75 -41
-16 -10 -41 -25 -55 -33 -45 -25 -124 -70 -152 -86 -15 -9 -152 -88 -305 -175
-153 -88 -281 -164 -285 -170 -4 -6 -8 -8 -8 -4 0 6 -74 -34 -150 -82 -8 -5
-31 -17 -50 -27 -19 -9 -37 -19 -40 -22 -5 -6 -14 -11 -99 -59 -25 -13 -67
-38 -93 -53 -27 -16 -53 -29 -58 -29 -4 0 -10 -3 -12 -7 -3 -8 -69 -46 -115
-68 -13 -5 -23 -13 -23 -17 0 -5 -4 -8 -9 -8 -8 0 -256 -138 -341 -190 -42
-25 -130 -76 -165 -95 -22 -13 -83 -47 -135 -78 l-95 -55 -3 -2451 c-2 -1971
0 -2451 11 -2451 7 0 35 -15 62 -33 28 -19 65 -40 82 -48 18 -8 33 -17 33 -21
0 -5 4 -8 9 -8 9 0 118 -63 138 -80 7 -5 15 -10 18 -10 4 0 103 -56 221 -125
117 -69 218 -125 224 -125 5 0 10 -4 10 -9 0 -5 10 -13 23 -17 12 -4 24 -9 27
-13 5 -6 35 -23 100 -58 19 -10 37 -21 40 -24 4 -5 170 -101 210 -122 8 -4 31
-18 51 -30 20 -12 61 -36 90 -53 87 -49 132 -76 164 -95 17 -10 47 -28 69 -40
71 -38 331 -192 336 -198 3 -3 10 -7 17 -8 7 -2 37 -19 67 -38 30 -19 60 -35
66 -35 5 0 10 -5 10 -12 0 -6 3 -8 7 -5 3 4 13 1 22 -7 9 -7 41 -26 71 -42 30
-16 57 -32 60 -35 3 -3 25 -17 50 -31 89 -50 119 -67 159 -92 22 -15 43 -26
46 -26 3 0 31 -16 61 -35 30 -19 59 -35 64 -35 6 0 10 -4 10 -10 0 -5 9 -10
19 -10 11 0 21 -4 23 -8 2 -7 116 -74 316 -188 99 -56 118 -67 127 -74 6 -4
27 -17 48 -29 60 -34 99 -56 155 -90 29 -17 57 -31 62 -31 6 0 10 -4 10 -8 0
-5 16 -14 35 -22 19 -8 35 -17 35 -22 0 -4 5 -8 10 -8 6 0 27 -11 48 -23 33
-21 79 -48 162 -94 14 -8 39 -23 55 -33 17 -11 37 -23 45 -27 8 -4 43 -24 78
-45 34 -21 66 -38 71 -38 5 0 11 -3 13 -7 3 -8 38 -28 103 -61 17 -9 32 -18
35 -21 3 -3 25 -17 50 -30 25 -13 51 -29 59 -35 23 -18 45 -16 83 9 21 14 40
25 44 25 3 0 18 8 32 19 15 10 54 33 87 51 33 18 71 41 84 51 13 11 28 19 33
19 5 0 32 15 61 33 29 18 66 39 82 47 17 8 32 18 35 21 3 3 43 27 90 53 47 26
92 51 100 56 35 22 216 127 230 133 8 4 29 16 45 27 17 10 41 25 55 33 14 7
43 24 65 37 22 12 60 34 85 48 25 14 61 35 80 47 19 12 42 25 50 28 8 4 29 16
45 27 17 11 42 25 58 31 15 6 27 16 27 22 0 6 3 7 7 4 3 -4 13 -1 22 7 9 7 36
25 61 38 25 14 72 41 105 60 33 19 71 41 85 49 14 8 27 16 30 19 3 3 21 13 40
23 64 34 95 52 100 58 3 3 19 12 35 21 59 30 99 53 113 66 7 6 19 12 26 12 6
0 18 6 24 13 14 13 111 70 155 89 15 7 27 16 27 20 0 4 6 8 13 8 7 0 28 11 47
23 19 13 55 35 80 49 25 14 65 37 90 52 25 15 53 29 63 33 9 3 17 9 17 13 0 4
11 11 25 14 14 4 25 11 25 16 0 6 5 10 11 10 6 0 49 22 96 50 47 27 87 50 91
50 3 0 13 6 21 14 9 8 40 27 69 42 78 43 88 49 104 62 8 6 18 9 21 5 4 -3 7
-1 7 5 0 7 4 12 9 12 5 0 82 43 172 96 90 53 182 106 204 119 87 49 283 163
333 193 28 17 52 28 52 24 0 -4 4 -2 8 3 6 10 129 85 137 85 2 0 39 22 82 48
43 26 85 51 93 55 8 4 33 17 55 30 l40 24 2 2443 2 2444 -22 15 c-12 9 -42 27
-67 40 -25 13 -47 27 -50 30 -5 6 -97 57 -137 76 -13 5 -23 14 -23 18 0 5 -4
5 -10 2 -5 -3 -10 -2 -10 3 0 5 -8 12 -17 16 -10 3 -40 19 -68 36 -27 17 -58
33 -67 36 -10 4 -18 9 -18 13 0 3 -20 15 -45 26 -25 11 -45 23 -45 27 0 5 -4
8 -10 8 -5 0 -44 20 -86 45 -41 25 -80 45 -85 45 -5 0 -9 3 -9 8 0 4 -20 16
-45 27 -25 11 -45 23 -45 27 0 5 -4 8 -10 8 -5 0 -39 18 -75 40 -36 22 -72 40
-79 40 -8 0 -16 4 -18 8 -3 9 -77 53 -206 124 -37 20 -72 40 -77 45 -6 4 -28
17 -50 29 -22 12 -80 44 -128 73 -49 28 -93 51 -98 51 -5 0 -9 5 -9 10 0 6 -5
10 -10 10 -6 0 -65 32 -133 72 -67 39 -144 83 -172 98 -27 15 -74 41 -103 58
-29 18 -57 32 -62 32 -6 0 -10 4 -10 8 0 5 -16 14 -35 22 -19 8 -35 17 -35 21
0 4 -8 9 -17 12 -20 6 -117 60 -178 99 -22 14 -69 41 -105 60 -36 19 -81 45
-100 57 -19 11 -42 24 -50 28 -8 4 -38 22 -67 40 -29 18 -54 33 -57 33 -3 0
-60 32 -128 72 -68 39 -139 80 -158 90 -19 10 -53 30 -75 43 -22 14 -56 32
-75 42 -19 9 -37 19 -40 23 -3 3 -22 14 -42 25 -21 11 -38 23 -38 27 0 5 -7 8
-15 8 -8 0 -44 18 -80 40 -36 22 -70 40 -75 40 -6 0 -10 3 -10 8 0 4 -20 16
-45 27 -25 11 -45 23 -45 28 0 4 -4 7 -10 7 -5 0 -39 18 -75 40 -36 22 -67 40
-69 40 -3 0 -37 19 -78 43 -40 24 -80 46 -88 50 -8 4 -37 21 -65 37 -27 17
-57 34 -65 37 -8 4 -17 9 -20 12 -4 5 -35 23 -95 55 -11 6 -23 16 -27 21 -4 6
-8 7 -8 3 0 -4 -15 1 -32 12 -18 11 -35 20 -38 20 -3 0 -32 -16 -65 -35z"/>
</g>
</svg>
